<?xml version="1.0" encoding="UTF-8" standalone="no"?>
<svg
   xmlns:dc="http://purl.org/dc/elements/1.1/"
   xmlns:cc="http://creativecommons.org/ns#"
   xmlns:rdf="http://www.w3.org/1999/02/22-rdf-syntax-ns#"
   xmlns:svg="http://www.w3.org/2000/svg"
   xmlns="http://www.w3.org/2000/svg"
   viewBox="0 0 705.59998 470.39999"
   height="470.39999"
   width="705.59998"
   id="svg62"
   version="1.1">
  <metadata
     id="metadata68">
    <rdf:RDF>
      <cc:Work
         rdf:about="">
        <dc:format>image/svg+xml</dc:format>
        <dc:type
           rdf:resource="http://purl.org/dc/dcmitype/StillImage" />
        <dc:title></dc:title>
      </cc:Work>
    </rdf:RDF>
  </metadata>
  <defs
     id="defs66" />
  <g
     id="g70">
    <g
       transform="translate(0.71028254,1.3621259)"
       id="g74">
      <path
         id="path78"
         d="m 23.319182,455.75999 c -0.398039,-0.50755 -0.386721,-0.51885 0.120817,-0.12083 0.53304,0.41805 0.702554,0.68083 0.439183,0.68083 -0.06645,0 -0.31845,-0.252 -0.56,-0.56 z m 660.040798,-1.04 c 0.31856,-0.352 0.6512,-0.64 0.7392,-0.64 0.088,0 -0.10064,0.288 -0.4192,0.64 -0.31856,0.352 -0.6512,0.64 -0.7392,0.64 -0.088,0 0.10064,-0.288 0.4192,-0.64 z m -661.640798,-0.24 c -0.398039,-0.50755 -0.386721,-0.51885 0.120817,-0.12083 0.53304,0.41805 0.702554,0.68083 0.439183,0.68083 -0.06645,0 -0.31845,-0.252 -0.56,-0.56 z m 665.800798,-3.6 c 1.57667,-1.584 2.93866,-2.88 3.02666,-2.88 0.088,0 -1.12999,1.296 -2.70666,2.88 -1.57667,1.584 -2.93866,2.88 -3.02666,2.88 -0.088,0 1.12999,-1.296 2.70666,-2.88 z m -669.767488,-0.08 -2.552492,-2.64 2.639999,2.55248 c 1.452,1.40387 2.64,2.59187 2.64,2.64 0,0.23341 -0.35683,-0.10054 -2.727507,-2.55248 z m -3.71331,-4 c -0.398039,-0.50755 -0.38672,-0.51885 0.120818,-0.12083 0.533039,0.41805 0.702553,0.68083 0.439182,0.68083 -0.06645,0 -0.31845,-0.252 -0.56,-0.56 z m 677.160798,0.11917 c 0,-0.0664 0.252,-0.31843 0.56,-0.56 0.50755,-0.39802 0.51885,-0.38672 0.12083,0.12083 -0.41805,0.53302 -0.68083,0.70256 -0.68083,0.43917 z M 12.759182,445.19999 c -0.398039,-0.50755 -0.38672,-0.51885 0.120818,-0.12083 0.533039,0.41805 0.702553,0.68083 0.439182,0.68083 -0.06645,0 -0.31845,-0.252 -0.56,-0.56 z m 43.800816,-11.49194 c 0.22,-0.0888 0.58,-0.0888 0.8,0 0.22,0.0888 0.04,0.16141 -0.4,0.16141 -0.44,0 -0.62,-0.0726 -0.4,-0.16141 z m 591.679982,0 c 0.22,-0.0888 0.58,-0.0888 0.8,0 0.22,0.0888 0.04,0.16141 -0.4,0.16141 -0.44,0 -0.62,-0.0726 -0.4,-0.16141 z M 59.286088,433.37823 c 0.31135,-0.0811 0.74335,-0.0758 0.96,0.0118 0.216649,0.0876 -0.03809,0.15402 -0.56609,0.14752 -0.528,-0.006 -0.70526,-0.0782 -0.39391,-0.15939 z m 586.239972,0 c 0.31136,-0.0811 0.74336,-0.0758 0.96,0.0118 0.21667,0.0876 -0.0381,0.15402 -0.56608,0.14752 -0.528,-0.006 -0.70525,-0.0782 -0.39392,-0.15939 z m -603.296992,-7.05824 -1.749069,-1.84 1.84,1.74906 c 1.012,0.96201 1.84,1.79001 1.84,1.84 0,0.23753 -0.305991,-0.0396 -1.930931,-1.74906 z m 620.970912,-0.08 c 1.04499,-1.056 1.97197,-1.92 2.05997,-1.92 0.088,0 -0.69498,0.864 -1.73997,1.92 -1.04499,1.056 -1.97197,1.92 -2.05997,1.92 -0.088,0 0.69498,-0.864 1.73997,-1.92 z m 40.18525,-4.34665 c 0.0154,-0.3728 0.0912,-0.44861 0.19334,-0.19335 0.0924,0.23101 0.0811,0.50701 -0.0253,0.61335 -0.10633,0.10633 -0.18198,-0.0827 -0.16809,-0.42 z m 0.98528,-4.93335 c 0,-0.44 0.0726,-0.62 0.16141,-0.4 0.0888,0.22 0.0888,0.58 0,0.8 -0.0888,0.22 -0.16141,0.04 -0.16141,-0.4 z M 0.98526314,416.77334 c 0.0153549,-0.3728 0.0911809,-0.44861 0.19333326,-0.19335 0.092439,0.23101 0.08107,0.50701 -0.025263,0.61335 -0.1063333,0.10633 -0.18196492,-0.0827 -0.16807026,-0.42 z M 704.69051,414.71999 c 0,-0.44 0.0726,-0.62 0.16141,-0.4 0.0888,0.22 0.0888,0.58 0,0.8 -0.0888,0.22 -0.16141,0.04 -0.16141,-0.4 z m -703.99998372,-0.32 c 0,-0.44 0.0726316,-0.62 0.16140352,-0.4 0.0887719,0.22 0.0887719,0.58 0,0.8 -0.0887719,0.22 -0.16140352,0.04 -0.16140352,-0.4 z m 704.33182372,-2.4 c 0.006,-0.528 0.0782,-0.70525 0.15939,-0.39392 0.0811,0.31136 0.0758,0.74336 -0.0118,0.96 -0.0876,0.21667 -0.15402,-0.0381 -0.14752,-0.56608 z m -704.62810915,-0.48 c 0,-0.616 0.0658545,-0.868 0.14634329,-0.56 0.0804888,0.308 0.0804888,0.812 0,1.12 -0.0804888,0.308 -0.14634329,0.056 -0.14634329,-0.56 z M 670.10523,411.97334 c 0.0154,-0.3728 0.0912,-0.44861 0.19334,-0.19335 0.0924,0.23101 0.0811,0.50701 -0.0253,0.61335 -0.10633,0.10633 -0.18198,-0.0827 -0.16809,-0.42 z m -634.879967,-0.32 c 0.01536,-0.3728 0.09118,-0.44861 0.193331,-0.19335 0.09244,0.23101 0.08107,0.50701 -0.02525,0.61335 -0.106336,0.10633 -0.181965,-0.0827 -0.16807,-0.42 z m 635.225247,-1.73335 c 0,-0.44 0.0726,-0.62 0.16141,-0.4 0.0888,0.22 0.0888,0.58 0,0.8 -0.0888,0.22 -0.16141,0.04 -0.16141,-0.4 z m -670.04981132,-0.8 c 0.003552,-0.704 0.0690829,-0.95433 0.14562479,-0.55625 0.0765418,0.39804 0.0736358,0.97404 -0.006458,1.28 -0.0800936,0.30592 -0.14271878,-0.0198 -0.13916679,-0.72375 z m 704.63998132,-0.32 c 0.004,-0.704 0.0691,-0.95433 0.14564,-0.55625 0.0765,0.39804 0.0736,0.97404 -0.006,1.28 -0.0801,0.30592 -0.14272,-0.0198 -0.13917,-0.72375 z m -669.759983,-2.56 c 0.0036,-0.704 0.06908,-0.95433 0.145625,-0.55625 0.07654,0.39804 0.07364,0.97404 -0.0065,1.28 -0.08009,0.30592 -0.14272,-0.0198 -0.139168,-0.72375 z m 634.879993,-0.32 c 0.004,-0.704 0.0691,-0.95433 0.14563,-0.55625 0.0765,0.39804 0.0736,0.97404 -0.006,1.28 -0.0801,0.30592 -0.14272,-0.0198 -0.13917,-0.72375 z m -669.43999133,-0.96 c 0.003552,-0.704 0.0690829,-0.95433 0.14562479,-0.55625 0.0765418,0.39804 0.0736358,0.97404 -0.006458,1.28 -0.0800936,0.30592 -0.14271878,-0.0198 -0.13916679,-0.72375 z m 703.99998133,-0.32 c 0.004,-0.704 0.0691,-0.95433 0.14564,-0.55625 0.0765,0.39804 0.0736,0.97404 -0.006,1.28 -0.0801,0.30592 -0.14272,-0.0198 -0.13917,-0.72375 z m -669.113526,-3.04 c 0,-0.792 0.06241,-1.116 0.138679,-0.72 0.07628,0.396 0.07628,1.044 0,1.44 -0.07627,0.396 -0.138679,0.072 -0.138679,-0.72 z m 634.239996,-0.64 c 0,-0.792 0.0624,-1.116 0.13866,-0.72 0.0763,0.396 0.0763,1.044 0,1.44 -0.0763,0.396 -0.13866,0.072 -0.13866,-0.72 z m -668.7999935,-0.64 c 0,-0.792 0.062405,-1.116 0.138678,-0.72 0.076273,0.396 0.076273,1.044 0,1.44 -0.076273,0.396 -0.138678,0.072 -0.138678,-0.72 z m 703.3535235,-0.48 c 0.004,-0.704 0.0691,-0.95433 0.14564,-0.55625 0.0765,0.39804 0.0736,0.97404 -0.006,1.28 -0.0801,0.30592 -0.14272,-0.0198 -0.13917,-0.72375 z m -668.469158,-3.52 c 0.0026,-0.88 0.06455,-1.20201 0.138103,-0.71561 0.07355,0.48643 0.07159,1.20643 -0.0044,1.6 -0.07596,0.3936 -0.136135,-0.004 -0.133735,-0.88439 z m 633.599978,-0.64 c 0.003,-0.88 0.0645,-1.20201 0.13811,-0.71561 0.0735,0.48643 0.0716,1.20643 -0.004,1.6 -0.0759,0.3936 -0.13612,-0.004 -0.13372,-0.88439 z m -668.1599755,-0.64 c 0.0024,-0.88 0.064548,-1.20201 0.1381014,-0.71561 0.073553,0.48643 0.071588,1.20643 -0.00437,1.6 -0.075956,0.3936 -0.1361358,-0.004 -0.1337334,-0.88439 z m 702.7199755,-0.32 c 0.003,-0.88 0.0645,-1.20201 0.13811,-0.71561 0.0735,0.48643 0.0716,1.20643 -0.004,1.6 -0.0759,0.3936 -0.13613,-0.004 -0.13373,-0.88439 z m -506.25151,-1.67648 c 1.012,-0.0635 2.668,-0.0635 3.68,0 1.012,0.0635 0.184,0.11546 -1.84,0.11546 -2.024,0 -2.852,-0.0519 -1.84,-0.11546 z m -3.66,-0.30211 c 0.231,-0.0924 0.50701,-0.0811 0.61334,0.0253 0.10633,0.10634 -0.0827,0.18198 -0.42,0.1681 -0.37279,-0.0154 -0.44861,-0.0912 -0.19334,-0.19335 z m 10.56,0 c 0.231,-0.0924 0.50701,-0.0811 0.61334,0.0253 0.10633,0.10634 -0.0827,0.18198 -0.42,0.1681 -0.37279,-0.0154 -0.44861,-0.0912 -0.19334,-0.19335 z M 36.259157,390.23999 c 0.0019,-1.056 0.06154,-1.44941 0.132756,-0.87427 0.07122,0.57517 0.06975,1.43917 -0.0033,1.92 -0.07302,0.48086 -0.131287,0.0102 -0.129492,-1.04573 z m 632.959993,-0.64 c 0.003,-1.056 0.0615,-1.44941 0.13274,-0.87427 0.0712,0.57517 0.0698,1.43917 -0.003,1.92 -0.073,0.48086 -0.13127,0.0102 -0.12948,-1.04573 z m -667.5232575,-0.48 c 0,-0.968 0.059989,-1.364 0.1333089,-0.88 0.07332,0.484 0.07332,1.276 0,1.76 -0.07332,0.484 -0.1333089,0.088 -0.1333089,-0.88 z m 702.0832575,-0.48 c 0.003,-1.056 0.0615,-1.44941 0.13273,-0.87427 0.0712,0.57517 0.0698,1.43917 -0.003,1.92 -0.073,0.48086 -0.13126,0.0102 -0.12947,-1.04573 z m -518.11677,-3.52 c 0.007,-0.528 0.0782,-0.70525 0.15937,-0.39392 0.0811,0.31136 0.0758,0.74336 -0.0119,0.96 -0.0877,0.21667 -0.15404,-0.0381 -0.14752,-0.56608 z m 28.76288,-0.34665 c 0.0154,-0.3728 0.0912,-0.44861 0.19333,-0.19335 0.0924,0.23101 0.0811,0.50701 -0.0252,0.61335 -0.10633,0.10633 -0.18196,-0.0827 -0.16807,-0.42 z M 36.582421,383.03999 c 0,-1.144 0.05808,-1.612 0.129066,-1.04 0.07098,0.572 0.07098,1.508 0,2.08 -0.07099,0.572 -0.129066,0.104 -0.129066,-1.04 z m 632.322549,-0.8 c 0,-1.232 0.0593,-1.6968 0.12855,-1.03286 0.0693,0.66393 0.0681,1.67193 -0.003,2.24 -0.0707,0.56806 -0.12736,0.025 -0.12595,-1.20714 z m -666.8825463,-0.16 c 0,-1.144 0.058078,-1.612 0.1290628,-1.04 0.070985,0.572 0.070985,1.508 0,2.08 -0.070984,0.572 -0.1290628,0.104 -0.1290628,-1.04 z m 701.4399863,-0.64 c 0,-1.144 0.0581,-1.612 0.12906,-1.04 0.071,0.572 0.071,1.508 0,2.08 -0.071,0.572 -0.12906,0.104 -0.12906,-1.04 z m -517.78818,-0.96 c 0,-0.616 0.0659,-0.868 0.14635,-0.56 0.0805,0.308 0.0805,0.812 0,1.12 -0.0805,0.308 -0.14635,0.056 -0.14635,-0.56 z m 28.77629,-2.24 c 0,-0.44 0.0726,-0.62 0.1614,-0.4 0.0888,0.22 0.0888,0.58 0,0.8 -0.0888,0.22 -0.1614,0.04 -0.1614,-0.4 z m -28.45629,-1.28 c 0,-0.616 0.0659,-0.868 0.14635,-0.56 0.0805,0.308 0.0805,0.812 0,1.12 -0.0805,0.308 -0.14635,0.056 -0.14635,-0.56 z m -149.078871,-3.2 c 0,-1.672 0.05393,-2.356 0.119853,-1.52 0.06592,0.836 0.06592,2.204 0,3.04 -0.06592,0.836 -0.119853,0.152 -0.119853,-1.52 z m 177.189901,2.05335 c 0.0154,-0.3728 0.0912,-0.44861 0.19333,-0.19335 0.0924,0.23101 0.0811,0.50701 -0.0252,0.61335 -0.10633,0.10633 -0.18196,-0.0827 -0.16807,-0.42 z M 2.3535857,372.95999 c -9.76e-4,-1.584 0.053136,-2.27235 0.1202481,-1.52966 0.067112,0.74269 0.067909,2.03869 0.00177,2.88 -0.066136,0.84131 -0.121046,0.23366 -0.1220212,-1.35034 z m 666.2432643,-0.32 c 0,-1.76 0.0546,-2.43917 0.11942,-1.50928 0.0648,0.92992 0.0642,2.36992 0,3.2 -0.0657,0.83011 -0.11875,0.0693 -0.11792,-1.69072 z m 34.55673,-0.64 c 0,-1.584 0.0531,-2.27235 0.12022,-1.52966 0.0671,0.74269 0.0679,2.03869 0.003,2.88 -0.0661,0.84131 -0.12105,0.23366 -0.12201,-1.35034 z m -489.36832,1.89335 c 0.0154,-0.3728 0.0912,-0.44861 0.19333,-0.19335 0.0924,0.23101 0.0811,0.50701 -0.0252,0.61335 -0.10633,0.10633 -0.18196,-0.0827 -0.16807,-0.42 z m -0.32,-1.92 c 0.0154,-0.3728 0.0912,-0.44861 0.19333,-0.19335 0.0924,0.23101 0.0811,0.50701 -0.0252,0.61335 -0.10633,0.10633 -0.18196,-0.0827 -0.16807,-0.42 z m -27.52,-1.6 c 0.0154,-0.3728 0.0912,-0.44861 0.19333,-0.19335 0.0924,0.23101 0.0811,0.50701 -0.0252,0.61335 -0.10633,0.10633 -0.18196,-0.0827 -0.16807,-0.42 z m 27.23712,-0.61335 c 0.007,-0.528 0.0782,-0.70525 0.15937,-0.39392 0.0811,0.31136 0.0758,0.74336 -0.0119,0.96 -0.0877,0.21667 -0.15404,-0.0381 -0.14752,-0.56608 z m 0,-4.16 c 0.007,-0.528 0.0782,-0.70525 0.15937,-0.39392 0.0811,0.31136 0.0758,0.74336 -0.0119,0.96 -0.0877,0.21667 -0.15404,-0.0381 -0.14752,-0.56608 z m -26.89186,-1.12 c 0,-0.44 0.0726,-0.62 0.1614,-0.4 0.0888,0.22 0.0888,0.58 0,0.8 -0.0888,0.22 -0.1614,0.04 -0.1614,-0.4 z m 27.2,-1.28 c 0,-0.44 0.0726,-0.62 0.1614,-0.4 0.0888,0.22 0.0888,0.58 0,0.8 -0.0888,0.22 -0.1614,0.04 -0.1614,-0.4 z m -176.222787,-14.88 c -6.7e-5,-8.272 0.0413,-11.70192 0.09192,-7.62205 0.05062,4.07991 0.05067,10.84791 1.19e-4,15.04 -0.05056,4.19213 -0.09197,0.85405 -0.09204,-7.41795 z m -34.5602401,0 c 6.73e-5,-8.096 0.041587,-11.36211 0.092266,-7.25805 0.050679,4.10407 0.050624,10.72807 -1.224e-4,14.72 -0.050746,3.99194 -0.092211,0.63405 -0.092144,-7.46195 z M 213.78526,361.41334 c 0.0154,-0.3728 0.0912,-0.44861 0.19333,-0.19335 0.0924,0.23101 0.0811,0.50701 -0.0252,0.61335 -0.10633,0.10633 -0.18196,-0.0827 -0.16807,-0.42 z m 454.52087,-13.09335 c -1e-4,-7.216 0.0419,-10.21363 0.0934,-6.66144 0.0515,3.55223 0.0515,9.45623 1.6e-4,13.12 -0.0514,3.66381 -0.0935,0.75744 -0.0936,-6.45856 z m 34.55967,0 c 10e-5,-7.04 0.0423,-9.8744 0.0939,-6.29869 0.0516,3.57572 0.0515,9.33572 -1.6e-4,12.8 -0.0516,3.46429 -0.0938,0.53869 -0.0937,-6.50131 z m -516.56342,11.52 c 0.007,-0.528 0.0782,-0.70525 0.15937,-0.39392 0.0811,0.31136 0.0758,0.74336 -0.0119,0.96 -0.0877,0.21667 -0.15404,-0.0381 -0.14752,-0.56608 z m 27.80288,-0.34665 c 0.0154,-0.3728 0.0912,-0.44861 0.19333,-0.19335 0.0924,0.23101 0.0811,0.50701 -0.0252,0.61335 -0.10633,0.10633 -0.18196,-0.0827 -0.16807,-0.42 z m 0.32,-1.92 c 0.0154,-0.3728 0.0912,-0.44861 0.19333,-0.19335 0.0924,0.23101 0.0811,0.50701 -0.0252,0.61335 -0.10633,0.10633 -0.18196,-0.0827 -0.16807,-0.42 z m -28.45474,-0.77335 c 0,-0.44 0.0726,-0.62 0.1614,-0.4 0.0888,0.22 0.0888,0.58 0,0.8 -0.0888,0.22 -0.1614,0.04 -0.1614,-0.4 z m 28.81186,-1.44 c 0.007,-0.528 0.0782,-0.70525 0.15937,-0.39392 0.0811,0.31136 0.0758,0.74336 -0.0119,0.96 -0.0877,0.21667 -0.15404,-0.0381 -0.14752,-0.56608 z m -29.07057,-3.36 c 0,-1.496 0.0551,-2.108 0.12249,-1.36 0.0674,0.748 0.0674,1.972 0,2.72 -0.0674,0.748 -0.12249,0.136 -0.12249,-1.36 z m 29.05871,-1.6 c 0,-0.44 0.0726,-0.62 0.1614,-0.4 0.0888,0.22 0.0888,0.58 0,0.8 -0.0888,0.22 -0.1614,0.04 -0.1614,-0.4 z m -2.63475,-5.36 -0.77578,-0.88 0.88,0.77578 c 0.484,0.42669 0.88,0.82269 0.88,0.88 0,0.25097 -0.25913,0.0467 -0.98422,-0.77578 z m -24.93578,0.45987 c 0,-0.0551 0.468,-0.52307 1.04,-1.04 l 1.04,-0.93987 -0.93986,1.04 c -0.87609,0.96944 -1.14014,1.18711 -1.14014,0.93987 z m 18.82,-3.31846 c 0.231,-0.0924 0.50701,-0.0811 0.61334,0.0253 0.10633,0.10634 -0.0827,0.18198 -0.42,0.1681 -0.37279,-0.0154 -0.44861,-0.0912 -0.19334,-0.19335 z m -11.86,-0.31334 c 0.22,-0.0888 0.58,-0.0888 0.8,0 0.22,0.0888 0.04,0.1614 -0.4,0.1614 -0.44,0 -0.62,-0.0726 -0.4,-0.1614 z m 9.6,0 c 0.22,-0.0888 0.58,-0.0888 0.8,0 0.22,0.0888 0.04,0.1614 -0.4,0.1614 -0.44,0 -0.62,-0.0726 -0.4,-0.1614 z m -5.75154,-0.34279 c 0.75265,-0.0676 1.90465,-0.0666 2.56,0.003 0.65535,0.0688 0.0395,0.12407 -1.36846,0.12291 -1.408,0 -1.94419,-0.0574 -1.19154,-0.12502 z m 505.14839,-17.52528 c 0,-1.76 0.0546,-2.43916 0.11943,-1.50928 0.0648,0.92992 0.0642,2.36992 0,3.2 -0.0657,0.83012 -0.11875,0.0693 -0.11792,-1.69072 z m -507.55076,2.49824 c 0.31135,-0.0811 0.74335,-0.0758 0.96,0.0118 0.21665,0.0876 -0.0381,0.15402 -0.56609,0.14752 -0.528,-0.006 -0.70526,-0.0782 -0.39391,-0.15939 z m 8.15391,0.01 c 0.22,-0.0888 0.58,-0.0888 0.8,0 0.22,0.0888 0.04,0.16141 -0.4,0.16141 -0.44,0 -0.62,-0.0726 -0.4,-0.16141 z m -10.22,-0.32665 c 0.231,-0.0925 0.50701,-0.0811 0.61334,0.0253 0.10633,0.10633 -0.0827,0.18198 -0.42,0.16809 -0.37279,-0.0154 -0.44861,-0.0912 -0.19334,-0.19334 z m 475.05686,-2.82151 c 0,-1.76 0.0546,-2.43916 0.11942,-1.50928 0.0648,0.92992 0.0642,2.36992 0,3.2 -0.0657,0.83012 -0.11875,0.0693 -0.11792,-1.69072 z m -666.2399763,-0.64 c 8.32e-4,-1.76 0.05457,-2.43916 0.1194157,-1.50928 0.064845,0.92992 0.064164,2.36992 -0.00151,3.2 -0.06568,0.83012 -0.1187353,0.0693 -0.1179021,-1.69072 z m 34.5599993,-0.64 c 9.6e-4,-1.76 0.05457,-2.43917 0.119414,-1.50928 0.06485,0.92992 0.06417,2.36992 -0.0016,3.2 -0.06568,0.83012 -0.118733,0.0693 -0.117901,-1.69072 z m 173.643117,2.29988 c 0,-0.0551 0.468,-0.52308 1.04,-1.04 l 1.04,-0.93988 -0.93986,1.04 c -0.87609,0.96944 -1.14014,1.18711 -1.14014,0.93988 z m -23.8704,-1.25988 -0.6096,-0.72 0.72,0.6096 c 0.67663,0.57287 0.86568,0.8304 0.6096,0.8304 -0.0607,0 -0.38472,-0.324 -0.72,-0.72 z m 27.12093,-5.04 c 0,-0.44 0.0726,-0.62 0.1614,-0.4 0.0888,0.22 0.0888,0.58 0,0.8 -0.0888,0.22 -0.1614,0.04 -0.1614,-0.4 z m -29.38294,-1.92 c 0,-1.32 0.0565,-1.86 0.12553,-1.2 0.069,0.66 0.069,1.74 0,2.4 -0.069,0.66 -0.12553,0.12 -0.12553,-1.2 z m 519.03998,-2.56 c 0,-1.32 0.0565,-1.86 0.12554,-1.2 0.069,0.66 0.069,1.74 0,2.4 -0.0691,0.66 -0.12554,0.12 -0.12554,-1.2 z m -701.4399741,-0.96 c 0,-1.32 0.056486,-1.86 0.1255239,-1.2 0.069038,0.66 0.069038,1.74 0,2.4 -0.069038,0.66 -0.1255239,0.12 -0.1255239,-1.2 z m 666.8799841,0 c 0,-1.32 0.0565,-1.86 0.12553,-1.2 0.069,0.66 0.069,1.74 0,2.4 -0.069,0.66 -0.12553,0.12 -0.12553,-1.2 z m -632.319984,-0.96 c 0,-1.32 0.05648,-1.86 0.125523,-1.2 0.06904,0.66 0.06904,1.74 0,2.4 -0.06904,0.66 -0.125523,0.12 -0.125523,-1.2 z m 177.253104,0.8 c 0.004,-0.704 0.0691,-0.95432 0.14563,-0.55627 0.0765,0.39806 0.0736,0.97406 -0.006,1.28 -0.0801,0.30595 -0.14272,-0.0197 -0.13916,-0.72373 z m -29.17543,-0.0266 c 0.0154,-0.37279 0.0912,-0.44861 0.19333,-0.19334 0.0924,0.231 0.0811,0.507 -0.0252,0.61334 -0.10633,0.10633 -0.18196,-0.0827 -0.16807,-0.42 z m 0.64,-3.2 c 0.0154,-0.37279 0.0912,-0.44861 0.19333,-0.19334 0.0924,0.231 0.0811,0.507 -0.0252,0.61334 -0.10633,0.10633 -0.18196,-0.0827 -0.16807,-0.42 z m 28.22626,-1.57335 c 0.003,-0.88 0.0645,-1.20202 0.1381,-0.7156 0.0735,0.48642 0.0716,1.20642 -0.004,1.6 -0.076,0.39358 -0.13614,-0.004 -0.13374,-0.8844 z m 490.25089,-2.4 c 0,-1.144 0.0581,-1.612 0.12906,-1.04 0.071,0.572 0.071,1.508 0,2.08 -0.071,0.572 -0.12906,0.104 -0.12906,-1.04 z m -702.0832519,-0.8 c 0.0018,-1.056 0.061536,-1.44942 0.1327559,-0.87427 0.07122,0.57516 0.06975,1.43916 -0.00327,1.92 -0.073016,0.48085 -0.1312864,0.0103 -0.1294903,-1.04573 z m 667.5199919,0 c 0.003,-1.056 0.0615,-1.44942 0.13274,-0.87427 0.0712,0.57516 0.0698,1.43916 -0.003,1.92 -0.073,0.48085 -0.13127,0.0103 -0.12948,-1.04573 z m -632.956729,-0.8 c 0,-1.144 0.05808,-1.612 0.129066,-1.04 0.07098,0.572 0.07098,1.508 0,2.08 -0.07099,0.572 -0.129066,0.104 -0.129066,-1.04 z m 177.251809,0.32 c 0,-0.616 0.0659,-0.868 0.14635,-0.56 0.0805,0.308 0.0805,0.812 0,1.12 -0.0805,0.308 -0.14635,0.056 -0.14635,-0.56 z m -26.90371,-0.96 c 0,-0.44 0.0726,-0.62 0.1614,-0.4 0.0888,0.22 0.0888,0.58 0,0.8 -0.0888,0.22 -0.1614,0.04 -0.1614,-0.4 z m 517.48863,-4.64 c 0.003,-1.056 0.0615,-1.44942 0.13273,-0.87427 0.0712,0.57516 0.0698,1.43916 -0.003,1.92 -0.073,0.48085 -0.13126,0.0103 -0.12947,-1.04573 z m -517.48863,0.8 c 0,-0.44 0.0726,-0.62 0.1614,-0.4 0.0888,0.22 0.0888,0.58 0,0.8 -0.0888,0.22 -0.1614,0.04 -0.1614,-0.4 z m -185.2346275,-1.6 c 0,-0.968 0.059989,-1.364 0.1333089,-0.88 0.07332,0.484 0.07332,1.276 0,1.76 -0.07332,0.484 -0.1333089,0.088 -0.1333089,-0.88 z m 668.1632575,-0.16 c 0.003,-1.056 0.0615,-1.44942 0.13274,-0.87427 0.0712,0.57516 0.0698,1.43916 -0.003,1.92 -0.073,0.48085 -0.13127,0.0103 -0.12948,-1.04573 z m -455.98557,-1.28 c -9.6e-4,-1.584 0.0531,-2.27234 0.12025,-1.52965 0.0671,0.74269 0.0679,2.03869 0.002,2.88 -0.0661,0.84131 -0.12105,0.23365 -0.12202,-1.35035 z m -177.61769,0.48 c 0,-0.968 0.05999,-1.364 0.133309,-0.88 0.07332,0.484 0.07332,1.276 0,1.76 -0.07332,0.484 -0.133309,0.088 -0.133309,-0.88 z m 668.47999,-4.48 c 0,-0.968 0.06,-1.364 0.13332,-0.88 0.0733,0.484 0.0733,1.276 0,1.76 -0.0734,0.484 -0.13332,0.088 -0.13332,-0.88 z m -519.11062,0.45334 c 0.0154,-0.37279 0.0912,-0.44861 0.19333,-0.19334 0.0924,0.231 0.0811,0.50701 -0.0252,0.61334 -0.10633,0.10633 -0.18196,-0.0827 -0.16807,-0.42 z M 1.0515245,291.35999 c 0.0024,-0.88 0.064548,-1.20202 0.1381015,-0.7156 0.073553,0.48642 0.071588,1.20642 -0.00437,1.6 -0.075956,0.39358 -0.1361359,-0.004 -0.1337335,-0.8844 z m 668.8043655,-0.48 c 0,-0.968 0.06,-1.364 0.13331,-0.88 0.0733,0.484 0.0733,1.276 0,1.76 -0.0734,0.484 -0.13331,0.088 -0.13331,-0.88 z m -634.248736,-0.32 c 0,-0.792 0.06241,-1.116 0.138679,-0.72 0.07628,0.396 0.07628,1.044 0,1.44 -0.07627,0.396 -0.138679,0.072 -0.138679,-0.72 z m 149.378106,0.45334 c 0.0154,-0.37279 0.0912,-0.44861 0.19333,-0.19334 0.0924,0.231 0.0811,0.50701 -0.0253,0.61334 -0.10633,0.10633 -0.18196,-0.0827 -0.16807,-0.42 z m 28.85543,-0.93334 c 0.004,-0.704 0.0691,-0.95432 0.14563,-0.55626 0.0765,0.39805 0.0736,0.97405 -0.006,1.28 -0.0801,0.30594 -0.14272,-0.0197 -0.13916,-0.72374 z m -29.15017,-1.12 c 0,-0.44 0.0726,-0.62 0.1614,-0.4 0.0888,0.22 0.0888,0.58 0,0.8 -0.0888,0.22 -0.1614,0.04 -0.1614,-0.4 z M 37.059999,289.0614 c 0.230998,-0.0924 0.506998,-0.0811 0.613334,0.0253 0.106333,0.10633 -0.08267,0.18196 -0.42,0.16807 -0.372784,-0.0154 -0.448608,-0.0912 -0.193334,-0.19333 z m 630.719981,0 c 0.23101,-0.0924 0.50701,-0.0811 0.61335,0.0253 0.10633,0.10633 -0.0827,0.18196 -0.42,0.16807 -0.3728,-0.0154 -0.44861,-0.0912 -0.19335,-0.19333 z m -1.92,-0.32 c 0.23101,-0.0924 0.50701,-0.0811 0.61335,0.0253 0.10633,0.10633 -0.0827,0.18196 -0.42,0.16807 -0.3728,-0.0154 -0.44861,-0.0912 -0.19335,-0.19333 z m -625.599981,-0.32 c 0.230998,-0.0924 0.507001,-0.0811 0.613334,0.0252 0.106333,0.10633 -0.08267,0.18196 -0.42,0.16807 -0.372784,-0.0154 -0.448608,-0.0912 -0.193334,-0.19333 z M 704.7315,286.55999 c 0.003,-0.88 0.0645,-1.20202 0.13811,-0.7156 0.0735,0.48642 0.0716,1.20642 -0.004,1.6 -0.0759,0.39358 -0.13613,-0.004 -0.13373,-0.8844 z m -704.00434351,-0.8 c 0,-0.792 0.0624051,-1.116 0.13867805,-0.72 0.0762729,0.396 0.0762729,1.044 0,1.44 -0.0762729,0.396 -0.13867805,0.072 -0.13867805,-0.72 z m 213.08336351,-1.6 c 0,-0.44 0.0726,-0.62 0.1614,-0.4 0.0888,0.22 0.0888,0.58 0,0.8 -0.0888,0.22 -0.1614,0.04 -0.1614,-0.4 z M 0.66526315,280.77333 c 0.0153549,-0.37279 0.0911809,-0.44861 0.19333331,-0.19334 0.0924386,0.231 0.0810702,0.50701 -0.025263,0.61334 -0.10633334,0.10633 -0.18196493,-0.0827 -0.16807031,-0.42 z m 703.99996685,-0.32 c 0.0154,-0.37279 0.0912,-0.44861 0.19334,-0.19334 0.0924,0.231 0.0811,0.50701 -0.0253,0.61334 -0.10633,0.10633 -0.18198,-0.0827 -0.16809,-0.42 z m -517.78524,-1.25334 c 0.59705,-0.616 1.15755,-1.12 1.24555,-1.12 0.088,0 -0.3285,0.504 -0.92555,1.12 -0.59704,0.616 -1.15754,1.12 -1.24554,1.12 -0.088,0 0.3285,-0.504 0.92554,-1.12 z M 0.98526314,278.85333 c 0.0153549,-0.37279 0.0911809,-0.44861 0.19333326,-0.19334 0.092439,0.231 0.08107,0.50701 -0.025263,0.61334 -0.1063333,0.10633 -0.18196492,-0.0827 -0.16807026,-0.42 z m 703.35996686,-0.32 c 0.0154,-0.37279 0.0912,-0.44861 0.19334,-0.19334 0.0924,0.231 0.0811,0.50701 -0.0253,0.61334 -0.10633,0.10633 -0.18198,-0.0827 -0.16809,-0.42 z m -493.18606,-0.37334 c -0.39803,-0.50754 -0.38672,-0.51885 0.12082,-0.12082 0.308,0.24156 0.56,0.49356 0.56,0.56 0,0.26338 -0.26278,0.0939 -0.68082,-0.43918 z m 429.11998,-0.96 c -0.39802,-0.50754 -0.38672,-0.51885 0.12083,-0.12082 0.308,0.24156 0.56,0.49356 0.56,0.56 0,0.26338 -0.26278,0.0939 -0.68083,-0.43918 z m -574.999152,0.11918 c 0,-0.0664 0.252,-0.31844 0.56,-0.56 0.507539,-0.39803 0.518858,-0.38672 0.120819,0.12082 -0.418038,0.53304 -0.680819,0.70256 -0.680819,0.43918 z m 1.76,-1.47918 c 0.318557,-0.352 0.651194,-0.64 0.739194,-0.64 0.088,0 -0.100637,0.288 -0.419194,0.64 -0.318557,0.352 -0.651193,0.64 -0.739193,0.64 -0.088,0 0.100636,-0.288 0.419193,-0.64 z m 571.639152,0.08 c -0.39802,-0.50754 -0.38672,-0.51885 0.12083,-0.12082 0.308,0.24156 0.56,0.49356 0.56,0.56 0,0.26338 -0.26278,0.0939 -0.68083,-0.43918 z M 194.81999,275.6214 c 0.231,-0.0924 0.50701,-0.0811 0.61334,0.0253 0.10633,0.10633 -0.0827,0.18196 -0.42,0.16807 -0.37279,-0.0154 -0.44861,-0.0912 -0.19334,-0.19333 z m 10.56,0 c 0.231,-0.0924 0.50701,-0.0811 0.61334,0.0253 0.10633,0.10633 -0.0827,0.18196 -0.42,0.16807 -0.37279,-0.0154 -0.44861,-0.0912 -0.19334,-0.19333 z m -6.56831,-0.33823 c 1.01842,-0.0637 2.60242,-0.0631 3.52,0.001 0.91757,0.0644 0.0843,0.11653 -1.85169,0.11581 -1.936,-6.4e-4 -2.68674,-0.0534 -1.66831,-0.11712 z m 436.06123,-2.88318 -2.71293,-2.8 2.8,2.71294 c 1.54,1.49211 2.8,2.75211 2.8,2.8 0,0.23283 -0.36736,-0.11238 -2.88707,-2.71294 z m -564.152912,0.08 c 1.13383,-1.144 2.13351,-2.08 2.22151,-2.08 0.088,0 -0.76768,0.936 -1.90151,2.08 -1.13383,1.144 -2.13351,2.08 -2.22151,2.08 -0.088,0 0.76768,-0.936 1.90151,-2.08 z m 2.88,-3.16081 c 0,-0.0665 0.252,-0.31845 0.56,-0.56 0.507539,-0.39804 0.518857,-0.38672 0.120819,0.12081 -0.418038,0.53304 -0.680819,0.70256 -0.680819,0.43919 z m 557.399152,-1.07919 c -0.39802,-0.50753 -0.38672,-0.51885 0.12083,-0.12081 0.308,0.24155 0.56,0.49355 0.56,0.56 0,0.26337 -0.26278,0.0939 -0.68083,-0.43919 z m -0.96,-1.28 c -0.39802,-0.50753 -0.38672,-0.51885 0.12083,-0.12081 0.308,0.24155 0.56,0.49355 0.56,0.56 0,0.26337 -0.26278,0.0938 -0.68083,-0.43919 z M 6.3999998,266.43918 c 0,-0.0665 0.252,-0.31845 0.56,-0.56 0.5075379,-0.39804 0.5188563,-0.38672 0.1208176,0.12081 -0.4180381,0.53304 -0.6808176,0.70256 -0.6808176,0.43919 z m 691.3398502,-1.55919 -0.93987,-1.04 1.04,0.93987 c 0.96944,0.87609 1.1871,1.14013 0.93987,1.14013 -0.0551,0 -0.52307,-0.468 -1.04,-1.04 z m -689.4198502,-0.72 c 0.4133584,-0.44 0.8235609,-0.8 0.9115609,-0.8 0.088,0 -0.1782026,0.36 -0.5915609,0.8 -0.4133584,0.44 -0.823561,0.8 -0.911561,0.8 -0.088,0 0.1782026,-0.36 0.591561,-0.8 z m 687.0157602,-1.68 -0.77578,-0.88 0.88,0.77578 c 0.484,0.42669 0.88,0.82269 0.88,0.88 0,0.25097 -0.25914,0.0467 -0.98422,-0.77578 z M 10.24,262.59918 c 0,-0.0664 0.252,-0.31845 0.56,-0.56 0.507538,-0.39804 0.518856,-0.38672 0.120817,0.12081 -0.418038,0.53304 -0.680817,0.70256 -0.680817,0.43919 z m 186.32608,-2.34094 c 0.31135,-0.0811 0.74335,-0.0758 0.96,0.0119 0.21665,0.0877 -0.0381,0.15404 -0.56609,0.14752 -0.528,-0.007 -0.70526,-0.0782 -0.39391,-0.15938 z m 7.83391,0.01 c 0.22,-0.0888 0.58,-0.0888 0.8,0 0.22,0.0888 0.04,0.16141 -0.4,0.16141 -0.44,0 -0.62,-0.0726 -0.4,-0.16141 z m 6.48,-2.46888 c 0,-0.0664 0.252,-0.31845 0.56,-0.56 0.50754,-0.39804 0.51886,-0.38672 0.12082,0.12081 -0.41804,0.53304 -0.68082,0.70256 -0.68082,0.43919 z m -24.18013,-1.23919 -0.93987,-1.04 1.04,0.93987 c 0.96943,0.87609 1.18709,1.14013 0.93987,1.14013 -0.0551,0 -0.52307,-0.468 -1.04,-1.04 z M 24.259999,256.1014 c 0.231,-0.0924 0.507,-0.0811 0.613334,0.0252 0.106333,0.10633 -0.08267,0.18196 -0.42,0.16807 -0.372782,-0.0154 -0.448608,-0.0912 -0.193334,-0.19333 z m 1.92,-0.32 c 0.231,-0.0924 0.507,-0.0811 0.613334,0.0252 0.106333,0.10633 -0.08267,0.18196 -0.42,0.16807 -0.372782,-0.0154 -0.448608,-0.0912 -0.193334,-0.19333 z m 654.079981,0 c 0.23101,-0.0924 0.50701,-0.0811 0.61334,0.0252 0.10634,0.10633 -0.0827,0.18196 -0.42,0.16807 -0.3728,-0.0154 -0.4486,-0.0912 -0.19334,-0.19333 z M 28.079999,255.46806 c 0.22,-0.0888 0.58,-0.0888 0.8,0 0.22,0.0888 0.04,0.16141 -0.4,0.16141 -0.44,0 -0.62,-0.0726 -0.4,-0.16141 z m 649.919981,0 c 0.22,-0.0888 0.58,-0.0888 0.8,0 0.22,0.0888 0.04,0.16141 -0.4,0.16141 -0.44,0 -0.62,-0.0726 -0.4,-0.16141 z M 30.339999,255.1414 c 0.231,-0.0924 0.507,-0.0811 0.613334,0.0252 0.106333,0.10633 -0.08267,0.18196 -0.42,0.16807 -0.372782,-0.0154 -0.448608,-0.0912 -0.193334,-0.19333 z m 644.626061,-0.003 c 0.31136,-0.0811 0.74336,-0.0758 0.96,0.0119 0.21667,0.0877 -0.0381,0.15404 -0.56608,0.14752 -0.528,-0.007 -0.70525,-0.0782 -0.39392,-0.15937 z m -2.06608,-0.31684 c 0.23101,-0.0924 0.50701,-0.0811 0.61334,0.0252 0.10634,0.10633 -0.0827,0.18196 -0.42,0.16807 -0.3728,-0.0154 -0.4486,-0.0912 -0.19334,-0.19333 z m -488.4724,-4.90137 c 0,-1.32 0.0565,-1.86 0.12553,-1.2 0.069,0.66 0.069,1.74 0,2.4 -0.069,0.66 -0.12553,0.12 -0.12553,-1.2 z m 29.3948,0.48 c 0.007,-0.528 0.0782,-0.70526 0.15937,-0.39391 0.0811,0.31135 0.0758,0.74335 -0.0119,0.96 -0.0877,0.21665 -0.15404,-0.0381 -0.14752,-0.56609 z m 445.52557,-2.48 -1.58797,-1.68 1.68,1.58798 c 1.56109,1.47557 1.82675,1.77202 1.58797,1.77202 -0.0506,0 -0.80662,-0.756 -1.68,-1.68 z m -613.107951,0.08 c 0.687436,-0.704 1.321888,-1.28 1.409888,-1.28 0.088,0 -0.402452,0.576 -1.089888,1.28 -0.687437,0.704 -1.321888,1.28 -1.409888,1.28 -0.088,0 0.402451,-0.576 1.089888,-1.28 z m 138.425261,-2.10666 c 0.0154,-0.37278 0.0912,-0.44861 0.19333,-0.19334 0.0924,0.231 0.0811,0.50701 -0.0252,0.61334 -0.10633,0.10633 -0.18196,-0.0827 -0.16807,-0.42 z m -100.159998,-0.64 c 0.01536,-0.37278 0.09118,-0.44861 0.193331,-0.19334 0.09244,0.231 0.08107,0.50701 -0.02525,0.61334 -0.106333,0.10633 -0.181965,-0.0827 -0.168071,-0.42 z m 536.319968,-0.32 c 0.0154,-0.37278 0.0912,-0.44861 0.19334,-0.19334 0.0925,0.231 0.0811,0.50701 -0.0253,0.61334 -0.10633,0.10633 -0.18198,-0.0827 -0.16809,-0.42 z m -435.83997,-0.64 c 0.0154,-0.37278 0.0912,-0.44861 0.19333,-0.19334 0.0924,0.231 0.0811,0.50701 -0.0253,0.61334 -0.10633,0.10633 -0.18196,-0.0827 -0.16807,-0.42 z m 28.9019,-4.61334 c 0,-2.552 0.0497,-3.596 0.11044,-2.32 0.0607,1.276 0.0607,3.364 0,4.64 -0.0608,1.276 -0.11044,0.232 -0.11044,-2.32 z m -129.036638,3.2 c 0,-0.44 0.07263,-0.62 0.161405,-0.4 0.08877,0.22 0.08877,0.58 0,0.8 -0.08877,0.22 -0.161405,0.04 -0.161405,-0.4 z m 535.679988,-0.32 c 0,-0.44 0.0726,-0.62 0.16141,-0.4 0.0888,0.22 0.0888,0.58 0,0.8 -0.0888,0.22 -0.16141,0.04 -0.16141,-0.4 z m -535.323357,-3.2 c 0,-0.792 0.06241,-1.116 0.138678,-0.72 0.07627,0.396 0.07627,1.044 0,1.44 -0.07627,0.396 -0.138678,0.072 -0.138678,-0.72 z m 535.039997,-0.32 c 0,-0.792 0.0624,-1.116 0.13866,-0.72 0.0763,0.396 0.0763,1.044 0,1.44 -0.0763,0.396 -0.13866,0.072 -0.13866,-0.72 z m 34.81808,0.77334 c 0.0154,-0.37278 0.0912,-0.44861 0.19334,-0.19334 0.0924,0.231 0.0811,0.50701 -0.0253,0.61334 -0.10633,0.10633 -0.18198,-0.0827 -0.16809,-0.42 z m -468.79997,-1.28 c 0.0154,-0.37278 0.0912,-0.44861 0.19333,-0.19334 0.0924,0.231 0.0811,0.50701 -0.0252,0.61334 -0.10633,0.10633 -0.18196,-0.0827 -0.16807,-0.42 z M 50.622383,237.91999 c 0.0065,-0.528 0.07824,-0.70526 0.159372,-0.39391 0.08113,0.31135 0.0758,0.74335 -0.01187,0.96 -0.08766,0.21665 -0.154038,-0.0381 -0.147516,-0.56609 z m 604.159967,-0.32 c 0.006,-0.528 0.0782,-0.70526 0.15939,-0.39391 0.0811,0.31135 0.0758,0.74335 -0.0118,0.96 -0.0876,0.21665 -0.15401,-0.0381 -0.14752,-0.56609 z m -468.19709,-0.98666 c 0.0154,-0.37278 0.0912,-0.44861 0.19333,-0.19334 0.0924,0.231 0.0811,0.50701 -0.0252,0.61334 -0.10633,0.10633 -0.18196,-0.0827 -0.16807,-0.42 z M 50.634239,232.96 c 0,-0.616 0.06586,-0.868 0.146345,-0.56 0.08049,0.308 0.08049,0.812 0,1.12 -0.08049,0.308 -0.146345,0.056 -0.146345,-0.56 z m 604.159981,-0.32 c 0,-0.616 0.0659,-0.868 0.14634,-0.56 0.0805,0.308 0.0805,0.812 0,1.12 -0.0805,0.308 -0.14634,0.056 -0.14634,-0.56 z M 85.211521,231.52 c 0.0026,-0.88 0.06455,-1.20202 0.138102,-0.7156 0.07355,0.48641 0.07159,1.20641 -0.0044,1.6 -0.07595,0.39358 -0.136134,-0.004 -0.133734,-0.8844 z m 101.373739,0.61333 c 0.0154,-0.37278 0.0912,-0.44861 0.19333,-0.19333 0.0924,0.23099 0.0811,0.507 -0.0252,0.61333 -0.10633,0.10633 -0.18196,-0.0827 -0.16807,-0.42 z M 620.2515,231.2 c 0.003,-0.88 0.0646,-1.20202 0.13811,-0.7156 0.0735,0.48641 0.0716,1.20641 -0.004,1.6 -0.0759,0.39358 -0.13612,-0.004 -0.13372,-0.8844 z m -408.06624,0.29333 c 0.0154,-0.37278 0.0912,-0.44861 0.19333,-0.19333 0.0924,0.23099 0.0811,0.507 -0.0252,0.61333 -0.10633,0.10633 -0.18196,-0.0827 -0.16807,-0.42 z m -161.919997,-1.28 c 0.01536,-0.37278 0.09118,-0.44861 0.193331,-0.19333 0.09244,0.23099 0.08107,0.507 -0.02525,0.61333 -0.106336,0.10633 -0.181965,-0.0827 -0.168071,-0.42 z m 604.799967,0 c 0.0154,-0.37278 0.0912,-0.44861 0.19334,-0.19333 0.0924,0.23099 0.0811,0.507 -0.0253,0.61333 -0.10633,0.10633 -0.18198,-0.0827 -0.16809,-0.42 z m -442.87997,-1.92 c 0.0154,-0.37278 0.0912,-0.44861 0.19333,-0.19333 0.0924,0.23099 0.0811,0.507 -0.0252,0.61333 -0.10633,0.10633 -0.18196,-0.0827 -0.16807,-0.42 z M 84.850522,227.84 c 0,-0.44 0.07263,-0.62 0.161405,-0.4 0.08877,0.22 0.08877,0.58 0,0.8 -0.08877,0.22 -0.161405,0.04 -0.161405,-0.4 z m 535.679988,-0.32 c 0,-0.44 0.0726,-0.62 0.16141,-0.4 0.0888,0.22 0.0888,0.58 0,0.8 -0.0888,0.22 -0.16141,0.04 -0.16141,-0.4 z m -408.02525,-1.14667 c 0.0154,-0.37278 0.0912,-0.44861 0.19333,-0.19333 0.0924,0.23099 0.0811,0.507 -0.0252,0.61333 -0.10633,0.10633 -0.18196,-0.0827 -0.16807,-0.42 z m -127.999998,-0.96 c 0.01536,-0.37278 0.09118,-0.44861 0.193331,-0.19333 0.09244,0.23099 0.08107,0.507 -0.02525,0.61333 -0.106333,0.10633 -0.181965,-0.0827 -0.168071,-0.42 z m 100.799998,0 c 0.0154,-0.37278 0.0912,-0.44861 0.19333,-0.19333 0.0924,0.23099 0.0811,0.507 -0.0252,0.61333 -0.10633,0.10633 -0.18196,-0.0827 -0.16807,-0.42 z m 435.51997,-0.32 c 0.0154,-0.37278 0.0912,-0.44861 0.19334,-0.19333 0.0925,0.23099 0.0811,0.507 -0.0253,0.61333 -0.10633,0.10633 -0.18198,-0.0827 -0.16809,-0.42 z m -536.639968,-1.6 c 0.01536,-0.37278 0.09118,-0.44861 0.193331,-0.19333 0.09244,0.23099 0.08107,0.507 -0.02525,0.61333 -0.106333,0.10633 -0.181965,-0.0827 -0.168071,-0.42 z M 185.02238,222.88 c 0.007,-0.528 0.0782,-0.70527 0.15937,-0.39392 0.0811,0.31136 0.0758,0.74336 -0.0119,0.96 -0.0877,0.21665 -0.15404,-0.0381 -0.14752,-0.56608 z m -139.262381,-1.6 c -0.77729,-0.792 -1.341255,-1.44 -1.253255,-1.44 0.088,0 0.795965,0.648 1.573255,1.44 0.777289,0.792 1.341254,1.44 1.253254,1.44 -0.088,0 -0.795965,-0.648 -1.573254,-1.44 z m 167.705261,0.61333 c 0.0154,-0.37278 0.0912,-0.44861 0.19333,-0.19333 0.0924,0.23099 0.0811,0.507 -0.0252,0.61333 -0.10633,0.10633 -0.18196,-0.0827 -0.16807,-0.42 z m 447.01472,-1.21415 c 0,-0.0665 0.252,-0.31845 0.56,-0.56 0.50755,-0.39804 0.51885,-0.38672 0.12083,0.12082 -0.41804,0.53304 -0.68083,0.70255 -0.68083,0.43918 z M 213.82238,219.68 c 0.007,-0.528 0.0782,-0.70527 0.15937,-0.39392 0.0811,0.31136 0.0758,0.74336 -0.0119,0.96 -0.0877,0.21665 -0.15404,-0.0381 -0.14752,-0.56608 z m -28.81186,-1.76 c 0,-0.44 0.0726,-0.62 0.1614,-0.4 0.0888,0.22 0.0888,0.58 0,0.8 -0.0888,0.22 -0.1614,0.04 -0.1614,-0.4 z m 28.8,-1.6 c 0,-0.44 0.0726,-0.62 0.1614,-0.4 0.0888,0.22 0.0888,0.58 0,0.8 -0.0888,0.22 -0.1614,0.04 -0.1614,-0.4 z M 32.579999,215.4614 c 0.230998,-0.0924 0.506998,-0.0811 0.613334,0.0252 0.106333,0.10633 -0.08267,0.18196 -0.42,0.16807 -0.372784,-0.0154 -0.448608,-0.0912 -0.193334,-0.19333 z m -2.26,-0.31333 c 0.22,-0.0888 0.58,-0.0888 0.8,0 0.22,0.0888 0.04,0.1614 -0.4,0.1614 -0.44,0 -0.62,-0.0726 -0.4,-0.1614 z m 643.219981,-0.007 c 0.23101,-0.0924 0.50701,-0.0811 0.61334,0.0252 0.10634,0.10633 -0.0827,0.18196 -0.42,0.16807 -0.3728,-0.0154 -0.4486,-0.0912 -0.19334,-0.19333 z m -645.119981,-0.32 c 0.231,-0.0924 0.507,-0.0811 0.613334,0.0253 0.106333,0.10633 -0.08267,0.18196 -0.42,0.16807 -0.372782,-0.0154 -0.448608,-0.0912 -0.193334,-0.19333 z m 647.039981,0 c 0.23101,-0.0924 0.50701,-0.0811 0.61334,0.0253 0.10634,0.10633 -0.0827,0.18196 -0.42,0.16807 -0.3728,-0.0154 -0.4486,-0.0912 -0.19334,-0.19333 z m 1.92,-0.32 c 0.23101,-0.0924 0.50701,-0.0811 0.61334,0.0252 0.10634,0.10633 -0.0827,0.18196 -0.42,0.16807 -0.3728,-0.0154 -0.4486,-0.0912 -0.19334,-0.19333 z m 1.92,-0.32 c 0.23101,-0.0924 0.50701,-0.0811 0.61334,0.0252 0.10634,0.10633 -0.0827,0.18196 -0.42,0.16807 -0.3728,-0.0154 -0.4486,-0.0912 -0.19334,-0.19333 z m 1.6,-0.32 c 0.23101,-0.0924 0.50701,-0.0811 0.61334,0.0252 0.10634,0.10633 -0.0827,0.18196 -0.42,0.16807 -0.3728,-0.0154 -0.4486,-0.0912 -0.19334,-0.19333 z M 211.81577,212.24 l -0.77578,-0.88 0.88,0.77577 c 0.484,0.42669 0.88,0.82269 0.88,0.88 0,0.25097 -0.25913,0.0467 -0.98422,-0.77577 z m -17.95578,-3.1786 c 0.231,-0.0924 0.50701,-0.0811 0.61334,0.0252 0.10633,0.10633 -0.0827,0.18196 -0.42,0.16807 -0.37279,-0.0154 -0.44861,-0.0912 -0.19334,-0.19333 z m 10.24,0 c 0.231,-0.0924 0.50701,-0.0811 0.61334,0.0252 0.10633,0.10633 -0.0827,0.18196 -0.42,0.16807 -0.37279,-0.0154 -0.44861,-0.0912 -0.19334,-0.19333 z m -6.88831,-0.33823 c 1.01842,-0.0637 2.60242,-0.0631 3.52,10e-4 0.91757,0.0644 0.0843,0.11653 -1.85169,0.11581 -1.936,-6.4e-4 -2.68674,-0.0534 -1.66831,-0.11712 z m 496.2283,-0.20399 c 0,-0.0665 0.252,-0.31845 0.56,-0.56 0.50755,-0.39804 0.51885,-0.38672 0.12083,0.12082 -0.41805,0.53304 -0.68083,0.70255 -0.68083,0.43918 z M 11.159182,207.76 c -0.398039,-0.50754 -0.38672,-0.51886 0.120818,-0.12082 0.533039,0.41803 0.702553,0.68082 0.439182,0.68082 -0.06645,0 -0.31845,-0.252 -0.56,-0.56 z M 696.3066,206 c 1.32608,-1.41287 1.61338,-1.66691 1.61338,-1.42663 0,0.0514 -0.684,0.73536 -1.52,1.52 l -1.52,1.42663 z m -687.3638268,-0.16 -1.1027734,-1.2 1.1999999,1.10277 c 0.66,0.60652 1.2000003,1.14652 1.2000003,1.2 0,0.24436 -0.2707894,0.0141 -1.2972268,-1.10277 z m -1.943591,-2.24 c -0.3980387,-0.50754 -0.3867203,-0.51886 0.1208176,-0.12082 0.5330393,0.41803 0.7025533,0.68082 0.4391824,0.68082 -0.06645,0 -0.3184499,-0.252 -0.56,-0.56 z M 74.839179,202 c -0.398039,-0.50754 -0.38672,-0.51886 0.120819,-0.12082 0.53304,0.41803 0.702553,0.68082 0.439181,0.68082 -0.06645,0 -0.318448,-0.252 -0.56,-0.56 z m 555.880801,-0.20082 c 0,-0.0665 0.252,-0.31845 0.56,-0.56 0.50755,-0.39804 0.51885,-0.38672 0.12083,0.12082 -0.41804,0.53304 -0.68083,0.70255 -0.68083,0.43918 z M 73.729595,200.56 l -0.609597,-0.72 0.72,0.60959 c 0.676621,0.57287 0.865677,0.83041 0.609597,0.83041 -0.06072,0 -0.384723,-0.324 -0.72,-0.72 z m 558.910385,-1.04 c 0.41335,-0.44 0.82355,-0.8 0.91155,-0.8 0.088,0 -0.1782,0.36 -0.59155,0.8 -0.41334,0.44 -0.82355,0.8 -0.91155,0.8 -0.088,0 0.17821,-0.36 0.59155,-0.8 z m -562.407489,-2.8 -2.552493,-2.64 2.64,2.55249 c 2.451952,2.37068 2.785885,2.72751 2.552493,2.72751 -0.04813,0 -1.236128,-1.188 -2.64,-2.64 z m 566.247489,-0.98014 c 0,-0.0551 0.468,-0.52307 1.04,-1.04 l 1.04,-0.93986 -0.93987,1.04 c -0.8761,0.96942 -1.14013,1.18708 -1.14013,0.93986 z m -441.1939,-1.72162 c 0.31135,-0.0811 0.74335,-0.0758 0.96,0.0119 0.21665,0.0877 -0.0381,0.15404 -0.56609,0.14752 -0.528,-0.007 -0.70526,-0.0782 -0.39391,-0.15937 z m 7.68,0 c 0.31135,-0.0811 0.74335,-0.0758 0.96,0.0119 0.21665,0.0877 -0.0381,0.15404 -0.56609,0.14752 -0.528,-0.007 -0.70526,-0.0782 -0.39391,-0.15937 z M 66.519179,193.36 c -0.398038,-0.50754 -0.38672,-0.51886 0.120819,-0.12082 0.308,0.24155 0.56,0.49355 0.56,0.56 0,0.26337 -0.262781,0.0939 -0.680819,-0.43918 z m 126.700811,0.3414 c 0.231,-0.0924 0.50701,-0.0811 0.61334,0.0252 0.10633,0.10633 -0.0827,0.18196 -0.42,0.16807 -0.37279,-0.0154 -0.44861,-0.0912 -0.19334,-0.19333 z m 12.16,0 c 0.231,-0.0924 0.50701,-0.0811 0.61334,0.0252 0.10633,0.10633 -0.0827,0.18196 -0.42,0.16807 -0.37279,-0.0154 -0.44861,-0.0912 -0.19334,-0.19333 z m 433.65999,-0.22222 c 0,-0.0665 0.252,-0.31845 0.56,-0.56 0.50755,-0.39804 0.51885,-0.38672 0.12083,0.12082 -0.41804,0.53304 -0.68083,0.70255 -0.68083,0.43918 z m 1.28,-0.96 c 0,-0.0665 0.252,-0.31845 0.56,-0.56 0.50755,-0.39804 0.51885,-0.38672 0.12083,0.12082 -0.41804,0.53304 -0.68083,0.70255 -0.68083,0.43918 z M 211.35999,191.04 c 0.31856,-0.352 0.6512,-0.64 0.7392,-0.64 0.088,0 -0.10064,0.288 -0.4192,0.64 -0.31855,0.352 -0.65119,0.64 -0.73919,0.64 -0.088,0 0.10064,-0.288 0.41919,-0.64 z m 493.35423,-1.6 c 0,-0.616 0.0659,-0.868 0.14634,-0.56 0.0805,0.308 0.0805,0.812 0,1.12 -0.0805,0.308 -0.14634,0.056 -0.14634,-0.56 z M 0.70238356,189.28 c 0.006522,-0.528 0.0782395,-0.70526 0.15937344,-0.39391 0.0811339,0.31135 0.0757981,0.74335 -0.0118573,0.96 C 0.76224433,190.06274 0.69586206,189.808 0.70238356,189.28 Z M 184.70238,185.76 c 0.007,-0.528 0.0782,-0.70526 0.15937,-0.39391 0.0811,0.31135 0.0758,0.74335 -0.0119,0.96 -0.0877,0.21665 -0.15404,-0.0381 -0.14752,-0.56609 z m 29.08288,0.29333 c 0.0154,-0.37278 0.0912,-0.44861 0.19333,-0.19333 0.0924,0.23099 0.0811,0.507 -0.0252,0.61333 -0.10633,0.10633 -0.18196,-0.0827 -0.16807,-0.42 z M 1.0591581,183.52 c 0.0018,-1.056 0.061536,-1.44942 0.1327559,-0.87427 0.07122,0.57515 0.06975,1.43915 -0.00327,1.92 -0.073011,0.48085 -0.131282,0.0103 -0.1294859,-1.04573 z M 704.41915,183.2 c 0.003,-1.056 0.0615,-1.44942 0.13273,-0.87427 0.0712,0.57515 0.0698,1.43915 -0.003,1.92 -0.073,0.48085 -0.13126,0.0103 -0.12947,-1.04573 z m -519.70492,-1.12 c 0,-0.616 0.0659,-0.868 0.14635,-0.56 0.0805,0.308 0.0805,0.812 0,1.12 -0.0805,0.308 -0.14635,0.056 -0.14635,-0.56 z M 37.359999,181.22807 c 0.22,-0.0888 0.58,-0.0888 0.8,0 0.22,0.0888 0.04,0.1614 -0.4,0.1614 -0.44,0 -0.62,-0.0726 -0.4,-0.1614 z M 668.41998,180.9014 c 0.23101,-0.0924 0.50701,-0.0811 0.61335,0.0252 0.10633,0.10633 -0.0827,0.18196 -0.42,0.16807 -0.3728,-0.0154 -0.44861,-0.0912 -0.19335,-0.19333 z m -483.43472,-1.24807 c 0.0154,-0.37278 0.0912,-0.44861 0.19333,-0.19333 0.0924,0.23099 0.0811,0.507 -0.0253,0.61333 -0.10633,0.10633 -0.18196,-0.0827 -0.16807,-0.42 z M 213.83423,179.2 c 0,-0.616 0.0659,-0.868 0.14635,-0.56 0.0805,0.308 0.0805,0.812 0,1.12 -0.0805,0.308 -0.14635,0.056 -0.14635,-0.56 z M 35.942421,176.96 c 0,-1.144 0.05808,-1.612 0.129066,-1.04 0.07098,0.572 0.07098,1.508 0,2.08 -0.07099,0.572 -0.129066,0.104 -0.129066,-1.04 z m 149.362839,1.09333 c 0.0154,-0.37278 0.0912,-0.44861 0.19333,-0.19333 0.0924,0.23099 0.0811,0.507 -0.0252,0.61333 -0.10633,0.10633 -0.18196,-0.0827 -0.16807,-0.42 z M 669.54241,176.64 c 0,-1.144 0.0581,-1.612 0.12906,-1.04 0.071,0.572 0.071,1.508 0,2.08 -0.071,0.572 -0.12906,0.104 -0.12906,-1.04 z M 1.3791581,176.16 c 0.0018,-1.056 0.061536,-1.44942 0.1327559,-0.87427 0.07122,0.57515 0.06975,1.43915 -0.00327,1.92 -0.073011,0.48085 -0.131282,0.0103 -0.1294859,-1.04573 z M 704.10241,175.68 c 0,-1.144 0.0581,-1.612 0.12906,-1.04 0.071,0.572 0.071,1.508 0,2.08 -0.071,0.572 -0.12906,0.104 -0.12906,-1.04 z m -490.54706,-2.24 c 0,-1.672 0.0539,-2.356 0.11986,-1.52 0.0659,0.836 0.0659,2.204 0,3.04 -0.0659,0.836 -0.11986,0.152 -0.11986,-1.52 z m -27.29009,0.13333 c 0.0154,-0.37278 0.0912,-0.44861 0.19333,-0.19333 0.0924,0.23099 0.0811,0.507 -0.0252,0.61333 -0.10633,0.10633 -0.18196,-0.0827 -0.16807,-0.42 z m 0.34526,-2.05333 c 0,-0.44 0.0726,-0.62 0.1614,-0.4 0.0888,0.22 0.0888,0.58 0,0.8 -0.0888,0.22 -0.1614,0.04 -0.1614,-0.4 z m -150.345516,-2.4 c 0.0013,-1.232 0.05926,-1.69679 0.128531,-1.03287 0.06927,0.66393 0.06811,1.67193 -0.0026,2.24 -0.07069,0.56808 -0.12737,0.0249 -0.125949,-1.20713 z m 632.959966,-0.64 c 0,-1.232 0.0593,-1.69679 0.12855,-1.03287 0.0693,0.66393 0.0681,1.67193 -0.003,2.24 -0.0707,0.56808 -0.12736,0.0249 -0.12595,-1.20713 z M 1.7050048,168.16 c 0.00142,-1.232 0.059258,-1.69679 0.1285305,-1.03287 0.069272,0.66393 0.068111,1.67193 -0.00258,2.24 -0.07069,0.56808 -0.1273677,0.0249 -0.1259481,-1.20713 z M 703.78756,167.68 c 0,-1.32 0.0565,-1.86 0.12554,-1.2 0.069,0.66 0.069,1.74 0,2.4 -0.0691,0.66 -0.12554,0.12 -0.12554,-1.2 z m -490.0023,1.41333 c 0.0154,-0.37278 0.0912,-0.44861 0.19333,-0.19333 0.0924,0.23099 0.0811,0.507 -0.0252,0.61333 -0.10633,0.10633 -0.18196,-0.0827 -0.16807,-0.42 z M 186.62238,167.84 c 0.007,-0.528 0.0782,-0.70526 0.15937,-0.39391 0.0811,0.31135 0.0758,0.74335 -0.0119,0.96 -0.0877,0.21665 -0.15404,-0.0381 -0.14752,-0.56609 z m -0.35712,-2.58667 c 0.0154,-0.37278 0.0912,-0.44861 0.19333,-0.19333 0.0924,0.23099 0.0811,0.507 -0.0252,0.61333 -0.10633,0.10633 -0.18196,-0.0827 -0.16807,-0.42 z M 213.18238,163.04 c 0.007,-0.528 0.0782,-0.70526 0.15937,-0.39391 0.0811,0.31135 0.0758,0.74335 -0.0119,0.96 -0.0877,0.21665 -0.15404,-0.0381 -0.14752,-0.56609 z M 36.59181,160 c 0,-1.496 0.05512,-2.108 0.122496,-1.36 0.06737,0.748 0.06737,1.972 0,2.72 -0.06737,0.748 -0.122496,0.136 -0.122496,-1.36 z M 2.0296992,159.2 c 0.00116,-1.408 0.057421,-1.9442 0.1250197,-1.19155 0.067598,0.75266 0.066647,1.90466 -0.00211,2.56 -0.068762,0.65535 -0.12407,0.0395 -0.1229077,-1.36845 z M 668.91179,159.04 c 0,-1.496 0.0551,-2.108 0.1225,-1.36 0.0674,0.748 0.0674,1.972 0,2.72 -0.0674,0.748 -0.1225,0.136 -0.1225,-1.36 z m 34.56,-0.64 c 0,-1.496 0.0551,-2.108 0.12249,-1.36 0.0674,0.748 0.0674,1.972 0,2.72 -0.0674,0.748 -0.12249,0.136 -0.12249,-1.36 z m -518.16653,1.73333 c 0.0154,-0.37278 0.0912,-0.44861 0.19333,-0.19333 0.0924,0.23099 0.0811,0.507 -0.0252,0.61333 -0.10633,0.10633 -0.18196,-0.0827 -0.16807,-0.42 z M 213.50238,159.2 c 0.007,-0.528 0.0782,-0.70526 0.15937,-0.39391 0.0811,0.31135 0.0758,0.74335 -0.0119,0.96 -0.0877,0.21665 -0.15404,-0.0381 -0.14752,-0.56609 z m -28.51712,-0.98667 c 0.0154,-0.37278 0.0912,-0.44861 0.19333,-0.19333 0.0924,0.231 0.0811,0.507 -0.0253,0.61333 -0.10633,0.10633 -0.18196,-0.0827 -0.16807,-0.42 z M 213.83423,156.16 c 0,-0.616 0.0659,-0.868 0.14635,-0.56 0.0805,0.308 0.0805,0.812 0,1.12 -0.0805,0.308 -0.14635,0.056 -0.14635,-0.56 z m -29.11354,-0.8 c 0.004,-0.704 0.0691,-0.95432 0.14563,-0.55627 0.0765,0.39805 0.0736,0.97405 -0.006,1.28 -0.0801,0.30595 -0.14272,-0.0198 -0.13916,-0.72373 z m -0.006,-3.36 c 0,-0.616 0.0659,-0.868 0.14635,-0.56 0.0805,0.308 0.0805,0.812 0,1.12 -0.0805,0.308 -0.14635,0.056 -0.14635,-0.56 z M 36.919701,148.32 c 6.4e-4,-1.936 0.05343,-2.68675 0.117124,-1.66832 0.0637,1.01843 0.0631,2.60243 -0.0013,3.52 -0.06442,0.91757 -0.116535,0.0843 -0.115812,-1.85168 z M 2.3597013,148 c 7.232e-4,-1.936 0.053428,-2.68675 0.1171235,-1.66832 0.063696,1.01843 0.063105,2.60243 -0.00131,3.52 C 2.4110942,150.76925 2.3589793,149.936 2.3597013,148 Z M 668.60216,147.04 c 0,-2.112 0.0524,-2.93436 0.11507,-1.82746 0.0627,1.10689 0.0621,2.83489 0,3.84 -0.0633,1.0051 -0.11456,0.0995 -0.11392,-2.01254 z m -454.8169,2.85333 c 0.0154,-0.37278 0.0912,-0.44861 0.19333,-0.19333 0.0924,0.231 0.0811,0.507 -0.0252,0.61333 -0.10633,0.10633 -0.18196,-0.0827 -0.16807,-0.42 z M 703.161,146.56 c 0,-2.024 0.0519,-2.852 0.11546,-1.84 0.0635,1.012 0.0635,2.668 0,3.68 -0.0635,1.012 -0.11546,0.184 -0.11546,-1.84 z m -515.96101,-0.48 c 0.41336,-0.44 0.82357,-0.8 0.91157,-0.8 0.088,0 -0.17821,0.36 -0.59157,0.8 -0.41336,0.44 -0.82356,0.8 -0.91156,0.8 -0.088,0 0.1782,-0.36 0.59156,-0.8 z m 7.28,-3.25193 c 0.22,-0.0888 0.58,-0.0888 0.8,0 0.22,0.0888 0.04,0.1614 -0.4,0.1614 -0.44,0 -0.62,-0.0726 -0.4,-0.1614 z m 10.58,-0.007 c 0.231,-0.0924 0.50701,-0.0811 0.61334,0.0253 0.10633,0.10633 -0.0827,0.18196 -0.42,0.16807 -0.37279,-0.0154 -0.44861,-0.0912 -0.19334,-0.19333 z m -6.40927,-0.33769 c 0.9299,-0.0649 2.3699,-0.0642 3.2,0.002 0.8301,0.0657 0.0693,0.11873 -1.69073,0.1179 -1.76,-9.6e-4 -2.43917,-0.0546 -1.50927,-0.11942 z M 37.26685,122.24 c 0,-7.656 0.04177,-10.788 0.09282,-6.96 0.05105,3.828 0.05105,10.092 0,13.92 -0.05105,3.828 -0.09282,0.696 -0.09282,-6.96 z M 2.70643,122.08 c 7.93e-5,-7.392 0.042057,-10.37031 0.093284,-6.61846 0.051227,3.75185 0.051162,9.79985 -1.442e-4,13.44 -0.051306,3.64015 -0.093219,0.57046 -0.09314,-6.82154 z m 665.59762,0 c 9e-5,-6.16 0.0431,-8.63471 0.0955,-5.49936 0.0524,3.13535 0.0523,8.17535 -2e-4,11.2 -0.0525,3.02465 -0.0955,0.45936 -0.0953,-5.70064 z m 34.55958,0 c 1.3e-4,-5.984 0.0433,-8.38678 0.0959,-5.33952 0.0526,3.04727 0.0525,7.94327 -2.2e-4,10.88 -0.0528,2.93674 -0.0958,0.44352 -0.0957,-5.54048 z m -505.1799,5.69367 c 0.39805,-0.0765 0.97405,-0.0736 1.28,0.006 0.30594,0.0801 -0.0197,0.14272 -0.72374,0.13917 -0.704,-0.004 -0.95432,-0.0691 -0.55626,-0.14563 z m 5.59626,0.006 c 0.308,-0.0805 0.812,-0.0805 1.12,0 0.308,0.0805 0.056,0.14635 -0.56,0.14635 -0.616,0 -0.868,-0.0659 -0.56,-0.14635 z m -8.48,-0.31134 c 0.22,-0.0888 0.58,-0.0888 0.8,0 0.22,0.0888 0.04,0.1614 -0.4,0.1614 -0.44,0 -0.62,-0.0726 -0.4,-0.1614 z m 11.22,-0.007 c 0.231,-0.0924 0.50701,-0.0811 0.61334,0.0252 0.10633,0.10633 -0.0827,0.18196 -0.42,0.16807 -0.37279,-0.0154 -0.44861,-0.0912 -0.19334,-0.19333 z m 4.54,-1.80153 c 0,-0.0551 0.468,-0.52308 1.04,-1.04 l 1.04,-0.93987 -0.93986,1.04 c -0.87609,0.96942 -1.14014,1.18709 -1.14014,0.93987 z m -23.69722,-1.73987 -1.10278,-1.2 1.2,1.10277 c 1.11694,1.02644 1.34714,1.29723 1.10278,1.29723 -0.0535,0 -0.59348,-0.54 -1.2,-1.2 z m -2.19751,-4.10667 c 0.0154,-0.37278 0.0912,-0.44861 0.19333,-0.19333 0.0924,0.231 0.0811,0.507 -0.0252,0.61333 -0.10633,0.10633 -0.18196,-0.0827 -0.16807,-0.42 z m 29.12,0 c 0.0154,-0.37278 0.0912,-0.44861 0.19333,-0.19333 0.0924,0.231 0.0811,0.507 -0.0252,0.61333 -0.10633,0.10633 -0.18196,-0.0827 -0.16807,-0.42 z m 0.41009,-4.93333 c 0,-1.672 0.0539,-2.356 0.11986,-1.52 0.0659,0.836 0.0659,2.204 0,3.04 -0.0659,0.836 -0.11986,0.152 -0.11986,-1.52 z m -29.50483,-0.32 c 0,-0.44 0.0726,-0.62 0.1614,-0.4 0.0888,0.22 0.0888,0.58 0,0.8 -0.0888,0.22 -0.1614,0.04 -0.1614,-0.4 z m 0.29474,-2.10667 c 0.0154,-0.37278 0.0912,-0.44861 0.19333,-0.19333 0.0924,0.231 0.0811,0.507 -0.0253,0.61333 -0.10633,0.10633 -0.18196,-0.0827 -0.16807,-0.42 z m 0.32,-1.6 c 0.0154,-0.37278 0.0912,-0.44861 0.19333,-0.19333 0.0924,0.231 0.0811,0.507 -0.0252,0.61333 -0.10633,0.10633 -0.18196,-0.0827 -0.16807,-0.42 z m 28.45318,-5.79855 c -0.0872,-2.14787 -0.0455,-3.79173 0.0925,-3.65303 0.13804,0.13871 0.20934,1.89606 0.15844,3.90522 l -0.0925,3.65303 z m -27.49318,1.31855 c 0.0154,-0.37278 0.0912,-0.44861 0.19333,-0.19333 0.0924,0.231 0.0811,0.507 -0.0252,0.61333 -0.10633,0.10633 -0.18196,-0.0827 -0.16807,-0.42 z m 0.32,-1.92 c 0.0154,-0.37278 0.0912,-0.44861 0.19333,-0.19333 0.0924,0.231 0.0811,0.507 -0.0252,0.61333 -0.10633,0.10633 -0.18196,-0.0827 -0.16807,-0.42 z M 186.94238,101.6 c 0.007,-0.528 0.0782,-0.70526 0.15937,-0.39391 0.0811,0.31135 0.0758,0.74335 -0.0119,0.96 -0.0877,0.21665 -0.15404,-0.0381 -0.14752,-0.56609 z m 516.21296,-2.400002 c 0,-1.672 0.0539,-2.356 0.11984,-1.52 0.0659,0.836 0.0659,2.204 0,3.040002 -0.0659,0.836 -0.11984,0.152 -0.11984,-1.520002 z m -34.55849,-0.48 c 0,-1.76 0.0546,-2.439174 0.11942,-1.509274 0.0648,0.929901 0.0642,2.369901 0,3.199996 -0.0657,0.8301 -0.11875,0.0693 -0.11792,-1.690722 z m -666.2414912,-0.8 c 0,-1.672 0.053934,-2.356 0.1198537,-1.52 0.06592,0.836 0.06592,2.204 0,3.04 -0.06592,0.836002 -0.1198537,0.152 -0.1198537,-1.52 z m 34.5600002,-0.64 c 0,-1.672 0.05393,-2.356 0.119853,-1.52 0.06592,0.836 0.06592,2.204 0,3.04 -0.06592,0.836 -0.119853,0.152 -0.119853,-1.52 z m 175.589901,1.413334 c 0.0154,-0.372784 0.0912,-0.448608 0.19333,-0.193334 0.0924,0.230998 0.0811,0.507001 -0.0252,0.613334 -0.10633,0.106333 -0.18196,-0.08267 -0.16807,-0.42 z m 0.0253,-3.973334 c 0,-0.44 0.0726,-0.62 0.1614,-0.4 0.0888,0.22 0.0888,0.58 0,0.8 -0.0888,0.22 -0.1614,0.04 -0.1614,-0.4 z M 184.9853,92.293332 c 0.0154,-0.372784 0.0912,-0.448608 0.19333,-0.193334 0.0924,0.230998 0.0811,0.507002 -0.0253,0.613334 -0.10633,0.106333 -0.18196,-0.08267 -0.16807,-0.42 z m 27.84,0 c 0.0154,-0.372784 0.0912,-0.448608 0.19333,-0.193334 0.0924,0.230998 0.0811,0.507002 -0.0252,0.613334 -0.10633,0.106333 -0.18196,-0.08267 -0.16807,-0.42 z m 490.63971,-2.853334 c 0,-1.232 0.0593,-1.696787 0.12855,-1.032864 0.0693,0.663927 0.0681,1.671926 -0.003,2.24 -0.0707,0.568077 -0.12736,0.02486 -0.12596,-1.207136 z M 184.6653,90.693332 c 0.0154,-0.372784 0.0912,-0.448608 0.19333,-0.193334 0.0924,0.230998 0.0811,0.507002 -0.0252,0.613334 -0.10633,0.106333 -0.18196,-0.08267 -0.16807,-0.42 z M 2.0224237,88.639998 c 0,-1.144 0.058078,-1.612 0.1290628,-1.04 0.070985,0.572 0.070985,1.508 0,2.08 -0.070984,0.572 -0.1290628,0.104 -0.1290628,-1.04 z m 211.1480963,1.28 c 0,-0.44 0.0726,-0.62 0.1614,-0.4 0.0888,0.22 0.0888,0.58 0,0.8 -0.0888,0.22 -0.1614,0.04 -0.1614,-0.4 z m 455.73189,-1.28 c 0,-1.144 0.0581,-1.612 0.12906,-1.04 0.071,0.572 0.071,1.508 0,2.08 -0.071,0.572 -0.12906,0.104 -0.12906,-1.04 z m -632.317406,-0.8 c 0.0013,-1.232 0.05926,-1.696787 0.128531,-1.032864 0.06927,0.663927 0.06811,1.671927 -0.0026,2.24 -0.07069,0.568077 -0.12737,0.02486 -0.125949,-1.207136 z m 147.834146,-0.96 c 0.002,-1.056 0.0615,-1.449421 0.13276,-0.874269 0.0712,0.575152 0.0697,1.439152 -0.003,1.92 -0.073,0.480848 -0.13128,0.01027 -0.12949,-1.045731 z m 29.12585,-0.96 c 0.001,-1.232 0.0593,-1.696787 0.12853,-1.032864 0.0693,0.663927 0.0681,1.671927 -0.003,2.24 -0.0707,0.568077 -0.12737,0.02486 -0.12595,-1.207136 z m 490.2265,-3.52 c 0.003,-0.88 0.0645,-1.202019 0.13811,-0.7156 0.0735,0.486419 0.0716,1.206419 -0.004,1.6 -0.0759,0.393581 -0.13613,-0.0044 -0.13373,-0.8844 z m -702.0799755,-0.64 c 0.0024,-0.88 0.064548,-1.202019 0.1381014,-0.7156 0.073553,0.486419 0.071588,1.206419 -0.00437,1.6 -0.075956,0.393581 -0.1361358,-0.0044 -0.1337334,-0.8844 z m 667.5243655,-0.48 c 0,-0.968 0.06,-1.364 0.13331,-0.88 0.0733,0.484 0.0733,1.276 0,1.76 -0.0734,0.484 -0.13331,0.088 -0.13331,-0.88 z m -632.96,-0.64 c 0,-0.968 0.05999,-1.364 0.133309,-0.88 0.07332,0.484 0.07332,1.276 0,1.76 -0.07332,0.484 -0.133309,0.088 -0.133309,-0.88 z m 174.91988,-1.52 -0.77578,-0.88 0.88,0.77578 c 0.484,0.426681 0.88,0.822681 0.88,0.88 0,0.250969 -0.25913,0.04671 -0.98422,-0.77578 z m 492.91138,-2.64 c 0,-0.792 0.0624,-1.116 0.13865,-0.72 0.0763,0.396 0.0763,1.044 0,1.44 -0.0763,0.396 -0.13865,0.072 -0.13865,-0.72 z m -702.7156255,-0.48 c 0.0024,-0.88 0.064548,-1.202019 0.1381014,-0.7156 0.073553,0.48642 0.071588,1.20642 -0.00437,1.6 -0.075956,0.393581 -0.1361358,-0.0044 -0.1337334,-0.8844 z M 193.21999,76.581403 c 0.231,-0.09244 0.50701,-0.08107 0.61334,0.02525 0.10633,0.106333 -0.0827,0.181965 -0.42,0.168071 -0.37279,-0.01536 -0.44861,-0.09118 -0.19334,-0.193332 z M 669.5315,75.359998 c 0.003,-0.88 0.0645,-1.202019 0.13811,-0.7156 0.0735,0.48642 0.0716,1.20642 -0.004,1.6 -0.0759,0.393581 -0.13612,-0.0044 -0.13372,-0.8844 z m -474.39151,0.901405 c 0.231,-0.09244 0.50701,-0.08107 0.61334,0.02525 0.10633,0.106333 -0.0827,0.181965 -0.42,0.168071 -0.37279,-0.01536 -0.44861,-0.09118 -0.19334,-0.193332 z m 9.28,0 c 0.231,-0.09244 0.50701,-0.08107 0.61334,0.02525 0.10633,0.106333 -0.0827,0.181965 -0.42,0.168071 -0.37279,-0.01536 -0.44861,-0.09118 -0.19334,-0.193332 z M 35.931522,74.719998 c 0.0026,-0.88 0.06455,-1.202019 0.138103,-0.7156 0.07355,0.48642 0.07159,1.20642 -0.0044,1.6 -0.07596,0.393581 -0.136135,-0.0044 -0.133735,-0.8844 z m 163.354208,1.208087 c 0.57515,-0.07122 1.43915,-0.06975 1.92,0.0033 0.48084,0.07302 0.0103,0.131286 -1.04574,0.129491 -1.056,-0.0019 -1.44942,-0.06154 -0.87426,-0.132755 z m 505.11495,-4.408087 c 0.004,-0.704 0.0691,-0.95432 0.14564,-0.556268 0.0765,0.398051 0.0736,0.974051 -0.006,1.28 -0.0801,0.305948 -0.14272,-0.01974 -0.13917,-0.723732 z m -703.3599813,-0.64 c 0.00355,-0.703999 0.069083,-0.954319 0.1456248,-0.556268 0.076542,0.398051 0.073636,0.974051 -0.00646,1.28 C 1.0997695,71.909678 1.0371449,71.584 1.0406967,70.879998 Z M 669.84069,70.239999 c 0.004,-0.704 0.0691,-0.95432 0.14563,-0.556269 0.0765,0.398051 0.0736,0.974051 -0.006,1.28 -0.0801,0.305948 -0.14272,-0.01974 -0.13917,-0.723731 z m -634.239993,-0.64 c 0.0036,-0.704 0.06908,-0.95432 0.145625,-0.556269 0.07654,0.398051 0.07364,0.974051 -0.0065,1.28 -0.08009,0.305948 -0.14272,-0.01974 -0.139168,-0.723731 z m 669.119983,-2.56 c 0.004,-0.704 0.0691,-0.95432 0.14564,-0.556269 0.0765,0.398051 0.0736,0.974051 -0.006,1.28 -0.0801,0.305949 -0.14272,-0.01974 -0.13917,-0.723731 z m -703.99998133,-0.64 c 0.003552,-0.704 0.0690829,-0.95432 0.14562479,-0.556269 0.0765418,0.398051 0.0736358,0.974051 -0.006458,1.28 C 0.77977196,67.429679 0.71714678,67.104 0.72069867,66.399999 Z m 669.43999133,-0.96 c 0.004,-0.704 0.0691,-0.95432 0.14563,-0.556269 0.0765,0.398051 0.0736,0.974051 -0.006,1.28 -0.0801,0.305949 -0.14272,-0.01974 -0.13917,-0.723731 z m -634.879993,-0.32 c 0.0036,-0.704 0.06908,-0.95432 0.145625,-0.556269 0.07654,0.398051 0.07364,0.974051 -0.0065,1.28 -0.08009,0.305949 -0.14272,-0.01974 -0.139168,-0.723731 z m 669.759983,-2.24 c 0.004,-0.704 0.0691,-0.95432 0.14564,-0.556269 0.0765,0.398051 0.0736,0.974051 -0.006,1.28 -0.0801,0.305949 -0.14272,-0.01974 -0.13917,-0.723731 z m -704.64643915,-0.48 c 0,-0.616 0.0658545,-0.868 0.14634329,-0.56 0.0804888,0.308 0.0804888,0.812 0,1.12 -0.0804888,0.308 -0.14634329,0.056 -0.14634329,-0.56 z m 670.09290915,-1.28 c 0,-0.792 0.0624,-1.116 0.13865,-0.72 0.0763,0.396 0.0763,1.044 0,1.44 -0.0763,0.396 -0.13865,0.072 -0.13865,-0.72 z m -635.544767,-0.16 c 0.0065,-0.528 0.07824,-0.705261 0.159373,-0.393911 0.08113,0.311351 0.0758,0.743351 -0.01184,0.96 -0.08766,0.21665 -0.154039,-0.03809 -0.147517,-0.566089 z m -34.55999943,-1.92 c 0.006522,-0.528 0.0782395,-0.705261 0.15937344,-0.393911 0.0811339,0.311351 0.0757981,0.743351 -0.0118573,0.96 -0.0876554,0.21665 -0.15403766,-0.03809 -0.14751614,-0.566089 z m 704.65183643,-0.48 c 0,-0.616 0.0659,-0.868 0.14634,-0.56 0.0805,0.308 0.0805,0.812 0,1.12 -0.0805,0.308 -0.14634,0.056 -0.14634,-0.56 z M 35.225263,58.373333 c 0.01536,-0.372784 0.09118,-0.448608 0.193331,-0.193334 0.09244,0.230998 0.08107,0.506998 -0.02525,0.613334 -0.106336,0.106333 -0.181965,-0.08267 -0.16807,-0.42 z m 634.879967,-0.32 c 0.0154,-0.372784 0.0912,-0.448608 0.19334,-0.193334 0.0924,0.230998 0.0811,0.506998 -0.0253,0.613334 -0.10633,0.106333 -0.18198,-0.08267 -0.16809,-0.42 z m -634.559967,-1.28 c 0.01536,-0.372784 0.09118,-0.448608 0.193331,-0.193334 0.09244,0.230998 0.08107,0.506998 -0.02525,0.613334 -0.106336,0.106333 -0.181965,-0.08267 -0.16807,-0.42 z m 634.239967,-0.32 c 0.0154,-0.372784 0.0912,-0.448608 0.19334,-0.193334 0.0924,0.230998 0.0811,0.506998 -0.0253,0.613334 -0.10633,0.106333 -0.18198,-0.08267 -0.16809,-0.42 z M 0.69052628,55.999999 c 0,-0.44 0.0726316,-0.62 0.16140352,-0.4 0.0887719,0.22 0.0887719,0.58 0,0.8 -0.0887719,0.22 -0.16140352,0.04 -0.16140352,-0.4 z m 703.99998372,-0.32 c 0,-0.44 0.0726,-0.62 0.16141,-0.4 0.0888,0.22 0.0888,0.58 0,0.8 -0.0888,0.22 -0.16141,0.04 -0.16141,-0.4 z M 0.98526314,53.573333 C 1.000618,53.200549 1.076444,53.124725 1.1785964,53.379999 c 0.092439,0.230998 0.08107,0.506998 -0.025263,0.613334 -0.1063333,0.106333 -0.18196492,-0.08267 -0.16807026,-0.42 z m 703.35996686,-0.32 c 0.0154,-0.372784 0.0912,-0.448608 0.19334,-0.193334 0.0924,0.230998 0.0811,0.506998 -0.0253,0.613334 -0.10633,0.106333 -0.18198,-0.08267 -0.16809,-0.42 z m -703.0399669,-1.6 c 0.015355,-0.372784 0.091181,-0.448608 0.1933333,-0.193334 0.092439,0.230998 0.08107,0.506998 -0.025263,0.613334 -0.1063333,0.106333 -0.1819649,-0.08267 -0.1680703,-0.42 z m 702.7199669,-0.32 c 0.0154,-0.372784 0.0912,-0.448608 0.19334,-0.193334 0.0924,0.230998 0.0811,0.506998 -0.0253,0.613334 -0.10633,0.106333 -0.18198,-0.08267 -0.16809,-0.42 z m -0.64,-3.2 c 0.0154,-0.372784 0.0912,-0.448608 0.19334,-0.193334 0.0924,0.230998 0.0811,0.506998 -0.0253,0.613334 -0.10633,0.106333 -0.18198,-0.08267 -0.16809,-0.42 z m -39.08947,-3.573334 -0.77578,-0.88 0.88,0.775779 c 0.484,0.426682 0.88,0.822682 0.88,0.88 0,0.25097 -0.25913,0.04671 -0.98422,-0.775779 z m -622.055761,-1.2 c 0.955974,-0.968 1.810137,-1.76 1.898137,-1.76 0.088,0 -0.622163,0.792 -1.578137,1.76 -0.955975,0.968 -1.810138,1.76 -1.898138,1.76 -0.088,0 0.622163,-0.792 1.578138,-1.76 z m 619.815761,-1.04 -0.77578,-0.88 0.88,0.775779 c 0.484,0.426682 0.88,0.822682 0.88,0.88 0,0.25097 -0.25913,0.04671 -0.98422,-0.775779 z M 63.759998,37.843522 c 1.012,-0.0635 2.668,-0.0635 3.68,0 1.012,0.0635 0.184,0.115463 -1.84,0.115463 -2.024,0 -2.852,-0.05196 -1.84,-0.115463 z m 574.399982,0 c 1.012,-0.0635 2.668,-0.0635 3.68,0 1.012,0.0635 0.184,0.115463 -1.84,0.115463 -2.024,0 -2.852,-0.05196 -1.84,-0.115463 z M 59.119998,37.54807 c 0.22,-0.08877 0.58,-0.08877 0.8,0 0.22,0.08877 0.04,0.161404 -0.4,0.161404 -0.44,0 -0.62,-0.07263 -0.4,-0.161404 z m 586.559982,0 c 0.22,-0.08877 0.58,-0.08877 0.8,0 0.22,0.08877 0.04,0.161404 -0.4,0.161404 -0.44,0 -0.62,-0.07263 -0.4,-0.161404 z M 57.219998,37.221404 c 0.230999,-0.09244 0.506999,-0.08107 0.613335,0.02525 0.106333,0.106336 -0.08267,0.181965 -0.42,0.16807 -0.372784,-0.01536 -0.448608,-0.09118 -0.193335,-0.193331 z m -3.2,-0.64 c 0.230999,-0.09244 0.506999,-0.08107 0.613335,0.02525 0.106333,0.106336 -0.08267,0.181965 -0.42,0.16807 -0.372784,-0.01536 -0.448608,-0.09118 -0.193335,-0.193331 z m 597.119982,0 c 0.23101,-0.09244 0.50701,-0.08107 0.61335,0.02525 0.10633,0.106336 -0.0827,0.181965 -0.42,0.16807 -0.3728,-0.01536 -0.44861,-0.09118 -0.19335,-0.193331 z M 13.92,23.04 c 0.318555,-0.352 0.651192,-0.64 0.739192,-0.64 0.088,0 -0.100637,0.288 -0.419192,0.64 -0.318556,0.352 -0.651192,0.639999 -0.739192,0.639999 -0.088,0 0.100636,-0.287999 0.419192,-0.639999 z m 677.55915,0.08 c -0.39802,-0.507538 -0.38672,-0.518857 0.12083,-0.120818 0.53302,0.418038 0.70256,0.680817 0.43917,0.680817 -0.0664,0 -0.31843,-0.251999 -0.56,-0.559999 z M 17.759999,18.88 C 19.336661,17.296 20.698656,16 20.786656,16 c 0.088,0 -1.129995,1.296 -2.706657,2.88 -1.576661,1.584 -2.938656,2.88 -3.026656,2.88 -0.088,0 1.129995,-1.296 2.706656,-2.88 z m 669.753321,-0.08 -2.87334,-2.96 2.96,2.873328 c 1.628,1.58033 2.96,2.91233 2.96,2.96 0,0.232336 -0.37798,-0.124147 -3.04666,-2.873328 z M 21.439999,15.559182 c 0,-0.06645 0.252,-0.31845 0.56,-0.56 0.507538,-0.398039 0.518857,-0.38672 0.120818,0.120818 -0.418038,0.533039 -0.680818,0.702553 -0.680818,0.439182 z M 683.32958,14.96 l -0.6096,-0.72 0.72,0.609596 c 0.396,0.335278 0.72,0.659278 0.72,0.72 0,0.256081 -0.25754,0.06703 -0.8304,-0.609596 z M 23.039999,14.279182 c 0,-0.06645 0.252,-0.31845 0.56,-0.56 0.507538,-0.398039 0.518857,-0.38672 0.120818,0.120818 -0.418038,0.533039 -0.680818,0.702553 -0.680818,0.439182 z M 681.87915,13.84 c -0.39802,-0.507538 -0.38672,-0.518857 0.12083,-0.120818 0.308,0.24155 0.56,0.49355 0.56,0.56 0,0.263371 -0.26278,0.09386 -0.68083,-0.439182 z M 64.719998,3.2868902 c 0.66,-0.069038 1.74,-0.069038 2.4,0 0.66,0.069038 0.12,0.1255238 -1.2,0.1255238 -1.32,0 -1.86,-0.056486 -1.2,-0.1255238 z m 573.759982,0 c 0.66,-0.069038 1.74,-0.069038 2.4,0 0.66,0.069038 0.12,0.1255238 -1.2,0.1255238 -1.32,0 -1.86,-0.056486 -1.2,-0.1255238 z m 12.34,-2.5454867 c 0.23101,-0.0924386 0.50701,-0.0810702 0.61335,0.025263 0.10633,0.10633335 -0.0827,0.18196493 -0.42,0.16807018 -0.3728,-0.0153549 -0.44861,-0.0911809 -0.19335,-0.19333318 z M 56.259998,0.42140351 c 0.230999,-0.0924386 0.506999,-0.0810702 0.613335,0.025263 0.106333,0.10633334 -0.08267,0.18196492 -0.42,0.16807017 -0.372784,-0.0153549 -0.448608,-0.0911809 -0.193335,-0.19333317 z m 591.679982,-0.32 c 0.23101,-0.0924386 0.50701,-0.08107018 0.61335,0.0252632 0.10633,0.10633333 -0.0827,0.18196491 -0.42,0.16807017 -0.3728,-0.0153548 -0.44861,-0.0911809 -0.19335,-0.19333337 z"
         style="display:inline;fill:#a8a8a8;stroke-width:0.32" />
      <path
         id="path76"
         d="M 51.519999,468.83215 C 35.591804,464.39381 25.84849,459.00255 16.96,449.70901 12.932966,445.49845 10.080644,441.43749 7.3662507,436.04994 2.8547609,427.09554 0.08045972,415.30098 0.6903139,407.66815 3.3419087,374.48114 3.4927557,332.50098 1.11206,290.29773 c -0.46487883,-8.24104 -0.46082696,-8.49238 0.1883001,-11.68 1.2564832,-6.17014 3.6999178,-10.79395 7.8092416,-14.77774 4.6159763,-4.47496 9.3932983,-6.54756 18.7793593,-8.14726 17.016951,-2.90027 23.43634,-8.96156 22.889582,-21.61273 -0.325258,-7.52593 -2.727418,-12.16088 -7.879517,-15.20345 -2.97416,-1.75639 -6.2132,-2.74363 -12.566587,-3.83021 -8.330413,-1.4247 -12.214805,-2.72644 -16.517798,-5.53546 C 7.9501995,205.68253 4.0841832,200.35461 1.7636795,192.90295 L 0.89888733,190.12591 1.4101831,178.18295 C 3.4192322,131.25515 3.2370802,96.34316 0.82362055,65.759999 0.47132991,61.2958 0.4677045,59.688021 0.80340932,56.796786 2.5899148,41.410623 7.8092139,29.575524 17.044649,19.968717 26.167256,10.479275 36.847669,4.8963849 52.479999,1.4458669 l 5.279999,-1.1654523 2.700387,1.4624358 2.700388,1.4624359 H 352.82117 642.48155 l 2.6577,-1.4945864 2.65772,-1.49458645 1.94151,0.39040766 c 17.55721,3.53048679 28.99372,9.21735649 38.7712,19.27916689 9.17414,9.440951 14.51145,21.414708 16.27523,36.511994 0.39721,3.400042 0.3975,4.710592 0.003,9.842317 -2.38442,30.943685 -2.568,65.433171 -0.59472,111.711681 l 0.51305,12.03169 -0.69206,2.5225 c -1.52614,5.56285 -4.41651,10.37567 -8.47965,14.11959 -4.60061,4.23916 -9.77414,6.46602 -18.41363,7.92583 -6.43053,1.08656 -9.16537,1.835 -12.396,3.39239 -6.66083,3.21099 -9.99289,8.91161 -9.99289,17.09632 0,5.80997 1.40937,9.64351 4.7646,12.95999 4.46695,4.41537 9.87831,6.59747 19.06003,7.68584 12.35066,1.46401 21.07808,8.0692 24.68887,18.68529 1.6688,4.90647 1.79977,6.62537 1.25091,16.4163 -2.25197,40.17276 -2.24451,77.71158 0.0221,110.33257 0.64416,9.27114 0.64291,10.70167 -0.0134,15.09203 -1.62006,10.83811 -5.59008,20.65098 -11.55037,28.54954 -2.46797,3.27053 -8.0096,8.85629 -11.19373,11.28285 -7.50892,5.72233 -16.3502,9.77632 -28.14803,12.90662 l -4.40217,1.16803 -2.84711,-1.13955 -2.8471,-1.13952 H 352.7869 62.057054 l -2.900048,1.12 c -1.595027,0.616 -2.9936,1.11008 -3.107936,1.09795 -0.114339,-0.0122 -2.151888,-0.56374 -4.527887,-1.22579 z M 654.78968,432.21596 c 8.27622,-3.6713 13.41753,-10.09558 15.28406,-19.09808 0.51581,-2.48784 0.52886,-3.24522 0.15175,-8.8 -2.13207,-31.40611 -2.35168,-68.72864 -0.61738,-104.93019 0.26067,-5.44077 0.43747,-9.91552 0.3929,-9.94388 -0.0446,-0.0284 -1.66503,-0.35799 -3.60103,-0.73248 -8.68742,-1.68048 -18.9376,-6.22103 -25.76208,-11.41185 -5.04889,-3.84031 -10.28147,-9.654 -13.33008,-14.81051 -7.48067,-12.65301 -9.15065,-30.54772 -4.25382,-45.58157 5.12441,-15.73251 17.31869,-27.46838 34.37232,-33.08015 2.36784,-0.77917 6.05654,-1.77203 8.19712,-2.20635 2.14061,-0.43432 3.96541,-0.8631 4.05513,-0.95284 0.0898,-0.0898 0,-4.23677 -0.19785,-9.21562 -0.824,-20.66072 -1.07619,-36.9077 -0.89309,-57.53244 0.19046,-21.454146 0.39334,-27.652815 1.39306,-42.560002 0.30096,-4.487999 0.53756,-9.239999 0.52575,-10.559999 -0.0307,-3.42264 -1.13372,-7.604813 -3.03855,-11.52 -1.3648,-2.805267 -2.037,-3.760704 -4.0713,-5.78704 -2.63776,-2.627389 -5.55472,-4.495017 -9.4167,-6.029161 l -2.45578,-0.975543 -2.16208,0.555872 c -2.04531,0.525859 -18.04886,0.555872 -296.40204,0.555872 -277.283816,0 -294.375976,-0.03174 -296.599694,-0.551062 L 54.00059,36.497874 51.387679,37.57949 c -7.878055,3.26113 -12.605309,8.242531 -14.885475,15.685744 -1.254298,4.094442 -1.602538,7.032768 -1.291213,10.894765 0.552637,6.855471 1.258675,20.625311 1.624368,31.679999 0.405891,12.269832 0.19895,54.108712 -0.330797,66.880002 -0.16791,4.048 -0.404845,9.83237 -0.526521,12.85415 l -0.221232,5.49416 1.561596,0.21459 c 4.920304,0.67616 11.383354,2.45742 16.441593,4.53141 9.853376,4.04011 18.823267,11.74037 24.192336,20.76806 9.002528,15.13707 9.848809,37.32614 2.022713,53.03432 -7.444332,14.94191 -22.425759,25.44462 -41.679214,29.21915 l -2.824164,0.55366 0.189431,2.58525 c 1.015651,13.8609 1.548512,38.83683 1.359149,63.70524 -0.173815,22.82653 -0.336439,28.12336 -1.365645,44.48 -0.652845,10.3753 -0.649357,10.68666 0.157753,14.08 0.97722,4.10855 3.330855,8.76528 5.780183,11.43626 2.397171,2.61414 6.289708,5.26243 10.303401,7.00998 l 2.984057,1.29926 4.32,-0.37756 c 5.700227,-0.49821 587.624752,-0.30621 589.599982,0.19452 1.36503,0.34605 2.03063,0.16976 5.9897,-1.58649 z M 194.23999,392.7389 c -3.64885,-0.61078 -6.33615,-2.29059 -7.51319,-4.69635 -0.99053,-2.02457 -1.09036,-3.83673 -0.66489,-12.06969 0.22936,-4.43815 0.19431,-5.54183 -0.21406,-6.74029 -0.44279,-1.29952 -0.43999,-1.52077 0.03,-2.37287 0.59464,-1.07811 0.66094,-4.83564 0.22548,-12.77971 -0.30873,-5.63213 -0.064,-6.94182 1.65206,-8.84131 2.23835,-2.47757 5.56887,-3.47117 11.60461,-3.46195 8.71206,0.0131 13.73724,2.3263 15.07751,6.94003 0.654,2.25136 0.4809,6.65373 -0.47396,12.0537 -1.02466,5.79465 -1.04758,7.7824 -0.14752,12.79398 0.97673,5.43846 1.0052,11.31078 0.0647,13.34416 -1.37041,2.96285 -4.27917,4.96458 -8.29217,5.70643 -1.76569,0.3264 -9.62615,0.41223 -11.34856,0.12387 z m 0.81246,-66.35356 c -5.69813,-0.89373 -8.96755,-3.00243 -10.09215,-6.50922 -0.62433,-1.94683 -0.22139,-7.33767 0.92356,-12.35613 1.23285,-5.40372 1.23567,-7.04681 0.0223,-12.99007 -1.85421,-9.08249 -1.61511,-12.19802 1.16414,-15.16927 2.72628,-2.9146 6.67728,-3.96107 14.20965,-3.76356 5.88291,0.15425 7.87,0.73606 10.0875,2.95356 2.17342,2.17341 2.57985,3.81697 2.41583,9.76934 -0.12275,4.45486 -0.14418,6.64724 -0.12199,12.48 0.004,0.968 -9.6e-4,3.272 -0.01,5.12 -0.009,1.848 0.0475,5.448 0.12599,8 0.17021,5.53457 -0.1584,7.02311 -2.01643,9.13396 -2.24845,2.55436 -4.59404,3.32742 -10.64087,3.507 -2.288,0.068 -5.0184,-0.0112 -6.06754,-0.17561 z m 0.84926,-66.24853 c -5.85277,-0.75986 -9.99284,-3.2602 -10.91864,-6.59417 -0.63645,-2.292 -0.39603,-6.38223 0.64556,-10.98265 1.43009,-6.31631 1.50953,-8.81205 0.44818,-14.07999 -1.00788,-5.00256 -1.22586,-10.53111 -0.49838,-12.64 1.02108,-2.96 3.06472,-4.94873 6.26156,-6.09332 1.1622,-0.41611 2.88442,-0.61148 6.29403,-0.71402 5.28768,-0.159 8.8593,0.36643 11.46453,1.68661 1.60326,0.81243 3.34752,2.57844 3.90755,3.95627 0.58461,1.43834 0.35901,5.73611 -0.5178,9.86409 -1.17384,5.52642 -1.09844,7.44062 0.35903,9.11453 0.7457,0.85644 0.75459,17.35913 0.0107,19.80625 -1.10998,3.65126 -3.43675,5.68615 -7.48167,6.54314 -2.35753,0.49948 -6.70629,0.55758 -9.97462,0.13326 z m -1.26931,-66.26365 c -4.51437,-0.64724 -7.50562,-2.41091 -8.8908,-5.24212 -1.25465,-2.5644 -1.21012,-5.70576 0.1765,-12.45353 1.19172,-5.79929 1.19206,-7.9235 0.002,-13.93026 -1.82452,-9.21089 -1.33857,-13.50555 1.85465,-16.39043 2.6009,-2.34976 6.8502,-3.29127 13.77836,-3.05284 5.26072,0.18104 7.66791,0.79646 9.7148,2.48368 2.59602,2.13986 3.13477,5.06432 2.38613,12.95234 -0.36607,3.85704 -0.40261,5.55414 -0.14809,6.88 0.18581,0.968 0.29256,2.552 0.23722,3.52 -0.13075,2.28698 -0.1153,6.59497 0.0465,12.96 0.12355,4.86098 0.0914,5.20569 -0.63526,6.81392 -0.917,2.02944 -2.73356,3.67263 -4.99587,4.51907 -3.20246,1.19819 -8.94351,1.59723 -13.52633,0.94017 z m 2.57321,-66.18446 c -7.14703,-0.80961 -10.89069,-3.05094 -12.11177,-7.25131 -0.69065,-2.37576 -0.49299,-5.07164 0.84153,-11.47739 1.31795,-6.32621 1.31269,-8.20628 -0.0381,-13.600002 -0.92444,-3.691437 -1.08298,-4.878723 -1.08958,-8.16 -0.006,-3.165481 0.10113,-4.059411 0.61202,-5.089088 1.98298,-3.996604 6.82771,-5.957584 14.68839,-5.945356 7.38583,0.01149 11.46665,1.828361 12.83824,5.715868 0.62164,1.761901 0.62847,5.581875 0.0175,9.798576 -0.65757,4.53855 -0.607,7.057709 0.17633,8.784482 0.59498,1.3116 0.65149,2.16116 0.71297,10.72 0.0653,9.09508 0.0509,9.33002 -0.66962,10.89552 -0.83162,1.8069 -2.32066,3.49226 -3.74361,4.23715 -2.42814,1.27109 -7.80249,1.87359 -12.23438,1.37155 z"
         style="display:inline;fill:#858585;stroke-width:0.32" />
    </g>
  </g>
</svg>
