<?xml version="1.0" encoding="UTF-8" standalone="no"?>
<svg
   xmlns:dc="http://purl.org/dc/elements/1.1/"
   xmlns:cc="http://creativecommons.org/ns#"
   xmlns:rdf="http://www.w3.org/1999/02/22-rdf-syntax-ns#"
   xmlns:svg="http://www.w3.org/2000/svg"
   xmlns="http://www.w3.org/2000/svg"
   viewBox="0 0 913.28003 876.47998"
   height="876.47998"
   width="913.28003"
   id="svg514"
   version="1.1">
  <metadata
     id="metadata520">
    <rdf:RDF>
      <cc:Work
         rdf:about="">
        <dc:format>image/svg+xml</dc:format>
        <dc:type
           rdf:resource="http://purl.org/dc/dcmitype/StillImage" />
        <dc:title></dc:title>
      </cc:Work>
    </rdf:RDF>
  </metadata>
  <defs
     id="defs518" />
  <g
     id="g522">
    <g
       transform="translate(2.4115832,0.29942755)"
       id="g526">
      <path
         id="path532"
         d="m 770.49257,876.24273 c 1.10688,-0.0627 2.83488,-0.0621 3.84,0 1.00509,0.0633 0.0995,0.11456 -2.01254,0.11392 -2.112,0 -2.93437,-0.0524 -1.82746,-0.11507 z m -7.6888,-0.30909 c 0.39805,-0.0765 0.97405,-0.0736 1.28,0.006 0.30592,0.0801 -0.0198,0.14272 -0.72374,0.13917 -0.704,-0.004 -0.95434,-0.0691 -0.55626,-0.14563 z m 17.91626,0 c 0.396,-0.0763 1.044,-0.0763 1.44,0 0.396,0.0763 0.072,0.13866 -0.72,0.13866 -0.792,0 -1.116,-0.0624 -0.72,-0.13866 z m -21.91393,-0.31593 c 0.31136,-0.0811 0.74336,-0.0758 0.96,0.0118 0.21668,0.0877 -0.0381,0.15401 -0.56608,0.14752 -0.528,-0.006 -0.70524,-0.0782 -0.39392,-0.15939 z m 26.24001,0 c 0.31136,-0.0811 0.74336,-0.0758 0.96,0.0118 0.21667,0.0877 -0.0381,0.15401 -0.56608,0.14752 -0.528,-0.006 -0.70525,-0.0782 -0.39392,-0.15939 z m -29.28609,-0.31018 c 0.22,-0.0888 0.58,-0.0888 0.8,0 0.22,0.0888 0.04,0.16141 -0.4,0.16141 -0.44,0 -0.62,-0.0726 -0.4,-0.16141 z m 32.66001,-0.007 c 0.231,-0.0924 0.507,-0.0811 0.61334,0.0253 0.10634,0.10634 -0.0827,0.18199 -0.42,0.1681 -0.3728,-0.0154 -0.44861,-0.0912 -0.19334,-0.19335 z m -35.20001,-0.32 c 0.23101,-0.0924 0.50701,-0.0811 0.61335,0.0253 0.10633,0.10634 -0.0827,0.18199 -0.42,0.1681 -0.3728,-0.0154 -0.44861,-0.0912 -0.19335,-0.19335 z m 37.76001,0 c 0.231,-0.0924 0.507,-0.0811 0.61334,0.0253 0.10634,0.10634 -0.0827,0.18199 -0.42,0.1681 -0.3728,-0.0154 -0.44861,-0.0912 -0.19334,-0.19335 z m -40.00001,-0.32 c 0.23101,-0.0924 0.50701,-0.0811 0.61335,0.0253 0.10633,0.10634 -0.0827,0.18199 -0.42,0.1681 -0.3728,-0.0154 -0.44861,-0.0912 -0.19335,-0.19335 z m 42.24001,0 c 0.231,-0.0924 0.507,-0.0811 0.61334,0.0253 0.10634,0.10634 -0.0827,0.18199 -0.42,0.1681 -0.3728,-0.0154 -0.44861,-0.0912 -0.19334,-0.19335 z m -44.16001,-0.32 c 0.23101,-0.0924 0.50701,-0.0811 0.61335,0.0253 0.10633,0.10634 -0.0827,0.18199 -0.42,0.1681 -0.3728,-0.0154 -0.44861,-0.0912 -0.19335,-0.19335 z m -1.92,-0.32 c 0.23101,-0.0924 0.50701,-0.0811 0.61335,0.0253 0.10633,0.10634 -0.0827,0.18199 -0.42,0.1681 -0.3728,-0.0154 -0.44861,-0.0912 -0.19335,-0.19335 z m 117.82001,-32.54166 c 0,-0.0664 0.252,-0.31843 0.56,-0.56 0.50755,-0.39802 0.51885,-0.38672 0.12083,0.12083 -0.41805,0.53302 -0.68083,0.70256 -0.68083,0.43917 z m 3.52,-3.1793 c 0,-0.0551 0.468,-0.52307 1.04,-1.04 l 1.04,-0.93987 -0.93987,1.04 c -0.8761,0.96944 -1.14013,1.1871 -1.14013,0.93987 z M 672.64002,835.0397 c -1.3112,-1.32 -2.31197,-2.4 -2.22397,-2.4 0.088,0 1.23277,1.08 2.54397,2.4 1.3112,1.32 2.31197,2.4 2.22397,2.4 -0.088,0 -1.23277,-1.08 -2.54397,-2.4 z m 200.64001,-1.54013 c 0,-0.0551 0.468,-0.52307 1.04,-1.04 l 1.04,-0.93987 -0.93987,1.04 c -0.8761,0.96944 -1.14013,1.1871 -1.14013,0.93987 z M 667.15919,829.1997 c -0.39802,-0.50755 -0.38672,-0.51885 0.12083,-0.12083 0.53303,0.41805 0.70256,0.68083 0.43917,0.68083 -0.0664,0 -0.31843,-0.252 -0.56,-0.56 z m 210.28084,-0.20083 c 0,-0.0664 0.252,-0.31843 0.56,-0.56 0.50755,-0.39802 0.51885,-0.38672 0.12083,0.12083 -0.41805,0.53303 -0.68083,0.70256 -0.68083,0.43917 z M 664.91919,826.6397 c -0.39802,-0.50755 -0.38672,-0.51885 0.12083,-0.12083 0.53303,0.41805 0.70256,0.68083 0.43917,0.68083 -0.0664,0 -0.31843,-0.252 -0.56,-0.56 z m 102.59149,-28.31641 c -0.25651,-0.68103 -0.32681,-110.27248 -0.0707,-110.11415 0.132,0.0816 0.24,24.90784 0.24,55.16944 v 55.02112 h 12.96 12.96 v -69.43561 -69.43565 l -10.4001,-0.091 -10.4001,-0.091 10.4801,0.007 10.4801,0.007 v 69.6 69.6 l -13.04868,0.0836 c -10.26864,0.0658 -13.08102,-0.003 -13.20067,-0.32 z M 262.32001,772.87998 c 68.684,-0.0445 181.076,-0.0445 249.76001,0 68.684,0.0444 12.488,0.0808 -124.88001,0.0808 -137.368,0 -193.564,-0.0363 -124.88,-0.0808 z M 133.52,772.57941 c 0.308,-0.0805 0.812,-0.0805 1.12,0 0.308,0.0805 0.056,0.14633 -0.56,0.14633 -0.616,0 -0.868,-0.0658 -0.56,-0.14633 z m -3.04,-0.31136 c 0.22,-0.0888 0.58,-0.0888 0.8,0 0.22,0.0888 0.04,0.1614 -0.4,0.1614 -0.44,0 -0.62,-0.0726 -0.4,-0.1614 z m -2.22,-0.32666 c 0.231,-0.0924 0.50701,-0.0811 0.61334,0.0253 0.10633,0.10634 -0.0827,0.18198 -0.42,0.1681 -0.37279,-0.0154 -0.44861,-0.0912 -0.19334,-0.19335 z m -1.92,-0.32 c 0.231,-0.0924 0.50701,-0.0811 0.61334,0.0253 0.10633,0.10634 -0.0827,0.18198 -0.42,0.1681 -0.37279,-0.0154 -0.44861,-0.0912 -0.19334,-0.19335 z m 785.04528,-15.00806 c 0.0154,-0.3728 0.0912,-0.44861 0.19334,-0.19335 0.0924,0.23101 0.0811,0.50701 -0.0253,0.61335 -0.10633,0.10633 -0.18198,-0.0827 -0.16809,-0.42 z m 0.32,-2.24 c 0.0154,-0.3728 0.0912,-0.44861 0.19334,-0.19335 0.0924,0.23101 0.0811,0.50701 -0.0253,0.61335 -0.10633,0.10633 -0.18198,-0.0827 -0.16809,-0.42 z m 0.32,-2.56 c 0.0154,-0.3728 0.0912,-0.44861 0.19334,-0.19335 0.0924,0.23101 0.0811,0.50701 -0.0253,0.61335 -0.10633,0.10633 -0.18198,-0.0827 -0.16809,-0.42 z m 0.35712,-3.17335 c 0.006,-0.528 0.0782,-0.70525 0.15939,-0.39392 0.0811,0.31136 0.0758,0.74336 -0.0118,0.96 -0.0876,0.21667 -0.15402,-0.0381 -0.14752,-0.56608 z m 0.3448,-4 c 0,-0.792 0.0624,-1.116 0.13865,-0.72 0.0763,0.396 0.0763,1.044 0,1.44 -0.0763,0.396 -0.13865,0.072 -0.13865,-0.72 z m 0.35616,-8.96 c 0,-2.2 0.0511,-3.1 0.1136,-2 0.0625,1.1 0.0625,2.9 0,4 -0.0625,1.1 -0.1136,0.2 -0.1136,-2 z m -747.88335,-2.79996 c 13.684,-0.0462 36.076,-0.0462 49.76,0 13.684,0.0462 2.488,0.0839 -24.88,0.0839 -27.368,0 -38.56401,-0.0378 -24.88,-0.0839 z m -28.79392,-0.3018 c 0.31135,-0.0811 0.74335,-0.0758 0.96,0.0118 0.21665,0.0877 -0.0381,0.15402 -0.56609,0.14752 -0.528,-0.006 -0.70526,-0.0782 -0.39391,-0.15939 z M 134.02,732.26139 c 0.231,-0.0924 0.50701,-0.0811 0.61334,0.0253 0.10633,0.10634 -0.0827,0.18199 -0.42,0.1681 -0.37279,-0.0154 -0.44861,-0.0912 -0.19334,-0.19335 z m -114.559999,-2.56 c 0.231,-0.0924 0.507,-0.0811 0.613333,0.0253 0.106333,0.10634 -0.08267,0.18199 -0.42,0.1681 -0.372782,-0.0154 -0.448608,-0.0912 -0.193333,-0.19335 z m 6.72,0 c 0.231,-0.0924 0.507,-0.0811 0.613333,0.0253 0.106333,0.10634 -0.08267,0.18199 -0.42,0.1681 -0.372781,-0.0154 -0.448608,-0.0912 -0.193333,-0.19335 z m 605.587189,-2.34141 c 0,-0.792 0.0624,-1.116 0.13865,-0.72 0.0763,0.396 0.0763,1.044 0,1.44 -0.0762,0.396 -0.13865,0.072 -0.13865,-0.72 z m 280.95354,-0.8 c 0.004,-0.704 0.0691,-0.95433 0.14564,-0.55625 0.0765,0.39805 0.0736,0.97405 -0.006,1.28 -0.0801,0.30592 -0.14272,-0.0198 -0.13917,-0.72375 z m -905.6979563,-2.96 -1.1027735,-1.2 1.2,1.10279 c 0.6600001,0.60653 1.2000001,1.14653 1.2000001,1.2 0,0.24435 -0.2707892,0.0141 -1.2972266,-1.10279 z m 30.7372273,0.75917 c 0,-0.0664 0.252,-0.31843 0.56,-0.56 0.507539,-0.39801 0.518858,-0.38672 0.120819,0.12083 -0.418038,0.53303 -0.680819,0.70256 -0.680819,0.43917 z m 594.302389,-1.31917 c 0.006,-0.528 0.0782,-0.70524 0.15939,-0.39392 0.0811,0.31136 0.0758,0.74336 -0.0118,0.96 -0.0876,0.21668 -0.15402,-0.0381 -0.14752,-0.56608 z m 280.32001,-0.64 c 0.006,-0.528 0.0782,-0.70524 0.15939,-0.39392 0.0811,0.31136 0.0758,0.74336 -0.0118,0.96 -0.0876,0.21668 -0.15402,-0.0381 -0.14752,-0.56608 z m -280.01185,-2.72 c 0,-0.44 0.0726,-0.62 0.16141,-0.4 0.0888,0.22 0.0888,0.58 0,0.8 -0.0888,0.22 -0.16141,0.04 -0.16141,-0.4 z m 279.68001,-0.32 c 0,-0.44 0.0726,-0.62 0.16141,-0.4 0.0888,0.22 0.0888,0.58 0,0.8 -0.0888,0.22 -0.16141,0.04 -0.16141,-0.4 z M 72.665266,718.21333 c 0.01536,-0.3728 0.09118,-0.44861 0.193332,-0.19335 0.09244,0.23101 0.08107,0.50701 -0.02525,0.61335 -0.106336,0.10633 -0.181965,-0.0827 -0.168071,-0.42 z m 560.025284,-1.09335 c 0,-0.44 0.0726,-0.62 0.16141,-0.4 0.0888,0.22 0.0888,0.58 0,0.8 -0.0888,0.22 -0.16141,0.04 -0.16141,-0.4 z m 279.01473,-0.50665 c 0.0154,-0.3728 0.0912,-0.44861 0.19334,-0.19335 0.0924,0.23101 0.0811,0.50701 -0.0253,0.61335 -0.10633,0.10633 -0.18198,-0.0827 -0.16809,-0.42 z m -839.360014,-0.32 c 0.01536,-0.3728 0.09118,-0.44861 0.193332,-0.19335 0.09244,0.23101 0.08107,0.50701 -0.02525,0.61335 -0.106336,0.10633 -0.181965,-0.0827 -0.168071,-0.42 z m 560.640004,-1.6 c 0.0154,-0.3728 0.0912,-0.44861 0.19334,-0.19335 0.0924,0.23101 0.0811,0.50701 -0.0253,0.61335 -0.10633,0.10633 -0.18198,-0.0827 -0.16809,-0.42 z m 278.40001,-0.32 c 0.0154,-0.3728 0.0912,-0.44861 0.19334,-0.19335 0.0924,0.23101 0.0811,0.50701 -0.0253,0.61335 -0.10633,0.10633 -0.18198,-0.0827 -0.16809,-0.42 z M 72.050527,713.59998 c 0,-0.44 0.07263,-0.62 0.161405,-0.4 0.08877,0.22 0.08877,0.58 0,0.8 -0.08877,0.22 -0.161405,0.04 -0.161405,-0.4 z m 561.254743,-0.82665 c 0.0154,-0.3728 0.0912,-0.44861 0.19334,-0.19335 0.0924,0.23101 0.0811,0.50701 -0.0253,0.61335 -0.10633,0.10633 -0.18198,-0.0827 -0.16809,-0.42 z m 277.76001,-0.32 c 0.0154,-0.3728 0.0912,-0.44861 0.19334,-0.19335 0.0925,0.23101 0.0811,0.50701 -0.0253,0.61335 -0.10633,0.10633 -0.18198,-0.0827 -0.16809,-0.42 z M 71.7607,710.23998 c 0.0036,-0.704 0.06909,-0.95433 0.145626,-0.55625 0.07654,0.39805 0.07363,0.97405 -0.0065,1.28 -0.08009,0.30592 -0.14272,-0.0198 -0.139168,-0.72375 z m 561.86457,0.61335 c 0.0154,-0.3728 0.0912,-0.44861 0.19334,-0.19335 0.0924,0.23101 0.0811,0.50701 -0.0253,0.61335 -0.10633,0.10633 -0.18198,-0.0827 -0.16809,-0.42 z m -521.6,-0.32 c 0.0154,-0.3728 0.0912,-0.44861 0.19333,-0.19335 0.0924,0.23101 0.0811,0.50701 -0.0252,0.61335 -0.10633,0.10633 -0.18196,-0.0827 -0.16807,-0.42 z m 798.72001,0 c 0.0154,-0.3728 0.0912,-0.44861 0.19334,-0.19335 0.0924,0.23101 0.0811,0.50701 -0.0253,0.61335 -0.10633,0.10633 -0.18198,-0.0827 -0.16809,-0.42 z M 0.37052632,709.43998 c 0,-0.44 0.0726316,-0.62 0.16140352,-0.4 0.0887719,0.22 0.0887719,0.58 0,0.8 -0.0887719,0.22 -0.16140352,0.04 -0.16140352,-0.4 z m 111.38371368,-1.92 c 0,-0.616 0.0659,-0.868 0.14635,-0.56 0.0805,0.308 0.0805,0.812 0,1.12 -0.0805,0.308 -0.14635,0.056 -0.14635,-0.56 z m -66.239999,-1.28 c 0,-0.616 0.06586,-0.868 0.146346,-0.56 0.08049,0.308 0.08049,0.812 0,1.12 -0.08049,0.308 -0.146346,0.056 -0.146346,-0.56 z M 0.159355,390.87999 c -1.8e-7,-173.71199 0.0362897,-244.82388 0.0806441,-158.02642 0.0443544,86.79747 0.0443546,228.92546 3.3e-7,315.83999 -0.0443543,86.91452 -0.0806443,15.89843 -0.0806444,-157.81357 z m 71.347076,301.11999 c 8e-5,-7.392 0.04206,-10.3703 0.09329,-6.61846 0.05123,3.75184 0.05116,9.79984 -1.44e-4,13.44 -0.05131,3.64016 -0.09322,0.57046 -0.09314,-6.82154 z M 664.96002,644.35915 c 0,-0.0664 0.252,-0.31843 0.56,-0.56 0.50755,-0.39801 0.51885,-0.38672 0.12083,0.12084 -0.41804,0.53302 -0.68083,0.70256 -0.68083,0.43916 z m 2.24,-2.56 c 0,-0.0664 0.252,-0.31843 0.56,-0.56 0.50755,-0.39801 0.51885,-0.38672 0.12083,0.12084 -0.41804,0.53302 -0.68083,0.70256 -0.68083,0.43916 z m 204.48001,-5.79916 c -1.3112,-1.32 -2.31197,-2.4 -2.22397,-2.4 0.088,0 1.23277,1.08 2.54397,2.4 1.3112,1.32 2.31197,2.4 2.22397,2.4 -0.088,0 -1.23277,-1.08 -2.54397,-2.4 z m -193.92001,-4.76084 c 0,-0.0664 0.252,-0.31843 0.56,-0.56 0.50755,-0.39801 0.51885,-0.38672 0.12083,0.12084 -0.41804,0.53302 -0.68083,0.70256 -0.68083,0.43916 z m 188.11918,-0.75916 c -0.39802,-0.50756 -0.38672,-0.51885 0.12083,-0.12084 0.53302,0.41805 0.70256,0.68084 0.43917,0.68084 -0.0664,0 -0.31844,-0.252 -0.56,-0.56 z m -185.55918,-1.48084 c 0,-0.0664 0.252,-0.31843 0.56,-0.56 0.50755,-0.39801 0.51885,-0.38672 0.12083,0.12084 -0.41804,0.53302 -0.68083,0.70256 -0.68083,0.43916 z m 182.99918,-0.75916 c -0.39802,-0.50756 -0.38672,-0.51885 0.12083,-0.12084 0.308,0.24157 0.56,0.49357 0.56,0.56 0,0.2634 -0.26279,0.0939 -0.68083,-0.43916 z m -19.64164,-95.28 c 0,-44.704 0.0371,-63.03958 0.0825,-40.74573 0.0453,22.29382 0.0453,58.86982 0,81.28 -0.0453,22.41014 -0.0825,4.16973 -0.0825,-40.53427 z m -96.21754,63.9414 c 0.23101,-0.0924 0.50701,-0.0811 0.61335,0.0253 0.10633,0.10634 -0.0827,0.18199 -0.42,0.1681 -0.3728,-0.0154 -0.44861,-0.0912 -0.19335,-0.19334 z m 1.92,-0.32 c 0.23101,-0.0924 0.50701,-0.0811 0.61335,0.0253 0.10633,0.10634 -0.0827,0.18199 -0.42,0.1681 -0.3728,-0.0154 -0.44861,-0.0912 -0.19335,-0.19334 z m 1.92,-0.32 c 0.23101,-0.0924 0.50701,-0.0811 0.61335,0.0253 0.10633,0.10634 -0.0827,0.18199 -0.42,0.1681 -0.3728,-0.0154 -0.44861,-0.0912 -0.19335,-0.19334 z m 41.60001,0 c 0.231,-0.0924 0.507,-0.0811 0.61334,0.0253 0.10634,0.10634 -0.0827,0.18199 -0.42,0.1681 -0.3728,-0.0154 -0.44861,-0.0912 -0.19334,-0.19334 z m -39.38001,-0.31334 c 0.22,-0.0888 0.58,-0.0888 0.8,0 0.22,0.0888 0.04,0.16141 -0.4,0.16141 -0.44,0 -0.62,-0.0726 -0.4,-0.16141 z m 37.14001,-0.007 c 0.231,-0.0924 0.507,-0.0811 0.61334,0.0253 0.10634,0.10634 -0.0827,0.18198 -0.42,0.1681 -0.3728,-0.0154 -0.44861,-0.0912 -0.19334,-0.19335 z m -34.58001,-0.31334 c 0.22,-0.0888 0.58,-0.0888 0.8,0 0.22,0.0888 0.04,0.1614 -0.4,0.1614 -0.44,0 -0.62,-0.0726 -0.4,-0.1614 z m 31.68001,0 c 0.22,-0.0888 0.58,-0.0888 0.8,0 0.22,0.0888 0.04,0.1614 -0.4,0.1614 -0.44,0 -0.62,-0.0726 -0.4,-0.1614 z m -28.31393,-0.32983 c 0.31136,-0.0811 0.74336,-0.0758 0.96,0.0118 0.21668,0.0877 -0.0381,0.15402 -0.56608,0.14752 -0.528,-0.006 -0.70524,-0.0782 -0.39392,-0.15939 z m 24.95393,0 c 0.308,-0.0805 0.812,-0.0805 1.12,0 0.308,0.0805 0.056,0.14634 -0.56,0.14634 -0.616,0 -0.868,-0.0659 -0.56,-0.14634 z m -20.96,-0.32525 c 0.396,-0.0763 1.044,-0.0763 1.44,0 0.396,0.0763 0.072,0.13866 -0.72,0.13866 -0.792,0 -1.116,-0.0624 -0.72,-0.13866 z m 16.32,0 c 0.396,-0.0763 1.044,-0.0763 1.44,0 0.396,0.0763 0.072,0.13866 -0.72,0.13866 -0.792,0 -1.116,-0.0624 -0.72,-0.13866 z m -311.52001,-0.31475 c 0.308,-0.0805 0.812,-0.0805 1.12,0 0.308,0.0805 0.056,0.14634 -0.56,0.14634 -0.616,0 -0.868,-0.0659 -0.56,-0.14634 z m 207.04608,0 c 0.31136,-0.0811 0.74336,-0.0758 0.96,0.0118 0.21667,0.0877 -0.0381,0.15402 -0.56608,0.14752 -0.528,-0.006 -0.70525,-0.0782 -0.39392,-0.15939 z m 10.47392,-3.41901 c 0,-0.0664 0.252,-0.31843 0.56,-0.56 0.50755,-0.39801 0.51885,-0.38672 0.12083,0.12084 -0.41804,0.53302 -0.68083,0.70256 -0.68083,0.43916 z m -231.65476,-7.10582 c 0.0154,-0.3728 0.0912,-0.44861 0.19335,-0.19334 0.0924,0.231 0.0811,0.507 -0.0253,0.61334 -0.10634,0.10634 -0.18199,-0.0827 -0.1681,-0.42 z m 235.84001,-0.64 c 0.0154,-0.3728 0.0912,-0.44861 0.19334,-0.19334 0.0924,0.231 0.0811,0.507 -0.0253,0.61334 -0.10633,0.10634 -0.18198,-0.0827 -0.16809,-0.42 z m 0,-4.48 c 0.0154,-0.3728 0.0912,-0.44861 0.19334,-0.19334 0.0924,0.231 0.0811,0.507 -0.0253,0.61334 -0.10633,0.10634 -0.18198,-0.0827 -0.16809,-0.42 z M 466.82002,567.7814 c 0.231,-0.0924 0.507,-0.0811 0.61334,0.0253 0.10634,0.10633 -0.0827,0.18198 -0.42,0.16809 -0.3728,-0.0154 -0.44861,-0.0912 -0.19334,-0.19334 z m 209.92,0 c 0.23101,-0.0924 0.50701,-0.0811 0.61335,0.0253 0.10633,0.10633 -0.0827,0.18198 -0.42,0.16809 -0.3728,-0.0154 -0.44861,-0.0912 -0.19335,-0.19334 z m -156.34,-0.34141 c 28.292,-0.0451 74.588,-0.0451 102.88,0 28.292,0.0451 5.144,0.082 -51.44,0.082 -56.584,0 -79.732,-0.0369 -51.44,-0.082 z M 320.26001,538.6614 c 0.23101,-0.0924 0.50701,-0.0811 0.61334,0.0253 0.10634,0.10633 -0.0827,0.18198 -0.42,0.16809 -0.3728,-0.0154 -0.4486,-0.0912 -0.19334,-0.19334 z m -26.03002,-14.26141 -1.90998,-2 2,1.90998 c 1.85783,1.77421 2.14643,2.09002 1.90998,2.09002 -0.0495,0 -0.94951,-0.9 -2,-2 z m 225.50408,1.76 c 28.45376,-0.0451 75.10976,-0.0451 103.68,0 28.57027,0.0451 5.28995,0.082 -51.73405,0.082 -57.024,0 -80.39968,-0.0369 -51.94595,-0.082 z m 157.96595,-0.29859 c 0.23101,-0.0924 0.50701,-0.0811 0.61335,0.0253 0.10633,0.10633 -0.0827,0.18198 -0.42,0.16809 -0.3728,-0.0154 -0.44861,-0.0912 -0.19335,-0.19334 z m -339.3641,-7.14141 c 0,-0.968 0.06,-1.364 0.13331,-0.88 0.0733,0.484 0.0733,1.276 0,1.76 -0.0734,0.484 -0.13331,0.088 -0.13331,-0.88 z m 351.63463,-5.12 c 0,-0.44 0.0726,-0.62 0.16141,-0.4 0.0888,0.22 0.0888,0.58 0,0.8 -0.0888,0.22 -0.16141,0.04 -0.16141,-0.4 z m -236.11137,-1.76 c 0.003,-1.056 0.0615,-1.44941 0.13274,-0.87427 0.0712,0.57516 0.0698,1.43916 -0.003,1.92 -0.073,0.48086 -0.13127,0.0102 -0.12947,-1.04573 z m -173.8701,-1.36 -1.74907,-1.84 1.84,1.74905 c 1.70942,1.62496 1.98659,1.93095 1.74907,1.93095 -0.05,0 -0.87801,-0.828 -1.84,-1.84 z m 409.95619,-0.26666 c 0.0154,-0.3728 0.0912,-0.44861 0.19334,-0.19334 0.0924,0.23101 0.0811,0.50701 -0.0253,0.61334 -0.10633,0.10634 -0.18198,-0.0827 -0.16809,-0.42 z m -358.14609,-6.13334 c -0.39802,-0.50755 -0.38672,-0.51885 0.12083,-0.12083 0.53302,0.41804 0.70256,0.68083 0.43917,0.68083 -0.0664,0 -0.31843,-0.252 -0.56,-0.56 z m 124.52083,0.13987 c 0,-0.0551 0.46801,-0.52307 1.04001,-1.04 l 1.04,-0.93987 -0.93988,1.04 c -0.87609,0.96944 -1.14013,1.1871 -1.14013,0.93987 z m 230.05579,-1.09987 -0.77578,-0.88 0.88,0.77577 c 0.8225,0.72509 1.02675,0.98423 0.77578,0.98423 -0.0573,0 -0.45331,-0.396 -0.88,-0.88 z m -420.30581,-6.24 -1.90998,-2 2,1.90998 c 1.85783,1.77421 2.14643,2.09002 1.90998,2.09002 -0.0495,0 -0.94951,-0.9 -2,-2 z m 202.01003,1.78806 c 0.22,-0.0888 0.58,-0.0888 0.8,0 0.22,0.0888 0.04,0.16141 -0.4,0.16141 -0.44,0 -0.62,-0.0726 -0.4,-0.16141 z m 207.68,0 c 0.22,-0.0888 0.58,-0.0888 0.8,0 0.22,0.0888 0.04,0.16141 -0.4,0.16141 -0.44,0 -0.62,-0.0726 -0.4,-0.16141 z m -55.33664,-0.34793 c 6.04086,-0.0487 15.83286,-0.0487 21.76,3e-5 5.92717,0.0488 0.98464,0.0886 -10.98336,0.0886 -11.968,-3e-5 -16.81747,-0.0399 -10.77664,-0.0886 z m -367.9543,-14.72013 -1.74907,-1.84 1.84,1.74905 c 1.70942,1.62496 1.98659,1.93095 1.74907,1.93095 -0.05,0 -0.87802,-0.828 -1.84,-1.84 z m 55.8389,-3.04 -1.58797,-1.68 1.68,1.58797 c 1.56108,1.47558 1.82675,1.77203 1.58797,1.77203 -0.0506,0 -0.80662,-0.756 -1.68,-1.68 z m -9.4452,-9.12 -1.10277,-1.2 1.2,1.10278 c 0.66,0.60653 1.2,1.14653 1.2,1.2 0,0.24436 -0.27079,0.0141 -1.29723,-1.10278 z m -59.6748,-0.8 -1.58797,-1.68 1.68,1.58797 c 1.56108,1.47558 1.82675,1.77203 1.58797,1.77203 -0.0506,0 -0.80662,-0.756 -1.68,-1.68 z m 51.6748,-6.88 -1.10277,-1.2 1.2,1.10278 c 0.66,0.60653 1.2,1.14653 1.2,1.2 0,0.24436 -0.27079,0.0141 -1.29723,-1.10278 z m -64.4748,-5.6 -1.58797,-1.68 1.68,1.58797 c 1.56108,1.47558 1.82675,1.77203 1.58797,1.77203 -0.0506,0 -0.80662,-0.756 -1.68,-1.68 z m 241.85204,-0.46058 c 0.308,-0.0805 0.812,-0.0805 1.12,0 0.308,0.0805 0.056,0.14634 -0.56,0.14634 -0.616,0 -0.868,-0.0659 -0.56,-0.14634 z m 55.2,-0.0195 c 28.028,-0.0451 73.892,-0.0451 101.92,0 28.028,0.0451 5.096,0.082 -50.96,0.082 -56.056,0 -78.988,-0.0369 -50.96,-0.082 z m -240.25724,-1.28 -1.10277,-1.2 1.2,1.10279 c 1.11693,1.02643 1.34713,1.29721 1.10277,1.29721 -0.0535,0 -0.59347,-0.54 -1.2,-1.2 z m 394.51724,0.98141 c 0.23101,-0.0924 0.50701,-0.0811 0.61335,0.0253 0.10633,0.10634 -0.0827,0.18199 -0.42,0.1681 -0.3728,-0.0154 -0.44861,-0.0912 -0.19335,-0.19335 z m -402.04014,-8.18131 -0.93987,-1.04 1.04,0.93987 c 0.96943,0.8761 1.18709,1.14013 0.93987,1.14013 -0.0551,0 -0.52307,-0.468 -1.04,-1.04 z m -61.4319,-2.88 -1.58797,-1.68 1.68,1.58797 c 1.56108,1.47558 1.82675,1.77203 1.58797,1.77203 -0.0506,0 -0.80662,-0.756 -1.68,-1.68 z m 239.87728,0.21334 c 0.0154,-0.3728 0.0912,-0.4486 0.19335,-0.19334 0.0924,0.23101 0.0811,0.50701 -0.0253,0.61334 -0.10634,0.10634 -0.18199,-0.0827 -0.1681,-0.42 z m 235.91975,-2.85334 c 0,-1.232 0.0593,-1.6968 0.12855,-1.03286 0.0693,0.66393 0.0681,1.67193 -0.003,2.24 -0.0707,0.56806 -0.12736,0.025 -0.12595,-1.20714 z m -421.72513,-1.52 -0.93987,-1.04 1.04,0.93987 c 0.96943,0.8761 1.18709,1.14013 0.93987,1.14013 -0.0551,0 -0.52307,-0.468 -1.04,-1.04 z m 185.80538,-1.06666 c 0.0154,-0.3728 0.0912,-0.4486 0.19335,-0.19334 0.0924,0.23101 0.0811,0.50701 -0.0253,0.61334 -0.10634,0.10634 -0.18199,-0.0827 -0.1681,-0.42 z m -251.71728,-6.29334 -1.58797,-1.68 1.68,1.58797 c 1.56108,1.47558 1.82675,1.77203 1.58797,1.77203 -0.0506,0 -0.80662,-0.756 -1.68,-1.68 z m 58.7148,0.48 -1.10277,-1.2 1.2,1.10278 c 1.11693,1.02644 1.34713,1.29722 1.10277,1.29722 -0.0535,0 -0.59347,-0.54 -1.2,-1.2 z m 425.27302,-1.28 -0.77578,-0.88 0.88,0.77578 c 0.484,0.42668 0.88,0.82268 0.88,0.88 0,0.25097 -0.25913,0.0467 -0.98422,-0.77578 z m -9.63578,-4.13859 c 0.23101,-0.0924 0.50701,-0.0811 0.61335,0.0253 0.10633,0.10633 -0.0827,0.18198 -0.42,0.16809 -0.3728,-0.0154 -0.44861,-0.0912 -0.19335,-0.19334 z m -206.42,-0.33571 c 0.748,-0.0674 1.972,-0.0674 2.72,0 0.748,0.0674 0.136,0.12249 -1.36,0.12249 -1.496,0 -2.108,-0.0551 -1.36,-0.12249 z m -216.42014,-1.1257 -0.93987,-1.04 1.04,0.93987 c 0.96943,0.8761 1.18709,1.14013 0.93987,1.14013 -0.0551,0 -0.52307,-0.468 -1.04,-1.04 z m -62.85987,-4.56 c -0.77729,-0.792 -1.34126,-1.44 -1.25326,-1.44 0.088,0 0.79597,0.648 1.57326,1.44 0.77729,0.792 1.34125,1.44 1.25325,1.44 -0.088,0 -0.79596,-0.648 -1.57325,-1.44 z m 55.81987,-2.16 -0.93987,-1.04 1.04,0.93987 c 0.572,0.51693 1.04,0.98493 1.04,1.04 0,0.24723 -0.26404,0.0294 -1.14013,-0.93987 z m -63.22069,-4.96 c -0.39804,-0.50755 -0.38672,-0.51885 0.12082,-0.12083 0.308,0.24157 0.56,0.49357 0.56,0.56 0,0.26339 -0.26278,0.0939 -0.68082,-0.43917 z m 55.86069,-2.08 -0.93987,-1.04 1.04,0.93987 c 0.96943,0.8761 1.18709,1.14013 0.93987,1.14013 -0.0551,0 -0.52308,-0.468 -1.04,-1.04 z m -59.06069,-0.8 c -0.39804,-0.50755 -0.38672,-0.51885 0.12082,-0.12083 0.53304,0.41805 0.70255,0.68083 0.43918,0.68083 -0.0665,0 -0.31845,-0.252 -0.56,-0.56 z m -5.12,-4.48 c -0.39804,-0.50755 -0.38672,-0.51885 0.12082,-0.12083 0.308,0.24157 0.56,0.49357 0.56,0.56 0,0.26339 -0.26279,0.0939 -0.68082,-0.43917 z m 57.28,-1.28 c -0.39804,-0.50755 -0.38672,-0.51885 0.12082,-0.12083 0.53304,0.41805 0.70255,0.68083 0.43918,0.68083 -0.0665,0 -0.31845,-0.252 -0.56,-0.56 z m -59.52,-0.64 c -0.39804,-0.50755 -0.38672,-0.51885 0.12082,-0.12083 0.53304,0.41805 0.70255,0.68083 0.43918,0.68083 -0.0665,0 -0.31845,-0.252 -0.56,-0.56 z m 60.76082,0.0282 c 0.22,-0.0888 0.58,-0.0888 0.8,0 0.22,0.0888 0.04,0.16141 -0.4,0.16141 -0.44,0 -0.62,-0.0726 -0.4,-0.16141 z m 2.88,-0.32 c 0.22,-0.0888 0.58,-0.0888 0.8,0 0.22,0.0888 0.04,0.16141 -0.4,0.16141 -0.44,0 -0.62,-0.0726 -0.4,-0.16141 z m 2.56,-0.32 c 0.22,-0.0888 0.58,-0.0888 0.8,0 0.22,0.0888 0.04,0.16141 -0.4,0.16141 -0.44,0 -0.62,-0.0726 -0.4,-0.16141 z m 4.5,-0.64666 c 0.231,-0.0924 0.507,-0.0811 0.61333,0.0253 0.10634,0.10634 -0.0827,0.18199 -0.42,0.1681 -0.37278,-0.0154 -0.44861,-0.0912 -0.19333,-0.19334 z m -84.39474,-16.60806 c 0.0154,-0.3728 0.0912,-0.44861 0.19333,-0.19334 0.0924,0.23101 0.0811,0.50701 -0.0252,0.61334 -0.10633,0.10634 -0.18196,-0.0827 -0.16807,-0.42 z m 0,-5.12 c 0.0154,-0.3728 0.0912,-0.44861 0.19333,-0.19334 0.0924,0.23101 0.0811,0.50701 -0.0252,0.61334 -0.10633,0.10634 -0.18196,-0.0827 -0.16807,-0.42 z m 135.65474,-0.25427 c 0,-0.0664 0.252,-0.31843 0.56,-0.56 0.50754,-0.39802 0.51886,-0.38672 0.12082,0.12083 -0.41804,0.53303 -0.68082,0.70256 -0.68082,0.43917 z m 6.72,-6.72 c 0,-0.0664 0.252,-0.31843 0.56,-0.56 0.50754,-0.39802 0.51886,-0.38672 0.12082,0.12083 -0.41804,0.53303 -0.68082,0.70256 -0.68082,0.43917 z m -137.6,-4.48 c 0,-0.0664 0.252,-0.31843 0.56,-0.56 0.50753,-0.39802 0.51885,-0.38672 0.12081,0.12083 -0.41803,0.53303 -0.68081,0.70256 -0.68081,0.43917 z m 1.28,-1.28 c 0,-0.0664 0.252,-0.31843 0.56,-0.56 0.50753,-0.39802 0.51885,-0.38672 0.12081,0.12083 -0.41803,0.53303 -0.68081,0.70256 -0.68081,0.43917 z m 10.5,-4.89776 c 0.23099,-0.0924 0.507,-0.0811 0.61333,0.0253 0.10633,0.10634 -0.0827,0.18198 -0.42,0.1681 -0.37278,-0.0154 -0.44861,-0.0912 -0.19333,-0.19335 z m 19.18,-0.34128 c 6.38,-0.0485 16.82,-0.0485 23.2,0 6.38,0.0485 1.16,0.0881 -11.6,0.0881 -12.76,0 -17.98,-0.0396 -11.6,-0.0881 z m 41.76,-0.3007 c 0.308,-0.0805 0.812,-0.0805 1.12,0 0.308,0.0805 0.056,0.14633 -0.56,0.14633 -0.616,0 -0.868,-0.0659 -0.56,-0.14633 z m 3.36,-0.31136 c 0.22,-0.0888 0.58,-0.0888 0.8,0 0.22,0.0888 0.04,0.1614 -0.4,0.1614 -0.44,0 -0.62,-0.0726 -0.4,-0.1614 z m 26,-11.1089 c 0,-0.0664 0.252,-0.31843 0.56,-0.56 0.50754,-0.39802 0.51886,-0.38672 0.12082,0.12083 -0.41804,0.53303 -0.68082,0.70256 -0.68082,0.43917 z m 4.16,-4.16 c 0,-0.0664 0.252,-0.31843 0.56,-0.56 0.50754,-0.39802 0.51886,-0.38672 0.12082,0.12083 -0.41804,0.53303 -0.68082,0.70256 -0.68082,0.43917 z m 83.45255,-9.71642 c 1.10688,-0.0627 2.83488,-0.0621 3.84,0 1.00508,0.0633 0.0994,0.11456 -2.01255,0.11392 -2.112,0 -2.93437,-0.0524 -1.82745,-0.11507 z m -145.63762,-0.32272 c 12.70222,-0.0463 33.58222,-0.0463 46.4,0 12.81779,0.0463 2.42507,0.0842 -23.09493,0.0842 -25.52,0 -36.00728,-0.0379 -23.30507,-0.0842 z m 119.23115,0.0182 c 0.31136,-0.0811 0.74336,-0.0758 0.96,0.0118 0.21667,0.0876 -0.0381,0.15402 -0.56608,0.14752 -0.528,-0.006 -0.70525,-0.0782 -0.39392,-0.15939 z m 7.35392,-0.0157 c 1.188,-0.0616 3.132,-0.0616 4.32,0 1.188,0.0616 0.216,0.11197 -2.16,0.11197 -2.376,0 -3.348,-0.0504 -2.16,-0.11197 z m 33.12,0.006 c 0.572,-0.071 1.508,-0.071 2.08,0 0.572,0.071 0.104,0.12906 -1.04,0.12906 -1.144,0 -1.612,-0.0581 -1.04,-0.12906 z m -186.88,-0.30044 c 0.22,-0.0888 0.58,-0.0888 0.8,0 0.22,0.0888 0.04,0.1614 -0.4,0.1614 -0.44,0 -0.62,-0.0726 -0.4,-0.1614 z m 193.28375,-0.0144 c 0.39804,-0.0765 0.97404,-0.0736 1.28,0.006 0.30592,0.0801 -0.0198,0.14272 -0.72375,0.13916 -0.704,-0.004 -0.95433,-0.0691 -0.55625,-0.14563 z m -195.50375,-0.31226 c 0.23099,-0.0924 0.507,-0.0811 0.61333,0.0253 0.10633,0.10634 -0.0827,0.18198 -0.42,0.1681 -0.37278,-0.0154 -0.44861,-0.0912 -0.19333,-0.19335 z m 199.04,0 c 0.23101,-0.0924 0.50701,-0.0811 0.61335,0.0253 0.10633,0.10634 -0.0827,0.18198 -0.42,0.1681 -0.3728,-0.0154 -0.44861,-0.0912 -0.19335,-0.19335 z m -213.25041,-6.26125 -0.60959,-0.72 0.72,0.6096 c 0.67662,0.57287 0.86567,0.8304 0.60959,0.8304 -0.0607,0 -0.38472,-0.324 -0.72,-0.72 z m 372.93042,0.18141 c 0.23101,-0.0924 0.50701,-0.0811 0.61334,0.0253 0.10634,0.10634 -0.0827,0.18198 -0.42,0.1681 -0.3728,-0.0154 -0.44861,-0.0912 -0.19334,-0.19335 z m 4.16,0 c 0.23101,-0.0924 0.50701,-0.0811 0.61334,0.0253 0.10634,0.10634 -0.0827,0.18198 -0.42,0.1681 -0.3728,-0.0154 -0.44861,-0.0912 -0.19334,-0.19335 z m -13.23507,-5.30141 -1.26493,-1.36 1.36,1.26493 c 1.2648,1.17638 1.50704,1.45507 1.26493,1.45507 -0.0523,0 -0.66426,-0.612 -1.36,-1.36 z m 25.61507,-2.48 c 0.31856,-0.352 0.6512,-0.64 0.7392,-0.64 0.088,0 -0.10064,0.288 -0.4192,0.64 -0.31856,0.352 -0.6512,0.64 -0.7392,0.64 -0.088,0 0.10064,-0.288 0.4192,-0.64 z m -394.01763,-2.4 c 0.007,-0.528 0.0782,-0.70525 0.15937,-0.39392 0.0811,0.31136 0.0758,0.74336 -0.0119,0.96 -0.0877,0.21667 -0.15404,-0.0381 -0.14752,-0.56608 z m 363.1134,-0.72 -0.77577,-0.88 0.88,0.77578 c 0.484,0.42669 0.88,0.82269 0.88,0.88 0,0.25097 -0.25914,0.0467 -0.98423,-0.77578 z m -128.82608,-2.48 c 0,-1.408 0.0574,-1.94419 0.12502,-1.19154 0.0676,0.75266 0.0667,1.90466 -0.003,2.55999 -0.0688,0.65536 -0.12406,0.0396 -0.12291,-1.36845 z m 163.41031,2.27917 c 0,-0.0664 0.252,-0.31843 0.56,-0.56 0.50755,-0.39802 0.51885,-0.38672 0.12083,0.12083 -0.41805,0.53303 -0.68083,0.70256 -0.68083,0.43917 z m -397.69763,-3.55917 c 0.007,-0.528 0.0782,-0.70526 0.15937,-0.39391 0.0811,0.31135 0.0758,0.74335 -0.0119,0.96 -0.0877,0.21665 -0.15404,-0.0381 -0.14752,-0.56609 z m 643.29546,-91.68 c 0,-50.77599 0.037,-71.54799 0.0822,-46.15999 0.0452,25.388 0.0452,66.93199 0,92.31999 -0.0452,25.388 -0.0822,4.616 -0.0822,-46.16 z m -241.43783,91.39918 c 0,-0.0664 0.252,-0.31844 0.56,-0.56 0.50755,-0.39803 0.51885,-0.38672 0.12083,0.12082 -0.41805,0.53304 -0.68083,0.70256 -0.68083,0.43918 z m -43.3904,-0.91918 -0.6096,-0.72 0.72,0.6096 c 0.67661,0.57287 0.86566,0.8304 0.6096,0.8304 -0.0607,0 -0.38474,-0.324 -0.72,-0.72 z m 47.5504,-2.92082 c 0,-0.0664 0.252,-0.31844 0.56,-0.56 0.50755,-0.39803 0.51885,-0.38672 0.12083,0.12082 -0.41805,0.53304 -0.68083,0.70256 -0.68083,0.43918 z m -52.0304,-1.87918 -0.6096,-0.72 0.72,0.6096 c 0.6766,0.57287 0.86566,0.8304 0.6096,0.8304 -0.0607,0 -0.38474,-0.324 -0.72,-0.72 z m 56.6704,-2.48 c 0.31856,-0.352 0.6512,-0.64 0.7392,-0.64 0.088,0 -0.10064,0.288 -0.4192,0.64 -0.31856,0.352 -0.6512,0.64 -0.7392,0.64 -0.088,0 0.10064,-0.288 0.4192,-0.64 z m -61.1504,-2.32 -0.6096,-0.72 0.72,0.6096 c 0.6766,0.57287 0.86566,0.8304 0.6096,0.8304 -0.0607,0 -0.38474,-0.324 -0.72,-0.72 z m 65.3104,-1.52 c 0.31856,-0.352 0.6512,-0.64 0.7392,-0.64 0.088,0 -0.10064,0.288 -0.4192,0.64 -0.31856,0.352 -0.6512,0.64 -0.7392,0.64 -0.088,0 0.10064,-0.288 0.4192,-0.64 z m -185.95041,-1.04 -0.6096,-0.72 0.72,0.6096 c 0.67661,0.57287 0.86567,0.8304 0.6096,0.8304 -0.0607,0 -0.38473,-0.324 -0.72,-0.72 z m 116.16001,-2.24 -0.6096,-0.72 0.72,0.6096 c 0.6766,0.57287 0.86566,0.8304 0.6096,0.8304 -0.0607,0 -0.38474,-0.324 -0.72,-0.72 z m 73.9504,-0.56 c 0.31856,-0.352 0.6512,-0.64 0.7392,-0.64 0.088,0 -0.10064,0.288 -0.4192,0.64 -0.31856,0.352 -0.6512,0.64 -0.7392,0.64 -0.088,0 0.10064,-0.288 0.4192,-0.64 z M 177.86001,300.5814 c 0.23099,-0.0924 0.507,-0.0811 0.61333,0.0253 0.10633,0.10633 -0.0827,0.18196 -0.42,0.16807 -0.37278,-0.0154 -0.44861,-0.0912 -0.19333,-0.19333 z m 199.36,0 c 0.23101,-0.0924 0.50701,-0.0811 0.61335,0.0253 0.10633,0.10633 -0.0827,0.18196 -0.42,0.16807 -0.3728,-0.0154 -0.44861,-0.0912 -0.19335,-0.19333 z M 180.2461,300.25824 c 0.31135,-0.0811 0.74335,-0.0758 0.96,0.0119 0.21665,0.0877 -0.0381,0.15404 -0.56609,0.14752 -0.528,-0.007 -0.70526,-0.0782 -0.39391,-0.15938 z m 35.51391,-0.0181 c 7.524,-0.0478 19.836,-0.0478 27.36,0 7.524,0.0478 1.368,0.087 -13.68,0.087 -15.048,0 -21.204,-0.0391 -13.68,-0.087 z m 157.28,0.0141 c 0.396,-0.0763 1.044,-0.0763 1.44,0 0.396,0.0763 0.072,0.13867 -0.72,0.13867 -0.792,0 -1.116,-0.0624 -0.72,-0.13867 z m -40.32,-0.32 c 0.396,-0.0763 1.044,-0.0763 1.44,0 0.396,0.0763 0.072,0.13867 -0.72,0.13867 -0.792,0 -1.116,-0.0624 -0.72,-0.13867 z m 27.68,-0.012 c 1.364,-0.06 3.596,-0.06 4.96,0 1.364,0.06 0.248,0.10907 -2.48,0.10907 -2.728,0 -3.844,-0.0491 -2.48,-0.10907 z m -30.54,-0.30073 c 0.23101,-0.0924 0.50701,-0.0811 0.61334,0.0253 0.10634,0.10633 -0.0827,0.18196 -0.42,0.16807 -0.3728,-0.0154 -0.4486,-0.0912 -0.19334,-0.19333 z m 171.06961,-0.50141 -0.6096,-0.72 0.72,0.6096 c 0.6766,0.57287 0.86566,0.8304 0.6096,0.8304 -0.0607,0 -0.38474,-0.324 -0.72,-0.72 z m 82.2704,0.08 c 0.31856,-0.352 0.6512,-0.64 0.7392,-0.64 0.088,0 -0.10064,0.288 -0.4192,0.64 -0.31856,0.352 -0.6512,0.64 -0.7392,0.64 -0.088,0 0.10064,-0.288 0.4192,-0.64 z m 4,-3.64082 c 0,-0.0664 0.252,-0.31844 0.56,-0.56 0.50755,-0.39803 0.51885,-0.38672 0.12083,0.12082 -0.41805,0.53304 -0.68083,0.70256 -0.68083,0.43918 z m -90.4304,-0.91918 -0.6096,-0.72 0.72,0.6096 c 0.6766,0.57287 0.86566,0.8304 0.6096,0.8304 -0.0607,0 -0.38474,-0.324 -0.72,-0.72 z m 95.0704,-3.44 c 0.31856,-0.352 0.6512,-0.64 0.7392,-0.64 0.088,0 -0.10064,0.288 -0.4192,0.64 -0.31856,0.352 -0.6512,0.64 -0.7392,0.64 -0.088,0 0.10064,-0.288 0.4192,-0.64 z m -99.2304,-1.04 -0.6096,-0.72 0.72,0.6096 c 0.6766,0.57287 0.86566,0.8304 0.6096,0.8304 -0.0607,0 -0.38474,-0.324 -0.72,-0.72 z m 103.3904,-2.8 c 0.31856,-0.352 0.6512,-0.64 0.7392,-0.64 0.088,0 -0.10064,0.288 -0.4192,0.64 -0.31856,0.352 -0.6512,0.64 -0.7392,0.64 -0.088,0 0.10064,-0.288 0.4192,-0.64 z m -107.40084,-1.52 c -0.39801,-0.50754 -0.38672,-0.51885 0.12084,-0.12082 0.308,0.24156 0.56,0.49356 0.56,0.56 0,0.26338 -0.26279,0.0939 -0.68084,-0.43918 z m -376.76579,-30.48 c 0,-16.104 0.0389,-22.692 0.0865,-14.64 0.0476,8.052 0.0476,21.228 0,29.28 -0.0476,8.052 -0.0865,1.464 -0.0865,-14.64 z m 488.16663,28.35918 c 0,-0.0664 0.252,-0.31844 0.56,-0.56 0.50755,-0.39803 0.51885,-0.38672 0.12083,0.12082 -0.41805,0.53304 -0.68083,0.70256 -0.68083,0.43918 z m -115.3904,-2.19918 -0.6096,-0.72 0.72,0.6096 c 0.6766,0.57287 0.86566,0.8304 0.6096,0.8304 -0.0607,0 -0.38474,-0.324 -0.72,-0.72 z m 120.0304,-2.16 c 0.31856,-0.352 0.6512,-0.64 0.7392,-0.64 0.088,0 -0.10064,0.288 -0.4192,0.64 -0.31856,0.352 -0.6512,0.64 -0.7392,0.64 -0.088,0 0.10064,-0.288 0.4192,-0.64 z m -123.8704,-2 -0.6096,-0.72 0.72,0.6096 c 0.6766,0.57287 0.86566,0.8304 0.6096,0.8304 -0.0607,0 -0.38474,-0.324 -0.72,-0.72 z m 128.0304,-1.84 c 0.31856,-0.352 0.6512,-0.64 0.7392,-0.64 0.088,0 -0.10064,0.288 -0.4192,0.64 -0.31856,0.352 -0.6512,0.64 -0.7392,0.64 -0.088,0 0.10064,-0.288 0.4192,-0.64 z M 843.3567,216.64 c 0,-32.824 0.0375,-46.252 0.0833,-29.84 0.0458,16.412 0.0458,43.26799 0,59.67999 -0.0458,16.412 -0.0833,2.984 -0.0833,-29.83999 z m -599.25669,58.6614 c 0.231,-0.0924 0.507,-0.0811 0.61333,0.0252 0.10634,0.10633 -0.0827,0.18196 -0.42,0.16807 -0.37278,-0.0154 -0.44861,-0.0912 -0.19333,-0.19333 z m -1.92,-0.32 c 0.231,-0.0924 0.507,-0.0811 0.61333,0.0252 0.10634,0.10633 -0.0827,0.18196 -0.42,0.16807 -0.37278,-0.0154 -0.44861,-0.0912 -0.19333,-0.19333 z m -2.73391,-0.32316 c 0.31135,-0.0811 0.74335,-0.0758 0.96,0.0119 0.21665,0.0877 -0.0381,0.15404 -0.56609,0.14752 -0.528,-0.007 -0.70526,-0.0782 -0.39391,-0.15938 z m -6.08609,-0.33136 c 0.66,-0.069 1.74,-0.069 2.4,0 0.66,0.069 0.12,0.12553 -1.2,0.12553 -1.32,0 -1.86,-0.0565 -1.2,-0.12553 z m -55.03391,-0.30864 c 0.31135,-0.0811 0.74335,-0.0758 0.96,0.0119 0.21665,0.0877 -0.0381,0.15404 -0.56609,0.14752 -0.528,-0.007 -0.70526,-0.0782 -0.39391,-0.15938 z m 196.47391,0.001 c 0.308,-0.0805 0.812,-0.0805 1.12,0 0.308,0.0805 0.056,0.14634 -0.56,0.14634 -0.616,0 -0.868,-0.0659 -0.56,-0.14634 z m -198.86,-0.31801 c 0.23099,-0.0924 0.507,-0.0811 0.61333,0.0253 0.10633,0.10633 -0.0827,0.18196 -0.42,0.16807 -0.37278,-0.0154 -0.44861,-0.0912 -0.19333,-0.19334 z m 301.13917,-0.34152 c -0.39801,-0.50754 -0.38672,-0.51885 0.12084,-0.12082 0.308,0.24156 0.56,0.49356 0.56,0.56 0,0.26338 -0.26279,0.0939 -0.68084,-0.43918 z m 136.20084,-2 c 0.31856,-0.352 0.6512,-0.64 0.7392,-0.64 0.088,0 -0.10064,0.288 -0.4192,0.64 -0.31856,0.352 -0.6512,0.64 -0.7392,0.64 -0.088,0 0.10064,-0.288 0.4192,-0.64 z m -139.8704,-2 -0.6096,-0.72 0.72,0.6096 c 0.6766,0.57287 0.86566,0.8304 0.6096,0.8304 -0.0607,0 -0.38474,-0.324 -0.72,-0.72 z m -308.65043,-0.8 c -0.39804,-0.50754 -0.38672,-0.51885 0.12082,-0.12082 0.308,0.24156 0.56,0.49356 0.56,0.56 0,0.26338 -0.26279,0.0939 -0.68082,-0.43918 z m 452.68083,-1.04 c 0.31856,-0.352 0.6512,-0.64 0.7392,-0.64 0.088,0 -0.10064,0.288 -0.4192,0.64 -0.31856,0.352 -0.6512,0.64 -0.7392,0.64 -0.088,0 0.10064,-0.288 0.4192,-0.64 z m -147.5504,-2 -0.6096,-0.72 0.72,0.6096 c 0.6766,0.57287 0.86566,0.8304 0.6096,0.8304 -0.0607,0 -0.38474,-0.324 -0.72,-0.72 z m 152.0304,-2.16 c 0.31856,-0.352 0.6512,-0.64 0.7392,-0.64 0.088,0 -0.10064,0.288 -0.4192,0.64 -0.31856,0.352 -0.6512,0.64 -0.7392,0.64 -0.088,0 0.10064,-0.288 0.4192,-0.64 z m -155.72084,-1.84 c -0.39801,-0.50754 -0.38672,-0.51885 0.12084,-0.12082 0.308,0.24156 0.56,0.49356 0.56,0.56 0,0.26338 -0.26279,0.0939 -0.68084,-0.43918 z m 159.88084,-2 c 0.31856,-0.352 0.6512,-0.64 0.7392,-0.64 0.088,0 -0.10064,0.288 -0.4192,0.64 -0.31856,0.352 -0.6512,0.64 -0.7392,0.64 -0.088,0 0.10064,-0.288 0.4192,-0.64 z m -466.05475,-0.50666 c 0.0154,-0.37279 0.0912,-0.44861 0.19333,-0.19334 0.0924,0.231 0.0811,0.50701 -0.0252,0.61334 -0.10633,0.10633 -0.18196,-0.0827 -0.16807,-0.42 z m 233.91999,-0.96 c 0.0154,-0.37279 0.0912,-0.44861 0.19334,-0.19334 0.0924,0.231 0.0811,0.50701 -0.0253,0.61334 -0.10633,0.10633 -0.18198,-0.0827 -0.16809,-0.42 z m 68.73392,-0.37334 c -0.39801,-0.50754 -0.38672,-0.51885 0.12084,-0.12082 0.308,0.24156 0.56,0.49356 0.56,0.56 0,0.26338 -0.26279,0.0939 -0.68084,-0.43918 z m -302.93679,-1.2 c 0.007,-0.528 0.0782,-0.70526 0.15937,-0.39391 0.0811,0.31135 0.0758,0.74335 -0.0119,0.96 -0.0877,0.21665 -0.15404,-0.0381 -0.14752,-0.56609 z m 234.60005,-2.4 c 0,-1.144 0.0581,-1.612 0.12906,-1.04 0.071,0.572 0.071,1.508 0,2.08 -0.071,0.572 -0.12906,0.104 -0.12906,-1.04 z m 236.21758,1.28 c 0.31856,-0.352 0.6512,-0.64 0.7392,-0.64 0.088,0 -0.10064,0.288 -0.4192,0.64 -0.31856,0.352 -0.6512,0.64 -0.7392,0.64 -0.088,0 0.10064,-0.288 0.4192,-0.64 z m -92.50013,-0.72 -0.93987,-1.04 1.04,0.93987 c 0.96944,0.87609 1.1871,1.14013 0.93987,1.14013 -0.0551,0 -0.52307,-0.468 -1.04,-1.04 z m 10.26013,-0.88 c 0.31856,-0.352 0.6512,-0.64 0.7392,-0.64 0.088,0 -0.10064,0.288 -0.4192,0.64 -0.31856,0.352 -0.6512,0.64 -0.7392,0.64 -0.088,0 0.10064,-0.288 0.4192,-0.64 z m -476.485694,-34.24 c 0,-18.91999 0.03853,-26.65999 0.08562,-17.19999 0.04709,9.46 0.04709,24.93999 0,34.39999 -0.04709,9.46 -0.08562,1.72 -0.08562,-17.2 z m 87.919924,32 c 0,-0.616 0.0658,-0.868 0.14634,-0.56 0.0805,0.308 0.0805,0.812 0,1.12 -0.0805,0.308 -0.14634,0.056 -0.14634,-0.56 z m 474.96577,0 c 0.31856,-0.352 0.6512,-0.64 0.7392,-0.64 0.088,0 -0.10064,0.288 -0.4192,0.64 -0.31856,0.352 -0.6512,0.64 -0.7392,0.64 -0.088,0 0.10064,-0.288 0.4192,-0.64 z m -100.04083,-0.56 c -0.39802,-0.50753 -0.38672,-0.51885 0.12083,-0.12081 0.308,0.24155 0.56,0.49355 0.56,0.56 0,0.26337 -0.26279,0.0939 -0.68083,-0.43919 z m -140.73393,-0.90666 c 0.0154,-0.37279 0.0912,-0.44861 0.19334,-0.19334 0.0924,0.231 0.0811,0.50701 -0.0253,0.61334 -0.10633,0.10633 -0.18198,-0.0827 -0.16809,-0.42 z m -233.91999,-0.96 c 0.0154,-0.37279 0.0912,-0.44861 0.19333,-0.19334 0.0924,0.231 0.0811,0.50701 -0.0252,0.61334 -0.10633,0.10633 -0.18196,-0.0827 -0.16807,-0.42 z m 393.41475,-0.13334 c 0.31856,-0.352 0.6512,-0.64 0.7392,-0.64 0.088,0 -0.10064,0.288 -0.4192,0.64 -0.31856,0.352 -0.6512,0.64 -0.7392,0.64 -0.088,0 0.10064,-0.288 0.4192,-0.64 z m -21.7904,-1.36 -0.6096,-0.72 0.72,0.6096 c 0.67661,0.57287 0.86566,0.8304 0.6096,0.8304 -0.0607,0 -0.38474,-0.324 -0.72,-0.72 z m 107.5504,-0.24 c 0.31856,-0.352 0.6512,-0.64 0.7392,-0.64 0.088,0 -0.10064,0.288 -0.4192,0.64 -0.31856,0.352 -0.6512,0.64 -0.7392,0.64 -0.088,0 0.10064,-0.288 0.4192,-0.64 z m -181.83284,-0.96 c 0,-0.792 0.0624,-1.116 0.13866,-0.72 0.0763,0.396 0.0763,1.044 0,1.44 -0.0763,0.396 -0.13866,0.072 -0.13866,-0.72 z m 101.19284,-2.24 c 0.31856,-0.352 0.6512,-0.64 0.7392,-0.64 0.088,0 -0.10064,0.288 -0.4192,0.64 -0.31856,0.352 -0.6512,0.64 -0.7392,0.64 -0.088,0 0.10064,-0.288 0.4192,-0.64 z m -30.4304,-0.4 -0.6096,-0.72 0.72,0.6096 c 0.67661,0.57287 0.86566,0.8304 0.6096,0.8304 -0.0607,0 -0.38474,-0.324 -0.72,-0.72 z m 115.2304,-0.24 c 0.31856,-0.352 0.6512,-0.64 0.7392,-0.64 0.088,0 -0.10064,0.288 -0.4192,0.64 -0.31856,0.352 -0.6512,0.64 -0.7392,0.64 -0.088,0 0.10064,-0.288 0.4192,-0.64 z M 163.52001,241.1589 c 0,-0.0665 0.252,-0.31845 0.56,-0.56 0.50753,-0.39804 0.51885,-0.38672 0.12081,0.12081 -0.41803,0.53304 -0.68081,0.70256 -0.68081,0.43919 z m 399.84001,-1.47919 c 0.31856,-0.352 0.6512,-0.64 0.7392,-0.64 0.088,0 -0.10064,0.288 -0.4192,0.64 -0.31856,0.352 -0.6512,0.64 -0.7392,0.64 -0.088,0 0.10064,-0.288 0.4192,-0.64 z m 84.48,-0.32 c 0.31856,-0.352 0.6512,-0.64 0.7392,-0.64 0.088,0 -0.10064,0.288 -0.4192,0.64 -0.31856,0.352 -0.6512,0.64 -0.7392,0.64 -0.088,0 0.10064,-0.288 0.4192,-0.64 z m -124.1904,-0.4 -0.6096,-0.72 0.72,0.6096 c 0.67661,0.57287 0.86566,0.8304 0.6096,0.8304 -0.0607,0 -0.38474,-0.324 -0.72,-0.72 z m 128.3504,-3.44 c 0.31856,-0.352 0.6512,-0.64 0.7392,-0.64 0.088,0 -0.10064,0.288 -0.4192,0.64 -0.31856,0.352 -0.6512,0.64 -0.7392,0.64 -0.088,0 0.10064,-0.288 0.4192,-0.64 z m -83.84,-0.32 c 0.31856,-0.352 0.6512,-0.64 0.7392,-0.64 0.088,0 -0.10064,0.288 -0.4192,0.64 -0.31856,0.352 -0.6512,0.64 -0.7392,0.64 -0.088,0 0.10064,-0.288 0.4192,-0.64 z M 377.22001,234.3414 c 0.23101,-0.0924 0.50701,-0.0811 0.61335,0.0252 0.10633,0.10633 -0.0827,0.18196 -0.42,0.16807 -0.3728,-0.0154 -0.44861,-0.0912 -0.19335,-0.19333 z m 141.31988,-0.82141 -0.93987,-1.04 1.04,0.93987 c 0.96944,0.87609 1.1871,1.14013 0.93987,1.14013 -0.0551,0 -0.52307,-0.468 -1.04,-1.04 z m -338.44916,0.48372 c 0.9299,-0.0649 2.3699,-0.0642 3.2,0.002 0.8301,0.0657 0.0693,0.11873 -1.69072,0.1179 -1.76,-9.6e-4 -2.43918,-0.0546 -1.50928,-0.11942 z m 193.11367,0.007 c 0.48643,-0.0735 1.20643,-0.0716 1.6,0.004 0.3936,0.076 -0.004,0.13614 -0.88439,0.13374 -0.88,-0.003 -1.20201,-0.0645 -0.71561,-0.1381 z m -122.10965,-0.33033 c 14.46212,-0.0461 38.22212,-0.0461 52.80001,-2e-5 14.57789,0.0461 2.74525,0.0837 -26.29475,0.0837 -29.04,1e-5 -40.96737,-0.0377 -26.50526,-0.0837 z m 405.38527,-2.32004 c 0.31856,-0.352 0.6512,-0.64 0.7392,-0.64 0.088,0 -0.10064,0.288 -0.4192,0.64 -0.31856,0.352 -0.6512,0.64 -0.7392,0.64 -0.088,0 0.10064,-0.288 0.4192,-0.64 z m -83.68,-0.48 c 0.41334,-0.44 0.82355,-0.8 0.91155,-0.8 0.088,0 -0.17821,0.36 -0.59155,0.8 -0.41335,0.44 -0.82355,0.8 -0.91155,0.8 -0.088,0 0.1782,-0.36 0.59155,-0.8 z m -105.12,-0.48 c 0.31856,-0.352 0.6512,-0.64 0.7392,-0.64 0.088,0 -0.10064,0.288 -0.4192,0.64 -0.31856,0.352 -0.6512,0.64 -0.7392,0.64 -0.088,0 0.10064,-0.288 0.4192,-0.64 z m 44.93577,-3.12 -0.77577,-0.88 0.88,0.77578 c 0.484,0.42669 0.88,0.82269 0.88,0.88 0,0.25097 -0.25914,0.0467 -0.98423,-0.77578 z m 148.02423,0.24 c 0.31856,-0.352 0.6512,-0.64 0.7392,-0.64 0.088,0 -0.10064,0.288 -0.4192,0.64 -0.31856,0.352 -0.6512,0.64 -0.7392,0.64 -0.088,0 0.10064,-0.288 0.4192,-0.64 z m -83.2,-0.96 c 0.31856,-0.352 0.6512,-0.64 0.7392,-0.64 0.088,0 -0.10064,0.288 -0.4192,0.64 -0.31856,0.352 -0.6512,0.64 -0.7392,0.64 -0.088,0 0.10064,-0.288 0.4192,-0.64 z m -105.44,-0.12081 c 0,-0.0665 0.252,-0.31845 0.56,-0.56 0.50755,-0.39804 0.51884,-0.38672 0.12083,0.12081 -0.41805,0.53304 -0.68083,0.70256 -0.68083,0.43919 z m 193.12,-3.07919 c 0.31856,-0.352 0.6512,-0.64 0.7392,-0.64 0.088,0 -0.10064,0.288 -0.4192,0.64 -0.31856,0.352 -0.6512,0.64 -0.7392,0.64 -0.088,0 0.10064,-0.288 0.4192,-0.64 z m -189.6,-0.12081 c 0,-0.0665 0.252,-0.31845 0.56,-0.56 0.50755,-0.39804 0.51884,-0.38672 0.12083,0.12081 -0.41805,0.53304 -0.68083,0.70256 -0.68083,0.43919 z m 106.4,-0.83919 c 0.31856,-0.352 0.6512,-0.64 0.7392,-0.64 0.088,0 -0.10064,0.288 -0.4192,0.64 -0.31856,0.352 -0.6512,0.64 -0.7392,0.64 -0.088,0 0.10064,-0.288 0.4192,-0.64 z m -75.06423,-1.2 -0.77577,-0.88 0.88,0.77578 c 0.484,0.42669 0.88,0.82269 0.88,0.88 0,0.25097 -0.25914,0.0467 -0.98423,-0.77578 z m -28.13577,-0.84081 c 0,-0.0665 0.252,-0.31845 0.56,-0.56 0.50755,-0.39804 0.51884,-0.38672 0.12083,0.12081 -0.41805,0.53304 -0.68083,0.70256 -0.68083,0.43919 z m 190.56,-0.83919 c 0.31856,-0.352 0.6512,-0.63999 0.7392,-0.63999 0.088,0 -0.10064,0.28799 -0.4192,0.63999 -0.31856,0.352 -0.6512,0.64 -0.7392,0.64 -0.088,0 0.10064,-0.288 0.4192,-0.64 z m -83.2,-0.95999 c 0.31856,-0.352 0.6512,-0.64 0.7392,-0.64 0.088,0 -0.10064,0.288 -0.4192,0.64 -0.31856,0.352 -0.6512,0.63999 -0.7392,0.63999 -0.088,0 0.10064,-0.28799 0.4192,-0.63999 z m 87.36,-2.88 c 0.31856,-0.352 0.6512,-0.64 0.7392,-0.64 0.088,0 -0.10064,0.288 -0.4192,0.64 -0.31856,0.352 -0.6512,0.64 -0.7392,0.64 -0.088,0 0.10064,-0.288 0.4192,-0.64 z m -82.88,-1.28 c 0.31856,-0.352 0.6512,-0.64 0.7392,-0.64 0.088,0 -0.10064,0.288 -0.4192,0.64 -0.31856,0.352 -0.6512,0.64 -0.7392,0.64 -0.088,0 0.10064,-0.288 0.4192,-0.64 z m -98.64,-1.8292 c 0.484,-0.0733 1.276,-0.0733 1.76,0 0.484,0.0733 0.088,0.1333 -0.88,0.1333 -0.968,0 -1.364,-0.06 -0.88,-0.1333 z m 186,-1.0508 c 0.31856,-0.352 0.6512,-0.64 0.7392,-0.64 0.088,0 -0.10064,0.288 -0.4192,0.64 -0.31856,0.352 -0.6512,0.64 -0.7392,0.64 -0.088,0 0.10064,-0.288 0.4192,-0.64 z m -83.2,-0.96 c 0.31856,-0.352 0.6512,-0.64 0.7392,-0.64 0.088,0 -0.10064,0.288 -0.4192,0.64 -0.31856,0.352 -0.6512,0.64 -0.7392,0.64 -0.088,0 0.10064,-0.288 0.4192,-0.64 z m 4.16,-3.84 c 0.31856,-0.352 0.6512,-0.64 0.7392,-0.64 0.088,0 -0.10064,0.288 -0.4192,0.64 -0.31856,0.352 -0.6512,0.64 -0.7392,0.64 -0.088,0 0.10064,-0.288 0.4192,-0.64 z m 4,-3.64082 c 0,-0.0665 0.252,-0.31845 0.56,-0.56 0.50755,-0.39804 0.51885,-0.38672 0.12083,0.12082 -0.41805,0.53304 -0.68083,0.70255 -0.68083,0.43918 z m 4.16,-3.84 c 0,-0.0665 0.252,-0.31845 0.56,-0.56 0.50755,-0.39804 0.51885,-0.38672 0.12083,0.12082 -0.41805,0.53304 -0.68083,0.70255 -0.68083,0.43918 z M 686.49919,197.28 c 0.003,-1.056 0.0615,-1.44943 0.13274,-0.87427 0.0712,0.57515 0.0698,1.43915 -0.003,1.92 -0.073,0.48084 -0.13127,0.0103 -0.12948,-1.04573 z m -75.29917,-1.88082 c 0,-0.0665 0.252,-0.31845 0.56,-0.56 0.50755,-0.39804 0.51885,-0.38672 0.12083,0.12082 -0.41805,0.53304 -0.68083,0.70255 -0.68083,0.43918 z m 4.16,-3.84 c 0,-0.0665 0.252,-0.31845 0.56,-0.56 0.50755,-0.39804 0.51885,-0.38672 0.12083,0.12082 -0.41805,0.53304 -0.68083,0.70255 -0.68083,0.43918 z m 4.16,-3.84 c 0,-0.0665 0.252,-0.31845 0.56,-0.56 0.50755,-0.39804 0.51885,-0.38672 0.12083,0.12082 -0.41805,0.53304 -0.68083,0.70255 -0.68083,0.43918 z M 681.23919,186 c -0.39802,-0.50754 -0.38672,-0.51886 0.12083,-0.12082 0.308,0.24155 0.56,0.49355 0.56,0.56 0,0.26337 -0.26278,0.0939 -0.68083,-0.43918 z m -57.55917,-2.12082 c 0,-0.0665 0.252,-0.31845 0.56,-0.56 0.50755,-0.39804 0.51885,-0.38672 0.12083,0.12082 -0.41805,0.53304 -0.68083,0.70255 -0.68083,0.43918 z m 53.5696,-2.19918 -0.6096,-0.72 0.72,0.60959 c 0.67661,0.57287 0.86567,0.83041 0.6096,0.83041 -0.0607,0 -0.38473,-0.324 -0.72,-0.72 z m -49.4096,-1.64082 c 0,-0.0664 0.252,-0.31845 0.56,-0.56 0.50755,-0.39804 0.51885,-0.38672 0.12083,0.12082 -0.41805,0.53304 -0.68083,0.70255 -0.68083,0.43918 z m 45.09578,-2.99918 -0.77578,-0.88 0.88,0.77578 c 0.484,0.42668 0.88,0.82268 0.88,0.88 0,0.25096 -0.25913,0.0467 -0.98422,-0.77578 z m -40.45578,-1.36 c 0.31856,-0.352 0.6512,-0.64 0.7392,-0.64 0.088,0 -0.10064,0.288 -0.4192,0.64 -0.31856,0.352 -0.6512,0.64 -0.7392,0.64 -0.088,0 0.10064,-0.288 0.4192,-0.64 z m 35.8096,-3.6 -0.6096,-0.72 0.72,0.60959 c 0.67661,0.57287 0.86567,0.83041 0.6096,0.83041 -0.0607,0 -0.38473,-0.324 -0.72,-0.72 z m -31.6496,-0.24 c 0.31856,-0.352 0.6512,-0.64 0.7392,-0.64 0.088,0 -0.10064,0.288 -0.4192,0.64 -0.31856,0.352 -0.6512,0.64 -0.7392,0.64 -0.088,0 0.10064,-0.288 0.4192,-0.64 z m 26.99917,-4.4 c -0.39802,-0.50754 -0.38672,-0.51886 0.12083,-0.12082 0.53303,0.41804 0.70256,0.68082 0.43917,0.68082 -0.0664,0 -0.31843,-0.252 -0.56,-0.56 z m -591.80753,-26 c 0,-12.584 0.0397,-17.732 0.08821,-11.44 0.04852,6.292 0.04852,16.588 0,22.88 -0.04851,6.292 -0.08821,1.144 -0.08821,-11.44 z m 580.88836,20.58807 c 0.22,-0.0888 0.58,-0.0888 0.8,0 0.22,0.0888 0.04,0.1614 -0.4,0.1614 -0.44,0 -0.62,-0.0726 -0.4,-0.1614 z M 111.82599,120.32 c 0,-7.128 0.0421,-10.044 0.0936,-6.48 0.0515,3.564 0.0515,9.396 0,12.96 -0.0515,3.564 -0.0936,0.648 -0.0936,-6.48 z M 843.66486,108 c 10e-5,-6.512 0.0428,-9.130585 0.0948,-5.81907 0.052,3.31151 0.052,8.63951 -2e-4,11.84 -0.0522,3.20048 -0.0948,0.49107 -0.0946,-6.02093 z M 803.66303,96.639998 c 0,-5.72 0.0434,-8.06 0.0964,-5.2 0.053,2.86 0.053,7.54 0,10.400002 -0.053,2.86 -0.0964,0.52 -0.0964,-5.200002 z m -732.165815,-5.28 c 2.24e-4,-4.048 0.04608,-5.659875 0.101911,-3.581946 0.05582,2.07793 0.05564,5.38993 -3.2e-4,7.36 -0.05605,1.970071 -0.101725,0.269946 -0.101501,-3.778054 z m 39.997765,-7.2 c 0,-3.608 0.0467,-5.084 0.10371,-3.28 0.057,1.804 0.057,4.756 0,6.56 -0.057,1.804 -0.10371,0.328 -0.10371,-3.28 z m 732.47132,-10.72 c 0,-2.464 0.0507,-3.429699 0.11162,-2.146 0.0609,1.2837 0.0605,3.299699 0,4.48 -0.0614,1.180301 -0.11124,0.13 -0.11072,-2.334 z m -843.87914348,-2.08 c 0,-0.792 0.06240512,-1.116 0.13867805,-0.72 0.0762729,0.396 0.0762729,1.044 0,1.44 -0.0762729,0.396 -0.13867805,0.072 -0.13867805,-0.72 z m 111.34708348,-3.2 c 0,-0.616 0.0659,-0.868 0.14635,-0.56 0.0805,0.308 0.0805,0.812 0,1.12 -0.0805,0.308 -0.14635,0.056 -0.14635,-0.56 z m 692.14815,-0.48 c 0.006,-0.528 0.0782,-0.70526 0.1594,-0.39391 0.0811,0.31135 0.0758,0.74335 -0.0118,0.96 -0.0877,0.21665 -0.15402,-0.03809 -0.14752,-0.56609 z m -758.061691,-0.64 c 0.0036,-0.704 0.06909,-0.95432 0.145626,-0.556268 0.07654,0.398051 0.07364,0.974051 -0.0065,1.28 -0.08009,0.305948 -0.14272,-0.01974 -0.139168,-0.723732 z m 25.913543,-1.759999 c 0,-0.616 0.06586,-0.868 0.146346,-0.56 0.08049,0.308 0.08049,0.812 0,1.119999 -0.08049,0.308 -0.146346,0.056 -0.146346,-0.559999 z m 772.160028,-0.32 c 0,-0.616 0.0658,-0.868 0.14633,-0.56 0.0805,0.308 0.0805,0.812 0,1.12 -0.0805,0.307999 -0.14633,0.056 -0.14633,-0.56 z m -731.889,0.133334 c 0.0154,-0.372784 0.0912,-0.448608 0.19333,-0.193334 0.0924,0.230998 0.0811,0.506998 -0.0252,0.613334 -0.10633,0.106333 -0.18196,-0.08267 -0.16807,-0.42 z m 691.52,0 c 0.0154,-0.372784 0.0912,-0.448608 0.19335,-0.193334 0.0924,0.230998 0.0811,0.506998 -0.0253,0.613334 -0.10634,0.106333 -0.18199,-0.08267 -0.1681,-0.42 z m -758.080005,-0.96 c 0.01536,-0.372784 0.09118,-0.448608 0.193332,-0.193334 0.09244,0.230998 0.08107,0.506998 -0.02525,0.613334 -0.106336,0.106333 -0.181965,-0.08267 -0.168071,-0.42 z m -45.12000184,-0.32 c 0.01535485,-0.372784 0.0911809,-0.448608 0.19333334,-0.193334 0.0924386,0.230998 0.0810702,0.506998 -0.0252632,0.613334 -0.10633334,0.106333 -0.18196492,-0.08267 -0.16807014,-0.42 z M 71.730527,62.079999 c 0,-0.44 0.07263,-0.62 0.161405,-0.4 0.08877,0.22 0.08877,0.58 0,0.8 -0.08877,0.22 -0.161405,0.04 -0.161405,-0.4 z m 771.520033,-0.32 c 0,-0.44 0.0726,-0.62 0.1614,-0.4 0.0888,0.22 0.0888,0.58 0,0.8 -0.0888,0.22 -0.1614,0.04 -0.1614,-0.4 z m -0.34528,-2.426666 c 0.0154,-0.372784 0.0912,-0.448608 0.19334,-0.193334 0.0924,0.230998 0.0811,0.506998 -0.0253,0.613334 -0.10634,0.106333 -0.18198,-0.08267 -0.1681,-0.42 z m -0.32,-1.92 c 0.0154,-0.372784 0.0912,-0.448608 0.19334,-0.193334 0.0924,0.230998 0.0811,0.506998 -0.0253,0.613334 -0.10634,0.106333 -0.18198,-0.08267 -0.1681,-0.42 z M 118.56,49.919999 c 0.31856,-0.352 0.6512,-0.64 0.7392,-0.64 0.088,0 -0.10064,0.288 -0.4192,0.64 -0.31855,0.352 -0.65119,0.64 -0.73919,0.64 -0.088,0 0.10064,-0.288 0.41919,-0.64 z m 676.78495,-1.04 -1.26492,-1.36 1.36,1.264944 c 1.2648,1.176384 1.50704,1.455056 1.26492,1.455056 -0.0523,0 -0.66425,-0.612 -1.36,-1.36 z m -675.18495,-0.56 c 0.31856,-0.352 0.6512,-0.64 0.7392,-0.64 0.088,0 -0.10064,0.288 -0.4192,0.64 -0.31855,0.352 -0.65119,0.64 -0.73919,0.64 -0.088,0 0.10064,-0.288 0.41919,-0.64 z M 26.820001,43.621404 c 0.231,-0.09244 0.507,-0.08107 0.613333,0.02525 0.106333,0.106333 -0.08267,0.181965 -0.42,0.16807 -0.372781,-0.01536 -0.448608,-0.09118 -0.193333,-0.193331 z m -4.827138,-0.332359 c 0.568075,-0.07069 1.576075,-0.07185 2.240001,-0.0026 0.663925,0.06927 0.199137,0.127111 -1.032863,0.128532 -1.232,0.0013 -1.775212,-0.05526 -1.207138,-0.125949 z M 137.86,40.421404 c 0.231,-0.09244 0.50701,-0.08107 0.61334,0.02525 0.10633,0.106336 -0.0827,0.181965 -0.42,0.16807 -0.37279,-0.01536 -0.44861,-0.09118 -0.19334,-0.193331 z m 150.08542,-0.02138 c 16.42597,-0.04583 43.20998,-0.04582 59.52,9e-6 16.31002,0.04583 2.87059,0.08333 -29.86541,0.08332 -32.736,-6e-6 -46.08057,-0.0375 -29.65459,-0.08333 z m 282.8546,3e-6 c 16.412,-0.04582 43.268,-0.04582 59.68,0 16.412,0.04583 2.984,0.08332 -29.84,0.08332 -32.824,0 -46.252,-0.03749 -29.84,-0.08332 z m 206.10001,0.02138 c 0.231,-0.09244 0.507,-0.08107 0.61334,0.02525 0.10634,0.106336 -0.0827,0.181965 -0.42,0.16807 -0.3728,-0.01536 -0.44861,-0.09118 -0.19334,-0.193331 z M 152.08,40.080121 c 6.46801,-0.0484 17.05201,-0.0484 23.52001,0 6.468,0.04841 1.176,0.08801 -11.76,0.08801 -12.93601,0 -18.22801,-0.0396 -11.76001,-0.08801 z m 590.26338,-10e-6 c 6.04087,-0.04871 15.83287,-0.04868 21.76001,6.1e-5 5.92716,0.04875 0.98464,0.08861 -10.98337,0.08857 -11.968,-3.2e-5 -16.81747,-0.03992 -10.77664,-0.08863 z M 88.640003,23.239182 c 0,-0.06645 0.252,-0.31845 0.56,-0.56 0.507539,-0.398039 0.518858,-0.38672 0.120819,0.120817 -0.418038,0.53304 -0.680819,0.702554 -0.680819,0.439183 z M 825.40963,22.319999 824.80003,21.6 l 0.72,0.609596 c 0.396,0.335277 0.72,0.659277 0.72,0.72 0,0.256081 -0.25754,0.06703 -0.8304,-0.609597 z m -3.52,-3.519999 -0.6096,-0.72 0.72,0.609596 c 0.396,0.335277 0.72,0.659277 0.72,0.72 0,0.256081 -0.25754,0.06703 -0.8304,-0.609596 z M 92.800003,19.079182 c 0,-0.06645 0.252,-0.31845 0.56,-0.56 0.507539,-0.398039 0.518858,-0.38672 0.120819,0.120818 -0.418038,0.533039 -0.680819,0.702553 -0.680819,0.439182 z M 130.18,1.0614035 c 0.231,-0.0924386 0.50701,-0.0810702 0.61334,0.025263 0.10633,0.1063334 -0.0827,0.181965 -0.42,0.1680702 -0.37279,-0.015355 -0.44861,-0.091181 -0.19334,-0.1933332 z m 1.9,-0.31333334 c 0.22,-0.0887719 0.58,-0.0887719 0.8,0 0.22,0.0887719 0.04,0.16140352 -0.4,0.16140352 -0.44,0 -0.62,-0.0726316 -0.4,-0.16140352 z m 650.58003,-0.006667 c 0.231,-0.0924386 0.507,-0.0810702 0.61334,0.025263 0.10634,0.10633334 -0.0827,0.18196493 -0.42,0.16807017 -0.3728,-0.0153549 -0.44861,-0.0911809 -0.19334,-0.19333317 z M 134.64,0.42807017 c 0.22,-0.0887719 0.58,-0.0887719 0.8,0 0.22,0.0887719 0.04,0.16140351 -0.4,0.16140351 -0.44,0 -0.62,-0.0726316 -0.4,-0.16140351 z m 248.02619,-0.0280678 c 42.2984,-0.0447233 111.4184,-0.0447227 153.6,1.37e-6 42.18161,0.0447241 7.57383,0.081316 -76.90617,0.0813152 -84.48001,-7.3e-7 -118.99223,-0.0365932 -76.69383,-0.0813166 z m 397.09384,0.0280678 c 0.22,-0.0887719 0.58,-0.0887719 0.8,0 0.22,0.0887719 0.04,0.16140351 -0.4,0.16140351 -0.44,0 -0.62,-0.0726316 -0.4,-0.16140351 z M 138.6444,0.090374 c 0.48642,-0.07355339 1.20642,-0.07158779 1.6,0.004368 0.39359,0.07595581 -0.004,0.13613586 -0.8844,0.13373345 -0.88,-0.002403 -1.20201,-0.0645481 -0.7156,-0.13810145 z m 34.87561,-0.01030267 c 8.58,-0.04738769 22.62,-0.04738769 31.2,0 8.58,0.04738768 1.56,0.08615942 -15.6,0.08615942 -17.16,0 -24.18,-0.0387717 -15.6,-0.08615942 z m 540.48001,0 c 8.58,-0.04738769 22.62,-0.04738769 31.2,0 8.58,0.04738768 1.56,0.08615942 -15.6,0.08615942 -17.16,0 -24.18,-0.0387717 -15.6,-0.08615942 z m 60.80001,0.01072726 c 0.484,-0.07331988 1.276,-0.07331988 1.76,0 0.484,0.07331988 0.088,0.13330888 -0.88,0.13330888 -0.968,0 -1.364,-0.059989 -0.88,-0.13330888 z"
         style="fill:#c3c3c3;stroke-width:0.32" />
      <path
         id="path530"
         d="m 764.88611,875.93822 c 0.31136,-0.0811 0.74336,-0.0758 0.96,0.0118 0.21667,0.0876 -0.0381,0.15402 -0.56608,0.14752 -0.528,-0.006 -0.70525,-0.0782 -0.39392,-0.15939 z m 14.08,0 c 0.31136,-0.0811 0.74336,-0.0758 0.96,0.0118 0.21667,0.0876 -0.0381,0.15402 -0.56608,0.14752 -0.528,-0.006 -0.70525,-0.0782 -0.39392,-0.15939 z m -18.70609,-0.31683 c 0.23101,-0.0924 0.50701,-0.0811 0.61335,0.0253 0.10633,0.10633 -0.0827,0.18198 -0.42,0.16809 -0.3728,-0.0154 -0.44861,-0.0912 -0.19335,-0.19334 z m 23.68001,0 c 0.231,-0.0924 0.507,-0.0811 0.61334,0.0253 0.10634,0.10633 -0.0827,0.18198 -0.42,0.16809 -0.3728,-0.0154 -0.44861,-0.0912 -0.19334,-0.19334 z m 3.52,-0.32 c 0.231,-0.0924 0.507,-0.0811 0.61334,0.0253 0.10634,0.10633 -0.0827,0.18198 -0.42,0.16809 -0.3728,-0.0154 -0.44861,-0.0912 -0.19334,-0.19334 z m 73.98,-30.94224 c 0,-0.0664 0.252,-0.31843 0.56,-0.56 0.50755,-0.39802 0.51885,-0.38672 0.12083,0.12083 -0.41805,0.53302 -0.68083,0.70256 -0.68083,0.43917 z m 1.92,-1.6 c 0,-0.0664 0.252,-0.31843 0.56,-0.56 0.50755,-0.39802 0.51885,-0.38672 0.12083,0.12083 -0.41805,0.53302 -0.68083,0.70256 -0.68083,0.43917 z m -183.08084,-0.75917 c -0.39802,-0.50755 -0.38672,-0.51885 0.12083,-0.12083 0.53303,0.41805 0.70256,0.68083 0.43917,0.68083 -0.0664,0 -0.31843,-0.252 -0.56,-0.56 z m 186.12084,-2 c 0.31856,-0.352 0.6512,-0.64 0.7392,-0.64 0.088,0 -0.10064,0.288 -0.4192,0.64 -0.31856,0.352 -0.6512,0.64 -0.7392,0.64 -0.088,0 0.10064,-0.288 0.4192,-0.64 z m -188.98423,-0.56 -0.77578,-0.88 0.88,0.77578 c 0.8225,0.72508 1.02675,0.98422 0.77578,0.98422 -0.0573,0 -0.45331,-0.396 -0.88,-0.88 z m 194.25085,-4.32 c 1.32608,-1.41286 1.61338,-1.66691 1.61338,-1.42662 0,0.0514 -0.684,0.73536 -1.52,1.52 l -1.52,1.42662 z m -203.21085,-4.64 -0.77578,-0.88 0.88,0.77578 c 0.8225,0.72509 1.02675,0.98422 0.77578,0.98422 -0.0573,0 -0.45331,-0.396 -0.88,-0.88 z m 208.18423,-0.72 c 0.31856,-0.352 0.6512,-0.64 0.7392,-0.64 0.088,0 -0.10064,0.288 -0.4192,0.64 -0.31856,0.352 -0.6512,0.64 -0.7392,0.64 -0.088,0 0.10064,-0.288 0.4192,-0.64 z m 2.08,-2.36083 c 0,-0.0664 0.252,-0.31843 0.56,-0.56 0.50755,-0.39802 0.51885,-0.38672 0.12083,0.12083 -0.41805,0.53303 -0.68083,0.70256 -0.68083,0.43917 z m -214.76084,-2.03917 c -0.39802,-0.50755 -0.38672,-0.51885 0.12083,-0.12083 0.53303,0.41805 0.70256,0.68083 0.43917,0.68083 -0.0664,0 -0.31843,-0.252 -0.56,-0.56 z m 216.36084,0.11917 c 0,-0.0664 0.252,-0.31843 0.56,-0.56 0.50755,-0.39802 0.51885,-0.38672 0.12083,0.12083 -0.41805,0.53303 -0.68083,0.70256 -0.68083,0.43917 z M 135.3,772.58139 c 0.231,-0.0925 0.50701,-0.0811 0.61334,0.0253 0.10633,0.10634 -0.0827,0.18198 -0.42,0.1681 -0.37279,-0.0154 -0.44861,-0.0912 -0.19334,-0.19335 z m -42.0504,-16.82141 -0.609597,-0.72 0.72,0.6096 c 0.396,0.33527 0.72,0.65927 0.72,0.72 0,0.25607 -0.257533,0.067 -0.830403,-0.6096 z m -5.12,-5.12 -0.609597,-0.72 0.72,0.6096 c 0.396,0.33527 0.72,0.65927 0.72,0.72 0,0.25607 -0.257533,0.067 -0.830403,-0.6096 z m 823.89568,0.21335 c 0.0154,-0.3728 0.0912,-0.44861 0.19334,-0.19335 0.0924,0.23101 0.0811,0.50701 -0.0253,0.61335 -0.10633,0.10633 -0.18198,-0.0827 -0.16809,-0.42 z m 0.32,-3.52 c 0.0154,-0.3728 0.0912,-0.44861 0.19334,-0.19335 0.0924,0.23101 0.0811,0.50701 -0.0253,0.61335 -0.10633,0.10633 -0.18198,-0.0827 -0.16809,-0.42 z m 0.35712,-4.77335 c 0.006,-0.528 0.0782,-0.70524 0.15939,-0.39392 0.0811,0.31136 0.0758,0.74336 -0.0118,0.96 -0.0877,0.21668 -0.15402,-0.0381 -0.14752,-0.56608 z m -773.41631,-9.66176 c 0.31135,-0.0811 0.74335,-0.0758 0.96,0.0118 0.21665,0.0876 -0.0381,0.15402 -0.56609,0.14752 -0.528,-0.006 -0.70526,-0.0782 -0.39391,-0.15939 z m 198.42019,-0.0182 c 54.00247,-0.0446 142.27447,-0.0446 196.16001,0 53.88557,0.0446 9.70173,0.081 -98.18628,0.081 -107.888,0 -151.97618,-0.0364 -97.97373,-0.081 z m 294.04798,-3.28 c 0,-0.616 0.0659,-0.868 0.14634,-0.56 0.0805,0.308 0.0805,0.812 0,1.12 -0.0805,0.308 -0.14634,0.056 -0.14634,-0.56 z m -611.334259,0.10141 c 0.231,-0.0924 0.507,-0.0811 0.613333,0.0253 0.106333,0.10634 -0.08267,0.18199 -0.42,0.1681 -0.372782,-0.0154 -0.448608,-0.0912 -0.193333,-0.19335 z m 4.8,0 c 0.231,-0.0924 0.507,-0.0811 0.613333,0.0253 0.106333,0.10634 -0.08267,0.18199 -0.42,0.1681 -0.372781,-0.0154 -0.448608,-0.0912 -0.193333,-0.19335 z M 912.7024,728.47998 c 0.006,-0.528 0.0782,-0.70524 0.15939,-0.39392 0.0811,0.31136 0.0758,0.74336 -0.0118,0.96 -0.0877,0.21668 -0.15402,-0.0381 -0.14752,-0.56608 z m -793.83745,-3.44 -1.26495,-1.36 1.36,1.26493 c 1.26479,1.17639 1.50705,1.45507 1.26495,1.45507 -0.0523,0 -0.66428,-0.612 -1.36,-1.36 z m 513.16032,-0.74665 c 0.0154,-0.3728 0.0912,-0.44861 0.19334,-0.19335 0.0924,0.23101 0.0811,0.50701 -0.0253,0.61335 -0.10633,0.10633 -0.18198,-0.0827 -0.16809,-0.42 z m 280.32001,-0.64 c 0.0154,-0.3728 0.0912,-0.44861 0.19334,-0.19335 0.0924,0.23101 0.0811,0.50701 -0.0253,0.61335 -0.10633,0.10633 -0.18198,-0.0827 -0.16809,-0.42 z m -280.00001,-2.88 c 0.0154,-0.3728 0.0912,-0.44861 0.19334,-0.19335 0.0925,0.23101 0.0811,0.50701 -0.0253,0.61335 -0.10633,0.10633 -0.18198,-0.0827 -0.16809,-0.42 z M 71.742386,708.31998 c 0.0065,-0.528 0.07824,-0.70524 0.159373,-0.39392 0.08113,0.31136 0.0758,0.74336 -0.01187,0.96 -0.08766,0.21668 -0.154038,-0.0381 -0.147517,-0.56608 z M 45.599361,386.71999 c 0,-175.29599 0.03629,-247.05588 0.08064,-159.46642 0.04435,87.58946 0.04435,231.01346 0,318.71999 -0.04435,87.70652 -0.08064,16.04243 -0.08064,-159.25357 z m 65.906779,304.95999 c -9e-5,-7.216 0.0419,-10.21363 0.0934,-6.66144 0.0515,3.55223 0.0515,9.45623 1.5e-4,13.12 -0.0514,3.66381 -0.0935,0.75744 -0.0936,-6.45856 z M 878.6792,643.59999 c -0.39802,-0.50756 -0.38672,-0.51885 0.12083,-0.12084 0.53302,0.41805 0.70256,0.68084 0.43917,0.68084 -0.0664,0 -0.31844,-0.252 -0.56,-0.56 z m -212.75918,-0.20084 c 0,-0.0664 0.252,-0.31843 0.56,-0.56 0.50755,-0.39801 0.51885,-0.38672 0.12083,0.12084 -0.41804,0.53302 -0.68083,0.70256 -0.68083,0.43916 z m 210.21578,-2.67916 -0.77577,-0.88 0.88,0.77577 c 0.484,0.42669 0.88,0.82269 0.88,0.88 0,0.25098 -0.25914,0.0467 -0.98423,-0.77577 z m -207.97578,0.13987 c 0,-0.0551 0.468,-0.52307 1.04,-1.04 l 1.04,-0.93987 -0.93987,1.04 c -0.8761,0.96944 -1.14013,1.1871 -1.14013,0.93987 z m 7.68,-7.68 c 0,-0.0551 0.468,-0.52307 1.04,-1.04 l 1.04,-0.93987 -0.93987,1.04 c -0.8761,0.96944 -1.14013,1.1871 -1.14013,0.93987 z m 191.33578,-1.41987 -0.77577,-0.88 0.88,0.77577 c 0.82249,0.72509 1.02675,0.98423 0.77577,0.98423 -0.0573,0 -0.45331,-0.396 -0.88,-0.88 z m -187.81578,-1.80084 c 0,-0.0664 0.252,-0.31843 0.56,-0.56 0.50755,-0.39801 0.51885,-0.38672 0.12083,0.12084 -0.41804,0.53302 -0.68083,0.70256 -0.68083,0.43916 z m 182.67918,-2.67916 c -0.39802,-0.50756 -0.38672,-0.51885 0.12083,-0.12084 0.53302,0.41805 0.70256,0.68084 0.43917,0.68084 -0.0664,0 -0.31844,-0.252 -0.56,-0.56 z m -58.36189,-102.48 c 0,-40.568 0.0372,-57.164 0.0827,-36.88 0.0455,20.284 0.0455,53.476 0,73.76 -0.0455,20.284 -0.0827,3.688 -0.0827,-36.88 z m -46.29729,70.8214 c 0.23101,-0.0924 0.50701,-0.0811 0.61335,0.0253 0.10633,0.10634 -0.0827,0.18199 -0.42,0.1681 -0.3728,-0.0154 -0.44861,-0.0912 -0.19335,-0.19334 z m 3.52,-0.32 c 0.23101,-0.0924 0.50701,-0.0811 0.61335,0.0253 0.10634,0.10634 -0.0827,0.18199 -0.42,0.1681 -0.3728,-0.0154 -0.44861,-0.0912 -0.19335,-0.19334 z m 22.40001,0 c 0.231,-0.0924 0.507,-0.0811 0.61334,0.0253 0.10634,0.10634 -0.0827,0.18199 -0.42,0.1681 -0.3728,-0.0154 -0.44861,-0.0912 -0.19334,-0.19334 z m -17.46,-0.32198 c 0.308,-0.0805 0.812,-0.0805 1.12,0 0.308,0.0805 0.056,0.14634 -0.56,0.14634 -0.616,0 -0.868,-0.0659 -0.56,-0.14634 z m 11.84,0 c 0.308,-0.0805 0.812,-0.0805 1.12,0 0.308,0.0805 0.056,0.14634 -0.56,0.14634 -0.616,0 -0.868,-0.0659 -0.56,-0.14634 z m -303.98139,-0.33866 c 2.25424,-0.0551 5.85424,-0.0549 8,0 2.14576,0.0553 0.30138,0.10036 -4.09862,0.10013 -4.4,-1.9e-4 -6.15562,-0.0454 -3.90138,-0.10048 z m 199.50513,0.0128 c 0.39804,-0.0765 0.97404,-0.0736 1.28,0.006 0.30592,0.0801 -0.0198,0.14272 -0.72375,0.13917 -0.704,-0.004 -0.95433,-0.0691 -0.55625,-0.14563 z m -216.11415,-4.33366 -0.60961,-0.72 0.72001,0.6096 c 0.6766,0.57286 0.86566,0.8304 0.6096,0.8304 -0.0607,0 -0.38474,-0.324 -0.72,-0.72 z m 232.92957,-9.04 c 0.003,-1.056 0.0615,-1.44941 0.13274,-0.87427 0.0712,0.57517 0.0698,1.43917 -0.003,1.92 -0.073,0.48086 -0.13127,0.0102 -0.12948,-1.04573 z m -232.73917,-9.2799 c 0.41334,-0.44 0.82355,-0.8 0.91155,-0.8 0.088,0 -0.17821,0.36 -0.59155,0.8 -0.41335,0.44 -0.82356,0.8 -0.91156,0.8 -0.088,0 0.17821,-0.36 0.59156,-0.8 z m 229.2496,0.08 -0.6096,-0.72 0.72,0.6096 c 0.67661,0.57286 0.86567,0.8304 0.6096,0.8304 -0.0607,0 -0.38473,-0.324 -0.72,-0.72 z m -355.80961,-38.96 c 0.31856,-0.352 0.6512,-0.64 0.7392,-0.64 0.088,0 -0.10064,0.288 -0.4192,0.64 -0.31856,0.352 -0.6512,0.64 -0.7392,0.64 -0.088,0 0.10064,-0.288 0.4192,-0.64 z m -29.77506,-2.32 -1.26494,-1.36 1.36,1.26493 c 1.26479,1.17638 1.50705,1.45507 1.26494,1.45507 -0.0523,0 -0.66428,-0.612 -1.36,-1.36 z m 32.01506,0.08 c 0.31856,-0.352 0.6512,-0.64 0.7392,-0.64 0.088,0 -0.10064,0.288 -0.4192,0.64 -0.31856,0.352 -0.6512,0.64 -0.7392,0.64 -0.088,0 0.10064,-0.288 0.4192,-0.64 z m 343.78001,-5.01859 c 0.23101,-0.0924 0.50701,-0.0811 0.61335,0.0253 0.10633,0.10633 -0.0827,0.18198 -0.42,0.16809 -0.3728,-0.0154 -0.44861,-0.0912 -0.19335,-0.19334 z m -219.0104,-3.70141 -0.6096,-0.72 0.72,0.6096 c 0.6766,0.57286 0.86566,0.8304 0.6096,0.8304 -0.0607,0 -0.38474,-0.324 -0.72,-0.72 z m 228.1904,0.08 c 0.31856,-0.352 0.6512,-0.64 0.7392,-0.64 0.088,0 -0.10064,0.288 -0.4192,0.64 -0.31856,0.352 -0.6512,0.64 -0.7392,0.64 -0.088,0 0.10064,-0.288 0.4192,-0.64 z m -396.96573,-3.12 -3.35428,-3.44 3.44,3.35427 c 3.19515,3.11555 3.58539,3.52573 3.35428,3.52573 -0.0471,0 -1.59514,-1.548 -3.44,-3.44 z m 401.04644,-7.28 c 0.004,-0.704 0.0691,-0.95434 0.14563,-0.55626 0.0765,0.39805 0.0736,0.97405 -0.006,1.28 -0.0801,0.30592 -0.14272,-0.0198 -0.13917,-0.72374 z m -415.12644,-6.48 -3.35428,-3.44 3.44,3.35427 c 3.19514,3.11555 3.58539,3.52573 3.35428,3.52573 -0.0471,0 -1.59514,-1.548 -3.44,-3.44 z m 45.76393,-12.48 -10.71821,-10.8 10.8,10.71821 c 10.03725,9.96124 10.94397,10.88179 10.71821,10.88179 -0.045,0 -4.90499,-4.86 -10.8,-10.8 z m 149.5218,5.76688 c 0.66,-0.069 1.74,-0.069 2.4,0 0.66,0.0691 0.12,0.12553 -1.2,0.12553 -1.32,0 -1.86,-0.0565 -1.2,-0.12553 z m 204.32,0.0211 c 0.22,-0.0888 0.58,-0.0888 0.8,0 0.22,0.0888 0.04,0.16141 -0.4,0.16141 -0.44,0 -0.62,-0.0726 -0.4,-0.16141 z m -413.52601,-6.908 -3.194,-3.28 3.28,3.19398 c 1.804,1.75671 3.28,3.23271 3.28,3.28 0,0.23149 -0.39941,-0.14752 -3.366,-3.19398 z m -13.44001,-13.12 -3.19399,-3.28 3.28,3.19398 c 3.04648,2.96663 3.42547,3.36602 3.194,3.36602 -0.0473,0 -1.52331,-1.476 -3.28001,-3.28 z m 54.39599,-4.16 -1.90998,-2 2,1.90998 c 1.85783,1.77421 2.14643,2.09002 1.90998,2.09002 -0.0495,0 -0.94951,-0.9 -2,-2 z m -67.51599,-8.64 -3.19399,-3.28 3.28,3.19398 c 3.04647,2.96663 3.42547,3.36602 3.19399,3.36602 -0.0473,0 -1.5233,-1.476 -3.28,-3.28 z m 59.51599,0.96 -1.90998,-2 2,1.90998 c 1.85783,1.77421 2.14643,2.09002 1.90998,2.09002 -0.0495,0 -0.94951,-0.9 -2,-2 z m -7.84091,-7.52 -1.74907,-1.84 1.84,1.74906 c 1.70942,1.62496 1.98659,1.93094 1.74907,1.93094 -0.05,0 -0.87801,-0.828 -1.84,-1.84 z m 184.41532,-1.58963 c 0.48643,-0.0735 1.20643,-0.0716 1.6,0.004 0.3936,0.0759 -0.004,0.13613 -0.88438,0.13373 -0.88,-0.003 -1.20202,-0.0645 -0.71562,-0.13812 z m -248.73071,-4.17037 -3.03368,-3.12 3.12,3.03366 c 2.89782,2.81767 3.26556,3.20634 3.03368,3.20634 -0.0475,0 -1.45148,-1.404 -3.12,-3.12 z m 56.63539,-1.6 -1.74907,-1.84 1.84,1.74906 c 1.70942,1.62496 1.98659,1.93094 1.74907,1.93094 -0.05,0 -0.87801,-0.828 -1.84,-1.84 z m -7.36,-7.04 -1.74907,-1.84 1.84,1.74906 c 1.70942,1.62496 1.98659,1.93094 1.74907,1.93094 -0.05,0 -0.87802,-0.828 -1.84,-1.84 z m 183.07618,0.69334 c 0.0154,-0.3728 0.0912,-0.4486 0.19335,-0.19334 0.0924,0.23101 0.0811,0.50701 -0.0253,0.61334 -0.10634,0.10634 -0.18199,-0.0827 -0.1681,-0.42 z m -244.35193,-3.73334 -2.87332,-2.96 2.96,2.87334 c 2.74918,2.66868 3.10566,3.04666 2.87332,3.04666 -0.0477,0 -1.37967,-1.332 -2.96,-2.96 z m 244.35193,0.21334 c 0.0154,-0.3728 0.0912,-0.4486 0.19335,-0.19334 0.0924,0.23101 0.0811,0.50701 -0.0253,0.61334 -0.10634,0.10634 -0.18199,-0.0827 -0.1681,-0.42 z m -190.27728,-4.05334 -1.58797,-1.68 1.68,1.58797 c 1.56108,1.47558 1.82675,1.77203 1.58797,1.77203 -0.0506,0 -0.80662,-0.756 -1.68,-1.68 z m 193.77204,-3.92 c 0.41334,-0.44 0.82355,-0.8 0.91155,-0.8 0.088,0 -0.17821,0.36 -0.59155,0.8 -0.41335,0.44 -0.82356,0.8 -0.91156,0.8 -0.088,0 0.17821,-0.36 0.59156,-0.8 z m -259.52708,-3.6 -2.71293,-2.8 2.8,2.71293 c 1.54,1.49213 2.8,2.75213 2.8,2.8 0,0.23283 -0.36738,-0.11239 -2.88707,-2.71293 z m 58.55614,0.64 -1.74907,-1.84 1.84,1.74906 c 1.70942,1.62496 1.98659,1.93094 1.74907,1.93094 -0.05,0 -0.87802,-0.828 -1.84,-1.84 z m 419.15094,-1.25859 c 0.23101,-0.0924 0.50701,-0.0811 0.61335,0.0253 0.10633,0.10633 -0.0827,0.18198 -0.42,0.16809 -0.3728,-0.0154 -0.44861,-0.0912 -0.19335,-0.19334 z m -426.35204,-5.62141 -1.58797,-1.68 1.68,1.58797 c 1.56108,1.47558 1.82675,1.77203 1.58797,1.77203 -0.0506,0 -0.80662,-0.756 -1.68,-1.68 z m -61.91722,-4 -2.07075,-2.16 2.16,2.07075 c 2.0063,1.92343 2.30628,2.24925 2.07075,2.24925 -0.0491,0 -1.02108,-0.972 -2.16,-2.16 z m 54.71832,-2.88 -1.74907,-1.84 1.84,1.74906 c 1.70942,1.62496 1.98659,1.93094 1.74907,1.93094 -0.05,0 -0.87802,-0.828 -1.84,-1.84 z m -59.85329,-1.92 -0.77578,-0.88 0.88,0.77578 c 0.484,0.42668 0.88,0.82268 0.88,0.88 0,0.25097 -0.25914,0.0467 -0.98422,-0.77578 z m -3.04619,-2.72 -0.60959,-0.72 0.72,0.6096 c 0.67662,0.57286 0.86567,0.8304 0.60959,0.8304 -0.0607,0 -0.38472,-0.324 -0.72,-0.72 z m 55.53948,-2.4 -1.74907,-1.84 1.84,1.74906 c 1.70942,1.62496 1.98659,1.93094 1.74907,1.93094 -0.05,0 -0.87802,-0.828 -1.84,-1.84 z m -57.94989,0.32 c -0.39804,-0.50755 -0.38672,-0.51885 0.12082,-0.12083 0.53304,0.41805 0.70255,0.68083 0.43918,0.68083 -0.0664,0 -0.31845,-0.252 -0.56,-0.56 z m -7.04,-6.08 c -0.39804,-0.50755 -0.38672,-0.51885 0.12082,-0.12083 0.308,0.24157 0.56,0.49357 0.56,0.56 0,0.26339 -0.26279,0.0938 -0.68082,-0.43917 z m -2.24,-1.92 c -0.39804,-0.50755 -0.38672,-0.51885 0.12082,-0.12083 0.53304,0.41805 0.70255,0.68083 0.43918,0.68083 -0.0664,0 -0.31845,-0.252 -0.56,-0.56 z m -2.86341,-2.56 -0.77577,-0.88 0.88,0.77578 c 0.484,0.42668 0.88,0.82268 0.88,0.88 0,0.25097 -0.25914,0.0467 -0.98423,-0.77578 z m -5.39051,-11.46665 c 0.0154,-0.3728 0.0912,-0.44861 0.19333,-0.19335 0.0924,0.23101 0.0811,0.50701 -0.0252,0.61335 -0.10633,0.10633 -0.18196,-0.0827 -0.16807,-0.42 z m 0,-3.2 c 0.0154,-0.3728 0.0912,-0.44861 0.19333,-0.19335 0.0924,0.23101 0.0811,0.50701 -0.0252,0.61335 -0.10633,0.10633 -0.18196,-0.0827 -0.16807,-0.42 z m 136.61474,-2.15348 c 0,-0.0551 0.468,-0.52307 1.04,-1.04 l 1.04,-0.93987 -0.93987,1.04 c -0.87609,0.96944 -1.14013,1.18711 -1.14013,0.93987 z m 3.84,-3.84 c 0,-0.0551 0.468,-0.52307 1.04,-1.04 l 1.04,-0.93987 -0.93987,1.04 c -0.87609,0.96944 -1.14013,1.18711 -1.14013,0.93987 z m -122.94,-12.59846 c 0.23099,-0.0924 0.507,-0.0811 0.61333,0.0253 0.10633,0.10634 -0.0827,0.18198 -0.42,0.1681 -0.37278,-0.0154 -0.44861,-0.0912 -0.19333,-0.19335 z m 54.06,-0.33571 c 0.748,-0.0674 1.972,-0.0674 2.72,0 0.748,0.0674 0.136,0.12249 -1.36,0.12249 -1.496,0 -2.108,-0.0551 -1.36,-0.12249 z m 90.96,-23.6057 c 0.41334,-0.44 0.82355,-0.8 0.91155,-0.8 0.088,0 -0.17821,0.36 -0.59155,0.8 -0.41334,0.44 -0.82355,0.8 -0.91155,0.8 -0.088,0 0.17821,-0.36 0.59155,-0.8 z m 20.24,-2.31312 c 0.66,-0.069 1.74,-0.069 2.4,0 0.66,0.0691 0.12,0.12554 -1.2,0.12554 -1.32,0 -1.86,-0.0565 -1.2,-0.12554 z m 22.88,0.007 c 0.396,-0.0763 1.044,-0.0763 1.44,0 0.396,0.0763 0.072,0.13866 -0.72,0.13866 -0.792,0 -1.116,-0.0624 -0.72,-0.13866 z m -182.72,-0.30611 c 0.22,-0.0888 0.58,-0.0888 0.8,0 0.22,0.0888 0.04,0.16141 -0.4,0.16141 -0.44,0 -0.62,-0.0726 -0.4,-0.16141 z m 190.4,0 c 0.22,-0.0888 0.58,-0.0888 0.8,0 0.22,0.0888 0.04,0.16141 -0.4,0.16141 -0.44,0 -0.62,-0.0726 -0.4,-0.16141 z m 15.44,-4.68819 c 0,-0.0551 0.468,-0.52307 1.04,-1.04 l 1.04,-0.93987 -0.93987,1.04 c -0.8761,0.96944 -1.14013,1.1871 -1.14013,0.93987 z m 163.20001,-7.09994 c 0.41334,-0.44 0.82355,-0.8 0.91155,-0.8 0.088,0 -0.17821,0.36 -0.59155,0.8 -0.41335,0.44 -0.82355,0.8 -0.91155,0.8 -0.088,0 0.1782,-0.36 0.59155,-0.8 z m -26.25722,-3.6 -1.10278,-1.2 1.2,1.10279 c 0.66,0.60652 1.2,1.14652 1.2,1.2 0,0.24435 -0.27079,0.0141 -1.29722,-1.10279 z m 30.41722,-0.24 c 0.41334,-0.44 0.82355,-0.8 0.91155,-0.8 0.088,0 -0.17821,0.36 -0.59155,0.8 -0.41335,0.44 -0.82355,0.8 -0.91155,0.8 -0.088,0 0.1782,-0.36 0.59155,-0.8 z m -395.42849,-3.2 c 0.003,-0.88 0.0645,-1.20201 0.1381,-0.71561 0.0736,0.48643 0.0716,1.20643 -0.004,1.6 -0.076,0.3936 -0.13614,-0.004 -0.13374,-0.88439 z m 398.62849,0.37987 c 0,-0.0551 0.468,-0.52307 1.04,-1.04 l 1.04,-0.93987 -0.93987,1.04 c -0.8761,0.96944 -1.14013,1.18711 -1.14013,0.93987 z m -38.41722,-2.05987 -1.10278,-1.2 1.2,1.10278 c 0.66,0.60653 1.2,1.14653 1.2,1.20001 0,0.24435 -0.27079,0.0141 -1.29722,-1.10279 z m 323.04849,-22 c 3e-5,-11.968 0.0399,-16.81748 0.0886,-10.77663 0.0487,6.04086 0.0487,15.83286 -3e-5,21.76 -0.0488,5.92715 -0.0886,0.98463 -0.0886,-10.98337 z m -280.47127,20.21987 c 0,-0.0551 0.468,-0.52307 1.04,-1.04 l 1.04,-0.93987 -0.93987,1.04 c -0.8761,0.96943 -1.14013,1.18709 -1.14013,0.93987 z m -47.05722,-3.01987 -1.10278,-1.2 1.2,1.10278 c 0.66,0.60652 1.2,1.14652 1.2,1.2 0,0.24436 -0.27079,0.0141 -1.29722,-1.10278 z m 51.21722,-0.82013 c 0,-0.0551 0.468,-0.52307 1.04,-1.04 l 1.04,-0.93987 -0.93987,1.04 c -0.8761,0.96943 -1.14013,1.18709 -1.14013,0.93987 z m -55.69722,-3.97987 -1.10278,-1.2 1.2,1.10278 c 0.66,0.60652 1.2,1.14652 1.2,1.2 0,0.24436 -0.27079,0.0141 -1.29722,-1.10278 z m 60.81722,-0.88 c 0.41334,-0.44 0.82355,-0.8 0.91155,-0.8 0.088,0 -0.17821,0.36 -0.59155,0.8 -0.41335,0.44 -0.82355,0.8 -0.91155,0.8 -0.088,0 0.1782,-0.36 0.59155,-0.8 z m -65.29722,-3.92 -1.10278,-1.2 1.2,1.10278 c 1.11692,1.02643 1.34713,1.29722 1.10278,1.29722 -0.0535,0 -0.59347,-0.54 -1.2,-1.2 z m 68.81722,0.77987 c 0,-0.0551 0.468,-0.52307 1.04,-1.04 l 1.04,-0.93987 -0.93987,1.04 c -0.8761,0.96943 -1.14013,1.18709 -1.14013,0.93987 z m 4.16,-3.84 c 0,-0.0551 0.468,-0.52307 1.04,-1.04 l 1.04,-0.93987 -0.93987,1.04 c -0.8761,0.96943 -1.14013,1.18709 -1.14013,0.93987 z m -77.30013,-1.57987 -0.93987,-1.04 1.04,0.93987 c 0.96944,0.87609 1.1871,1.14013 0.93987,1.14013 -0.0551,0 -0.52307,-0.468 -1.04,-1.04 z M 376.26001,300.5814 c 0.23101,-0.0924 0.50701,-0.0811 0.61335,0.0253 0.10633,0.10633 -0.0827,0.18196 -0.42,0.16807 -0.3728,-0.0154 -0.44861,-0.0912 -0.19335,-0.19333 z M 181.8461,300.25824 c 0.31135,-0.0811 0.74335,-0.0758 0.96,0.0119 0.21665,0.0877 -0.0381,0.15404 -0.56609,0.14752 -0.528,-0.007 -0.70526,-0.0782 -0.39391,-0.15938 z m 12.63391,-0.0163 c 1.452,-0.0593 3.828,-0.0593 5.28,0 1.452,0.0593 0.264,0.1078 -2.64,0.1078 -2.904,0 -4.092,-0.0485 -2.64,-0.1078 z m 67.38032,-0.002 c 2.95918,-0.0529 7.71118,-0.0528 10.56,2.2e-4 2.84882,0.053 0.42768,0.0962 -5.38032,0.0961 -5.808,-1.3e-4 -8.13886,-0.0435 -5.17968,-0.0963 z m 79.33968,6.4e-4 c 2.068,-0.0557 5.452,-0.0557 7.52,0 2.068,0.0557 0.376,0.10134 -3.76,0.10134 -4.136,0 -5.828,-0.0456 -3.76,-0.10134 z m 29.76,0.0184 c 0.308,-0.0805 0.812,-0.0805 1.12,0 0.308,0.0805 0.056,0.14635 -0.56,0.14635 -0.616,0 -0.868,-0.0659 -0.56,-0.14635 z m 213.04001,-1.79946 c 0,-0.0551 0.468,-0.52307 1.04,-1.04 l 1.04,-0.93987 -0.93987,1.04 c -0.8761,0.96943 -1.14013,1.18709 -1.14013,0.93987 z m -85.62013,-2.21987 -0.93987,-1.04 1.04,0.93987 c 0.96944,0.87609 1.1871,1.14013 0.93987,1.14013 -0.0551,0 -0.52307,-0.468 -1.04,-1.04 z m 89.78013,-1.62013 c 0,-0.0551 0.468,-0.52307 1.04,-1.04 l 1.04,-0.93987 -0.93987,1.04 c -0.8761,0.96943 -1.14013,1.18709 -1.14013,0.93987 z m -93.94013,-2.85987 -0.93987,-1.04 1.04,0.93987 c 0.96944,0.87609 1.1871,1.14013 0.93987,1.14013 -0.0551,0 -0.52307,-0.468 -1.04,-1.04 z m -223.2207,-1.12 c -0.39804,-0.50754 -0.38672,-0.51885 0.12082,-0.12082 0.308,0.24156 0.56,0.49356 0.56,0.56 0,0.26338 -0.26278,0.0939 -0.68082,-0.43918 z m 321.64083,-0.18013 c 0,-0.0551 0.468,-0.52307 1.04,-1.04 l 1.04,-0.93987 -0.93987,1.04 c -0.8761,0.96943 -1.14013,1.18709 -1.14013,0.93987 z m -324.49724,-3.01987 -1.10277,-1.2 1.2,1.10278 c 1.11693,1.02643 1.34713,1.29722 1.10277,1.29722 -0.0535,0 -0.59347,-0.54 -1.2,-1.2 z m 221.91711,-0.16 -0.93987,-1.04 1.04,0.93987 c 0.96944,0.87609 1.1871,1.14013 0.93987,1.14013 -0.0551,0 -0.52307,-0.468 -1.04,-1.04 z m 106.74013,-0.66013 c 0,-0.0551 0.468,-0.52307 1.04,-1.04 l 1.04,-0.93987 -0.93987,1.04 c -0.8761,0.96943 -1.14013,1.18709 -1.14013,0.93987 z m -331.88083,-2.05987 c -0.39804,-0.50754 -0.38672,-0.51885 0.12082,-0.12082 0.308,0.24156 0.56,0.49356 0.56,0.56 0,0.26338 -0.26278,0.0939 -0.68082,-0.43918 z m -193.091111,-15.44 c 0,-8.536 0.04125,-12.028 0.09165,-7.76 0.05041,4.268 0.05041,11.252 0,15.52 -0.05041,4.268 -0.09165,0.776 -0.09165,-7.76 z m 414.391811,14 -0.93987,-1.04 1.04,0.93987 c 0.96944,0.87609 1.1871,1.14013 0.93987,1.14013 -0.0551,0 -0.52307,-0.468 -1.04,-1.04 z m 114.74013,-0.34013 c 0,-0.0551 0.468,-0.52307 1.04,-1.04 l 1.04,-0.93987 -0.93987,1.04 c -0.8761,0.96943 -1.14013,1.18709 -1.14013,0.93987 z m -118.58013,-3.81987 -0.93987,-1.04 1.04,0.93987 c 0.96944,0.87609 1.1871,1.14013 0.93987,1.14013 -0.0551,0 -0.52307,-0.468 -1.04,-1.04 z m 123.06013,-0.34013 c 0,-0.0551 0.468,-0.52307 1.04,-1.04 l 1.04,-0.93987 -0.93987,1.04 c -0.8761,0.96943 -1.14013,1.18709 -1.14013,0.93987 z m -126.90013,-3.81987 -0.93987,-1.04 1.04,0.93987 c 0.96944,0.87609 1.1871,1.14013 0.93987,1.14013 -0.0551,0 -0.52307,-0.468 -1.04,-1.04 z m 131.06013,-0.0201 c 0,-0.0551 0.468,-0.52307 1.04,-1.04 l 1.04,-0.93987 -0.93987,1.04 c -0.8761,0.96943 -1.14013,1.18709 -1.14013,0.93987 z m -372.56001,-0.4318 c 0.22,-0.0888 0.58,-0.0888 0.8,0 0.22,0.0888 0.04,0.16141 -0.4,0.16141 -0.44,0 -0.62,-0.0726 -0.4,-0.16141 z m -56.95627,-0.33439 c 0.39805,-0.0765 0.97405,-0.0736 1.28,0.006 0.30595,0.0801 -0.0198,0.14272 -0.72373,0.13917 -0.704,-0.004 -0.95432,-0.0691 -0.55627,-0.14562 z m 16.95627,-0.0135 c 5.5,-0.0491 14.5,-0.0491 20,0 5.5,0.0491 1,0.0893 -10,0.0893 -11,0 -15.5,-0.0402 -10,-0.0893 z m 172.81072,0.004 c 0.92992,-0.0648 2.36992,-0.0642 3.2,0.002 0.83011,0.0657 0.0693,0.11873 -1.69072,0.1179 -1.76,-9.6e-4 -2.43917,-0.0546 -1.50928,-0.11942 z m 105.00506,-3.20371 -0.77577,-0.88 0.88,0.77578 c 0.484,0.42668 0.88,0.82268 0.88,0.88 0,0.25097 -0.25914,0.0467 -0.98423,-0.77578 z M 614.08002,270.62 c 0,-0.0551 0.468,-0.52307 1.04,-1.04 l 1.04,-0.93987 -0.93987,1.04 c -0.8761,0.96943 -1.14013,1.18709 -1.14013,0.93987 z m -225.92001,-1.28 c 0,-0.0551 0.468,-0.52307 1.04,-1.04 l 1.04,-0.93987 -0.93987,1.04 c -0.8761,0.96943 -1.14013,1.18709 -1.14013,0.93987 z m 83.17578,-2.37987 -0.77577,-0.88 0.88,0.77578 c 0.484,0.42668 0.88,0.82268 0.88,0.88 0,0.25097 -0.25914,0.0467 -0.98423,-0.77578 z M 618.24002,266.78 c 0,-0.0551 0.468,-0.52307 1.04,-1.04 l 1.04,-0.93987 -0.93987,1.04 c -0.8761,0.96943 -1.14013,1.18709 -1.14013,0.93987 z m -150.58013,-3.81987 -0.93987,-1.04 1.04,0.93987 c 0.96944,0.87609 1.1871,1.14013 0.93987,1.14013 -0.0551,0 -0.52307,-0.468 -1.04,-1.04 z M 622.72002,262.62 c 0,-0.0551 0.468,-0.52307 1.04,-1.04 l 1.04,-0.93987 -0.93987,1.04 c -0.8761,0.96943 -1.14013,1.18709 -1.14013,0.93987 z m -158.58013,-3.49987 -0.93987,-1.04 1.04,0.93987 c 0.96944,0.87609 1.1871,1.14013 0.93987,1.14013 -0.0551,0 -0.52307,-0.468 -1.04,-1.04 z M 626.88002,258.78 c 0,-0.0551 0.468,-0.52307 1.04,-1.04 l 1.04,-0.93987 -0.93987,1.04 c -0.8761,0.96943 -1.14013,1.18709 -1.14013,0.93987 z M 159.7759,254.07999 c 0,-0.968 0.06,-1.364 0.13331,-0.88 0.0733,0.484 0.0733,1.276 0,1.76 -0.0733,0.484 -0.13331,0.088 -0.13331,-0.88 z m 387.10412,1.15918 c 0,-0.0664 0.252,-0.31844 0.56,-0.56 0.50755,-0.39803 0.51885,-0.38672 0.12083,0.12082 -0.41805,0.53304 -0.68083,0.70256 -0.68083,0.43918 z m 84.48,-0.61931 c 0,-0.0551 0.468,-0.52307 1.04,-1.04 l 1.04,-0.93987 -0.93987,1.04 c -0.8761,0.96943 -1.14013,1.18709 -1.14013,0.93987 z m -94.9104,-1.57987 -0.6096,-0.72 0.72,0.6096 c 0.67661,0.57287 0.86566,0.8304 0.6096,0.8304 -0.0607,0 -0.38474,-0.324 -0.72,-0.72 z m 15.0704,-2.16 c 0.68742,-0.704 1.32189,-1.28 1.40989,-1.28 0.088,0 -0.40247,0.576 -1.08989,1.28 -0.68743,0.704 -1.32189,1.28 -1.40989,1.28 -0.088,0 0.40246,-0.576 1.08989,-1.28 z m 84,-0.10013 c 0,-0.0551 0.468,-0.52307 1.04,-1.04 l 1.04,-0.93987 -0.93987,1.04 c -0.8761,0.96943 -1.14013,1.18709 -1.14013,0.93987 z m -101.9504,-0.93987 -0.6096,-0.72 0.72,0.6096 c 0.67661,0.57287 0.86566,0.8304 0.6096,0.8304 -0.0607,0 -0.38474,-0.324 -0.72,-0.72 z m -3.35383,-3.68 -0.77577,-0.88 0.88,0.77578 c 0.484,0.42669 0.88,0.82269 0.88,0.88 0,0.25097 -0.25914,0.0467 -0.98423,-0.77578 z m 26.58423,-0.24 c 0.59705,-0.616 1.15753,-1.12 1.24553,-1.12 0.088,0 -0.32848,0.504 -0.92553,1.12 -0.59706,0.616 -1.15754,1.12 -1.24554,1.12 -0.088,0 0.32848,-0.504 0.92554,-1.12 z m 83.2,0.69987 c 0,-0.0551 0.468,-0.52307 1.04,-1.04 l 1.04,-0.93987 -0.93987,1.04 c -0.8761,0.96943 -1.14013,1.18709 -1.14013,0.93987 z m -113.46013,-4.45987 -0.93987,-1.04 1.04,0.93987 c 0.96944,0.87609 1.1871,1.14013 0.93987,1.14013 -0.0551,0 -0.52307,-0.468 -1.04,-1.04 z m 117.62013,0.61987 c 0,-0.0551 0.468,-0.52307 1.04,-1.04 l 1.04,-0.93987 -0.93987,1.04 c -0.8761,0.96943 -1.14013,1.18709 -1.14013,0.93987 z m -82.56,-1.33987 c 0.59705,-0.616 1.15753,-1.12 1.24553,-1.12 0.088,0 -0.32848,0.504 -0.92553,1.12 -0.59706,0.616 -1.15754,1.12 -1.24554,1.12 -0.088,0 0.32848,-0.504 0.92554,-1.12 z m -397.12001,-1.24081 c 0,-0.0665 0.252,-0.31845 0.56,-0.56 0.50753,-0.39804 0.51885,-0.38672 0.12081,0.12081 -0.41803,0.53304 -0.68081,0.70256 -0.68081,0.43919 z m 484.16001,-1.57932 c 0,-0.0551 0.468,-0.52307 1.04,-1.04 l 1.04,-0.93987 -0.93987,1.04 c -0.8761,0.96943 -1.14013,1.18709 -1.14013,0.93987 z m -126.89507,-1.57987 -1.26493,-1.36 1.36,1.26495 c 1.2648,1.17638 1.50704,1.45505 1.26493,1.45505 -0.0523,0 -0.66426,-0.612 -1.36,-1.36 z m 44.65507,-0.08 c 0.59705,-0.616 1.15753,-1.12 1.24553,-1.12 0.088,0 -0.32848,0.504 -0.92553,1.12 -0.59706,0.616 -1.15754,1.12 -1.24554,1.12 -0.088,0 0.32848,-0.504 0.92554,-1.12 z m -102.08,-3.2 c 1.48822,-1.496 2.77785,-2.72 2.86585,-2.72 0.088,0 -1.05763,1.224 -2.54585,2.72 -1.48823,1.496 -2.77786,2.72 -2.86586,2.72 -0.088,0 1.05763,-1.224 2.54586,-2.72 z m 188.48,1.01987 c 0,-0.0551 0.468,-0.52307 1.04,-1.04 l 1.04,-0.93987 -0.93987,1.04 c -0.8761,0.96943 -1.14013,1.18709 -1.14013,0.93987 z m -463.92001,-0.77909 c 2.42,-0.0544 6.38,-0.0544 8.8,0 2.42,0.0544 0.44,0.0988 -4.4,0.0988 -4.84,0 -6.82,-0.0445 -4.4,-0.0988 z m 169.93959,-2e-4 c 2.60675,-0.0539 6.78275,-0.0537 9.28,2.7e-4 2.49721,0.054 0.36441,0.0981 -4.73959,0.0979 -5.104,-1.5e-4 -7.1472,-0.0443 -4.54041,-0.0982 z m 211.42042,-0.50071 c 0,-0.0551 0.468,-0.52307 1.04,-1.04 l 1.04,-0.93987 -0.93987,1.04 c -0.8761,0.96943 -1.14013,1.18709 -1.14013,0.93987 z m -53.93508,-2.21987 -1.26492,-1.36 1.36,1.26495 c 1.2648,1.17638 1.50704,1.45505 1.26493,1.45505 -0.0523,0 -0.66426,-0.612 -1.36001,-1.36 z m 140.97508,-0.66013 c 0,-0.0551 0.468,-0.52307 1.04,-1.04 l 1.04,-0.93987 -0.93987,1.04 c -0.8761,0.96943 -1.14013,1.18709 -1.14013,0.93987 z m -81.6,-2.29987 c 0.59705,-0.616 1.15753,-1.12 1.24553,-1.12 0.088,0 -0.32848,0.504 -0.92553,1.12 -0.59706,0.616 -1.15754,1.12 -1.24554,1.12 -0.088,0 0.32848,-0.504 0.92554,-1.12 z m -105.6,0.0599 c 0,-0.0551 0.468,-0.52307 1.04,-1.04 l 1.04,-0.93987 -0.93988,1.04 c -0.87609,0.96943 -1.14012,1.18709 -1.14012,0.93987 z m 191.36,-1.6 c 0,-0.0551 0.468,-0.52307 1.04,-1.04 l 1.04,-0.93987 -0.93987,1.04 c -0.8761,0.96943 -1.14013,1.18709 -1.14013,0.93987 z m -151.04,-1.65987 c -0.77728,-0.792 -1.34125,-1.44 -1.25325,-1.44 0.088,0 0.79597,0.648 1.57325,1.44 0.77728,0.792 1.34124,1.44 1.25324,1.44 -0.088,0 -0.79596,-0.648 -1.57324,-1.44 z M 111.83082,205.76 c 0,-11.352 0.0401,-15.996 0.089,-10.32 0.049,5.676 0.049,14.964 0,20.64 -0.049,5.67599 -0.089,1.032 -0.089,-10.32 z m 468.3292,18.39999 c 0.59706,-0.616 1.15754,-1.12 1.24554,-1.12 0.088,0 -0.32848,0.504 -0.92554,1.12 -0.59706,0.616 -1.15754,1.12 -1.24554,1.12 -0.088,0 0.32848,-0.504 0.92554,-1.12 z m -105.6,0 c 0.41334,-0.44 0.82355,-0.8 0.91155,-0.8 0.088,0 -0.17821,0.36 -0.59155,0.8 -0.41335,0.44 -0.82356,0.8 -0.91156,0.8 -0.088,0 0.17821,-0.36 0.59156,-0.8 z m 192,-2.24 c 0.41335,-0.44 0.82355,-0.8 0.91155,-0.8 0.088,0 -0.1782,0.36 -0.59155,0.8 -0.41334,0.44 -0.82355,0.8 -0.91155,0.8 -0.088,0 0.17821,-0.36 0.59155,-0.8 z m -188.64,-0.8 c 0.31856,-0.352 0.6512,-0.64 0.7392,-0.64 0.088,0 -0.10064,0.288 -0.4192,0.64 -0.31856,0.352 -0.6512,0.64 -0.7392,0.64 -0.088,0 0.10064,-0.288 0.4192,-0.64 z m 105.76,-0.10013 c 0,-0.0551 0.468,-0.52307 1.04,-1.04 l 1.04,-0.93986 -0.93987,1.03999 c -0.8761,0.96943 -1.14013,1.18709 -1.14013,0.93987 z M 504.15,218.48 l -1.90998,-2 2,1.90998 c 1.1,1.05049 2,1.95049 2,2 0,0.23645 -0.31581,-0.0522 -2.09002,-1.90998 z m -23.02998,-0.24 c 0.31856,-0.352 0.6512,-0.64 0.7392,-0.64 0.088,0 -0.10064,0.288 -0.4192,0.64 -0.31856,0.352 -0.6512,0.64 -0.7392,0.64 -0.088,0 0.10064,-0.288 0.4192,-0.64 z m 188.96,0.53986 c 0,-0.0551 0.468,-0.52307 1.04,-1.04 l 1.04,-0.93986 -0.93987,1.04 c -0.8761,0.96942 -1.14013,1.18708 -1.14013,0.93986 z m -81.92,-1.92 c 0,-0.0551 0.468,-0.52307 1.04,-1.04 l 1.04,-0.93986 -0.93987,1.04 c -0.8761,0.96942 -1.14013,1.18708 -1.14013,0.93986 z m 86.08,-1.92 c 0,-0.0551 0.468,-0.52307 1.04,-1.04 l 1.04,-0.93986 -0.93987,1.04 c -0.8761,0.96942 -1.14013,1.18708 -1.14013,0.93986 z m -81.92,-1.92 c 0,-0.0551 0.468,-0.52307 1.04,-1.04 l 1.04,-0.93986 -0.93987,1.04 c -0.8761,0.96942 -1.14013,1.18708 -1.14013,0.93986 z m 88.16,-4.05986 c 1.04499,-1.056 1.97197,-1.92 2.05997,-1.92 0.088,0 -0.69498,0.864 -1.73997,1.92 -1.04499,1.056 -1.97197,1.92 -2.05997,1.92 -0.088,0 0.69498,-0.864 1.73997,-1.92 z m -83.04,-0.8 c 0.41334,-0.44 0.82355,-0.8 0.91155,-0.8 0.088,0 -0.17821,0.36 -0.59155,0.8 -0.41334,0.44 -0.82355,0.8 -0.91155,0.8 -0.088,0 0.17821,-0.36 0.59155,-0.8 z m 3.52,-3.14014 c 0,-0.0551 0.468,-0.52307 1.04,-1.04 l 1.04,-0.93986 -0.93987,1.04 c -0.8761,0.96942 -1.14013,1.18708 -1.14013,0.93986 z m 4.16,-3.84 c 0,-0.0551 0.468,-0.52307 1.04,-1.04 l 1.04,-0.93986 -0.93987,1.04 c -0.8761,0.96942 -1.14013,1.18708 -1.14013,0.93986 z m 4.16,-3.84 c 0,-0.0551 0.468,-0.52307 1.04,-1.04 l 1.04,-0.93986 -0.93987,1.04 c -0.8761,0.96942 -1.14013,1.18708 -1.14013,0.93986 z m 4.16,-3.84 c 0,-0.0551 0.468,-0.52307 1.04,-1.04 l 1.04,-0.93986 -0.93987,1.04 c -0.8761,0.96942 -1.14013,1.18708 -1.14013,0.93986 z m 4.16,-3.84 c 0,-0.0551 0.468,-0.52307 1.04,-1.04 l 1.04,-0.93986 -0.93987,1.04 c -0.8761,0.96942 -1.14013,1.18708 -1.14013,0.93986 z m 4.16,-3.84 c 0,-0.0551 0.468,-0.52307 1.04,-1.04 l 1.04,-0.93986 -0.93987,1.04 c -0.8761,0.96942 -1.14013,1.18708 -1.14013,0.93986 z m 58.05987,-1.25986 -0.93987,-1.04 1.04,0.93986 c 0.96944,0.87609 1.18711,1.14014 0.93987,1.14014 -0.0551,0 -0.52307,-0.468 -1.04,-1.04 z m -53.89987,-2.58014 c 0,-0.0551 0.468,-0.52307 1.04,-1.04 l 1.04,-0.93986 -0.93987,1.04 c -0.8761,0.96942 -1.14013,1.18708 -1.14013,0.93986 z m 49.73987,-1.89986 -0.93987,-1.04 1.04,0.93986 c 0.96944,0.87609 1.18711,1.14014 0.93987,1.14014 -0.0551,0 -0.52307,-0.468 -1.04,-1.04 z m -45.57987,-1.94014 c 0,-0.0551 0.468,-0.52307 1.04,-1.04 l 1.04,-0.93986 -0.93987,1.04 c -0.8761,0.96942 -1.14013,1.18708 -1.14013,0.93986 z m 40.94279,-3.01986 -1.10279,-1.2 1.2,1.10277 c 0.66,0.60653 1.2,1.14653 1.2,1.2 0,0.24436 -0.27078,0.0141 -1.29721,-1.10277 z m -36.78279,-0.82014 c 0,-0.0551 0.468,-0.52307 1.04,-1.04 l 1.04,-0.93986 -0.93987,1.04 c -0.8761,0.96942 -1.14013,1.18708 -1.14013,0.93986 z m 31.66906,-4.61986 -1.74906,-1.84 1.84,1.74906 c 1.70941,1.62495 1.98659,1.93094 1.74906,1.93094 -0.05,0 -0.87799,-0.828 -1.84,-1.84 z m -26.86906,0.08 c 0.41335,-0.44 0.82355,-0.8 0.91155,-0.8 0.088,0 -0.1782,0.36 -0.59155,0.8 -0.41334,0.44 -0.82355,0.8 -0.91155,0.8 -0.088,0 0.17821,-0.36 0.59155,-0.8 z M 111.82819,148.64 c 6e-5,-8.624 0.0413,-12.10601 0.0916,-7.7378 0.0503,4.36822 0.0503,11.42422 -1.1e-4,15.68 -0.0504,4.25579 -0.0915,0.6818 -0.0915,-7.9422 z m 731.51571,-2.4 c 0,-6.072 0.043,-8.556 0.0956,-5.52 0.0526,3.036 0.0526,8.004 0,11.04 -0.0526,3.036 -0.0956,0.552 -0.0956,-5.52 z m -39.68941,-33.12 c -2.9e-4,-3.52 0.0465,-5.00366 0.1039,-3.29702 0.0574,1.70663 0.0576,4.58663 0,6.4 -0.0571,1.81336 -0.10412,0.41702 -0.10441,-3.10298 z m -731.842881,0.16 c 0,-3.08 0.04799,-4.34 0.106656,-2.8 0.05866,1.54 0.05866,4.06 0,5.6 -0.05866,1.54 -0.106656,0.28 -0.106656,-2.8 z M 111.48332,94.399998 c 0,-2.2 0.0511,-3.1 0.11361,-2 0.0625,1.1 0.0625,2.9 0,4 -0.0625,1.1 -0.11361,0.2 -0.11361,-2 z m 732.16551,-2.88 c 0,-2.728 0.0491,-3.844 0.10905,-2.48 0.06,1.364 0.06,3.596 0,4.96 -0.06,1.364 -0.10905,0.248 -0.10905,-2.48 z m -772.171954,-10.4 c 9.6e-4,-1.76 0.05457,-2.439174 0.119414,-1.509273 0.06485,0.9299 0.06417,2.3699 -0.0016,3.2 -0.06568,0.830099 -0.118732,0.06927 -0.1179,-1.690727 z m 732.487474,-7.36 c 0,-2.288 0.0516,-3.182012 0.11328,-1.986691 0.0617,1.195319 0.0613,3.067318 0,4.16 -0.0623,1.092678 -0.1128,0.114691 -0.11226,-2.173309 z m -803.91382368,-4.32 c 0,-0.44 0.07263158,-0.62 0.16140351,-0.4 0.0887719,0.22 0.0887719,0.58 0,0.8 -0.0887719,0.22 -0.16140351,0.04 -0.16140351,-0.4 z m 71.37185968,-2.4 c 0.0065,-0.528 0.07824,-0.70526 0.159373,-0.39391 0.08113,0.31135 0.0758,0.74335 -0.01187,0.96 -0.08766,0.21665 -0.154038,-0.03809 -0.147517,-0.56609 z m 39.962884,-0.346665 c 0.0154,-0.372784 0.0912,-0.448608 0.19333,-0.193335 0.0924,0.230999 0.0811,0.506999 -0.0252,0.613335 -0.10633,0.106333 -0.18196,-0.08267 -0.16807,-0.42 z m 732.18529,-0.133335 c 0,-0.44 0.0726,-0.62 0.1614,-0.4 0.0888,0.22 0.0888,0.58 0,0.8 -0.0888,0.22 -0.1614,0.04 -0.1614,-0.4 z M 0.05052632,64.959999 c 0,-0.44 0.07263158,-0.62 0.16140351,-0.4 0.0887719,0.22 0.0887719,0.58 0,0.8 -0.0887719,0.22 -0.16140351,0.04 -0.16140351,-0.4 z m 37.02865568,-16.56 c -0.398038,-0.507539 -0.38672,-0.518858 0.120819,-0.120819 0.308,0.241552 0.56,0.493552 0.56,0.56 0,0.263372 -0.262781,0.09386 -0.680819,-0.439181 z m 380.946588,-7.99999 c 22.67415,-0.04534 59.68215,-0.04533 82.24001,3e-6 22.55782,0.04534 4.00624,0.08243 -41.22576,0.08243 -45.23201,-4e-6 -63.68842,-0.0371 -41.01425,-0.08243 z M 139.78,40.101404 c 0.231,-0.09244 0.50701,-0.08107 0.61334,0.02525 0.10633,0.106336 -0.0827,0.181965 -0.42,0.16807 -0.37279,-0.01536 -0.44861,-0.09118 -0.19334,-0.193331 z m 55.68245,-0.02122 c 4.63234,-0.05 12.12034,-0.04995 16.64,9.9e-5 4.51966,0.05005 0.72956,0.09096 -8.42244,0.09091 -9.152,-5.5e-5 -12.8499,-0.04101 -8.21756,-0.09101 z m 511.36001,0 c 4.63235,-0.05 12.12035,-0.04995 16.64,9.9e-5 4.51968,0.05005 0.72956,0.09096 -8.42244,0.09091 -9.152,-5.5e-5 -12.84988,-0.04101 -8.21756,-0.09101 z m 68.15757,0.02122 c 0.231,-0.09244 0.507,-0.08107 0.61334,0.02525 0.10634,0.106336 -0.0827,0.181965 -0.42,0.16807 -0.3728,-0.01536 -0.44861,-0.09118 -0.19334,-0.193331 z M 87.360003,24.839182 c 0,-0.06645 0.252,-0.31845 0.56,-0.56 0.507539,-0.398039 0.518858,-0.38672 0.120819,0.120817 -0.418038,0.53304 -0.680819,0.702554 -0.680819,0.439183 z m 3.68,-4.039182 c 0.866768,-0.88 1.647942,-1.6 1.735942,-1.6 0.088,0 -0.549174,0.72 -1.415942,1.6 -0.866768,0.88 -1.647942,1.599999 -1.735942,1.599999 -0.088,0 0.549174,-0.719999 1.415942,-1.599999 z m 732.622807,-0.24 -1.10278,-1.2 1.2,1.102773 c 0.66,0.606525 1.2,1.146525 1.2,1.2 0,0.244358 -0.27079,0.01416 -1.29722,-1.102773 z M 135.94,0.42140351 c 0.231,-0.0924386 0.50701,-0.0810702 0.61334,0.025263 0.10633,0.10633334 -0.0827,0.18196492 -0.42,0.16807017 -0.37279,-0.0153549 -0.44861,-0.0911809 -0.19334,-0.19333317 z m 134.24367,-0.0213098 c 6.65701,-0.0483099 17.45701,-0.0482875 24,4.979e-5 6.54299,0.0483374 1.09634,0.0878636 -12.10366,0.0878363 -13.2,-2.74e-5 -18.55335,-0.039576 -11.89634,-0.0878861 z m 354.37635,2.624e-5 c 6.556,-0.0483503 17.284,-0.0483503 23.84,0 6.556,0.0483503 1.192,0.0879096 -11.92,0.0879096 -13.112,0 -18.476,-0.0395593 -11.92,-0.0879096 z m 154.26001,0.0212835 c 0.231,-0.0924386 0.507,-0.0810702 0.61334,0.025263 0.10634,0.10633334 -0.0827,0.18196492 -0.42,0.16807017 -0.3728,-0.0153549 -0.44861,-0.0911809 -0.19334,-0.19333317 z M 145.04,0.0807791 c 2.42,-0.05436179 6.38,-0.05436179 8.80001,0 2.42,0.05436179 0.44,0.09883961 -4.40001,0.09883961 -4.84,0 -6.82,-0.0444778 -4.4,-0.09883961 z m 618.88003,4.3264e-4 c 1.892,-0.05657523 4.988,-0.05657523 6.88,0 1.892,0.05657522 0.344,0.10286404 -3.44,0.10286404 -3.784,0 -5.332,-0.0462888 -3.44,-0.10286404 z"
         style="fill:#a5a5a5;stroke-width:0.32" />
      <path
         id="path528"
         d="m 764.32003,875.95736 c -19.57959,-1.31028 -37.1145,-5.9344 -53.92001,-14.21927 -34.71273,-17.11283 -60.55213,-47.18937 -72.21606,-84.05811 l -1.54388,-4.88 -249.60004,-2.5e-4 C 219.98231,772.79953 136.27595,772.69157 133.92,772.47323 116.14096,770.82552 102.19621,764.61029 90.872953,753.28702 80.617043,743.03112 74.767849,730.914 72.410303,715.03998 71.866751,711.38011 71.835177,696.35573 71.737138,394.71999 71.680562,220.65599 71.619778,75.359998 71.60206,71.839998 71.553433,62.178127 72.614927,55.092184 75.341638,46.876697 78.729715,36.668534 83.735641,28.543655 91.333565,20.920955 100.76232,11.461457 112.49348,5.112029 126.08,2.1146255 134.20753,0.32156335 111.25736,0.43241202 459.20002,0.50566549 l 321.76001,0.0677411 3.84,0.67715381 c 7.64752,1.3485826 14.04403,3.3287499 20.16,6.240952 20.28931,9.6610166 33.92483,28.0038496 37.72489,50.7484866 1.11104,6.64991 1.16141,9.784329 0.83424,51.907851 -0.20364,26.2184 -0.243,126.12329 -0.10745,272.75627 l 0.21389,231.38415 2.90723,1.78503 c 16.04301,9.85056 31.28832,24.49056 42.06192,40.39184 13.19325,19.47267 20.93718,40.63504 23.61914,64.54576 0.76448,6.81536 0.76518,22.19667 0,29.00502 -3.7224,33.18045 -17.34167,61.71856 -40.51121,84.88809 -23.07715,23.07715 -51.95283,36.89434 -84.55193,40.45856 -4.42228,0.48349 -18.87063,0.85991 -22.8321,0.59479 z m 29.6,-146.99738 v -69.76 h -10.49981 -10.49984 l -16.14016,8.6361 c -8.87712,4.74986 -16.2626,8.67866 -16.4122,8.73069 -0.2606,0.0906 5.27607,22.46397 5.65216,22.84003 0.10039,0.10042 4.87687,-2.35306 10.61437,-5.45213 5.73748,-3.09907 10.49789,-5.63469 10.57863,-5.63469 0.0808,0 0.14685,24.84 0.14685,55.2 v 55.2 h 13.28 13.28 z m -162.11211,1.36 c 0.10196,-1.54 0.41053,-5.31785 0.68576,-8.3952 3.49895,-39.12147 24.02845,-75.46236 56.10909,-99.32307 31.23258,-23.22992 70.77479,-32.36134 109.47726,-25.2814 2.376,0.43465 4.64192,0.87049 5.03539,0.96851 l 0.71536,0.17824 -0.18567,-230.51353 c -0.10918,-135.54361 -0.0617,-244.35649 0.11536,-264.11353 0.16557,-18.480002 0.17962,-34.823554 0.031,-36.319006 -1.4416,-14.527142 -10.10921,-23.947219 -24.74358,-26.891565 -1.48134,-0.298038 -73.90605,-0.383782 -321.60001,-0.380739 -294.23659,0.0036 -319.86641,0.04541 -321.92808,0.525034 -7.29585,1.697289 -12.5793,4.525273 -16.71576,8.947158 -3.43863,3.675901 -5.60076,8.102163 -6.81873,13.959117 -0.69595,3.346662 -0.69787,3.462255 -0.48324,29.119999 0.11851,14.168002 0.17098,151.759992 0.1166,305.759992 -0.0544,154 -0.0966,286.55199 -0.0939,294.55999 0.005,16.15136 0.24606,18.86164 2.1029,23.69373 3.51721,9.15293 11.57437,14.75555 22.95319,15.96071 1.35241,0.14323 113.29001,0.27958 248.75021,0.303 l 246.2913,0.0426 0.18534,-2.8 z M 475.52002,594.5549 c -8.78416,-0.1785 -10.35245,-0.2872 -12.1993,-0.84563 -4.17754,-1.26308 -6.97882,-3.6344 -8.28736,-7.01527 -1.0681,-2.75961 -1.07085,-8.1192 -0.005,-10.83782 1.57286,-4.01408 5.51766,-6.76083 11.05302,-7.69613 2.54484,-0.43001 15.04496,-0.47705 107.20001,-0.40342 99.33123,0.0794 104.41104,0.11085 106.23923,0.65843 4.73443,1.41808 7.76099,3.65241 9.35335,6.90509 0.75731,1.54694 0.8976,2.27945 0.99836,5.2134 0.13204,3.84298 -0.3375,5.84791 -1.9086,8.1496 -1.76541,2.58637 -4.81303,4.41652 -9.11114,5.4714 -2.0535,0.504 -9.0543,0.54512 -97.73197,0.57401 -52.536,0.017 -100.056,-0.061 -105.6,-0.17366 z M 313.94305,538.40396 c -2.61185,-0.593 -5.95405,-2.1993 -8.83795,-4.24762 -1.2402,-0.8809 -6.28183,-5.54243 -11.20361,-10.35898 -44.48855,-43.5374 -106.22465,-103.64969 -110.30596,-107.40463 -1.36646,-1.25719 -6.04959,-5.36442 -10.40697,-9.1272 -8.84917,-7.6416 -10.06314,-8.88845 -11.66985,-11.9856 -1.44741,-2.79005 -1.96458,-5.03104 -1.93854,-8.39994 0.0739,-9.56595 5.82886,-17.40761 14.33984,-19.53945 1.19581,-0.29952 9.52205,-0.45508 32.96,-0.61572 33.06599,-0.22662 33.10483,-0.22835 39.70914,-1.76 5.18373,-1.20217 11.21574,-3.8631 15.75524,-6.95017 3.79721,-2.58227 10.32469,-9.31536 13.27645,-13.69466 l 2.48042,-3.68 -48.89063,-0.17456 -48.89062,-0.17453 -3.19469,-0.72729 c -9.12879,-2.07821 -14.60376,-6.44576 -16.31478,-13.01482 -0.63148,-2.42438 -0.6316,-7.46608 -2.7e-4,-10.64229 0.27107,-1.36372 1.06866,-3.65444 1.7839,-5.12344 2.64045,-5.42315 6.93588,-8.35536 14.40518,-9.83346 2.43271,-0.48141 7.20179,-0.52561 51.56066,-0.47792 35.01928,0.0376 48.88,-0.0461 48.88,-0.29535 0,-0.19134 -0.58831,-1.3173 -1.30735,-2.50212 -7.64795,-12.60207 -18.06887,-19.92797 -31.97265,-22.47677 -5.30467,-0.97244 -16.68804,-1.2964 -43.68,-1.2431 -20.32171,0.0401 -22.99023,-0.0128 -25.28,-0.50166 -7.44492,-1.58937 -11.99938,-5.31059 -14.11505,-11.53269 -1.15395,-3.39372 -1.44689,-9.70193 -0.6226,-13.40696 1.59798,-7.18263 6.69677,-11.94357 14.66723,-13.69537 2.91156,-0.63993 4.04624,-0.65036 86.15042,-0.79215 46.12276,-0.0796 90.68675,-0.01 100,0.15699 15.84624,0.2836 16.93597,0.34043 19.19479,1.00093 7.02678,2.0547 11.5454,6.56176 13.17027,13.13656 0.63472,2.56839 0.55046,9.5443 -0.14691,12.16 -1.52135,5.70638 -5.19716,9.79852 -10.61815,11.82075 -4.53501,1.69171 -4.10054,1.67053 -37.84,1.84489 -19.81434,0.1024 -31.44,0.27634 -31.44,0.47043 0,0.16937 0.36778,1.77405 0.81729,3.56594 3.85941,15.38482 6.36005,19.4051 13.17733,21.18518 3.27591,0.85537 11.68884,1.15436 26.32538,0.93556 20.08231,-0.30021 25.44861,0.16138 30.67459,2.6385 7.41629,3.51533 11.16913,12.85784 9.13946,22.75226 -1.40339,6.84121 -6.25062,11.87286 -13.14234,13.64224 -4.08617,1.04908 -9.46598,1.26198 -32.43171,1.28329 l -22.56,0.0208 -1.76,0.96 c -2.25366,1.22928 -3.28621,2.77069 -5.27315,7.8721 -8.3524,21.44425 -22.35301,37.09965 -41.60685,46.52444 -11.6728,5.71386 -26.94848,9.8392 -41.6,11.23447 -1.232,0.11731 -2.42284,0.30966 -2.64631,0.42739 -0.2615,0.13779 8.00388,8.24886 23.19077,22.75786 53.97171,51.56249 75.69167,72.88707 78.47845,77.04985 5.89111,8.79984 5.06797,16.9705 -2.47357,24.55334 -5.45564,5.48554 -11.87622,7.76714 -17.9663,6.38452 z m 150.86861,-12.85175 c -5.84742,-1.25808 -9.27161,-4.74781 -10.42851,-10.62816 -1.53149,-7.78438 2.65575,-13.62886 11.20301,-15.63696 2.28448,-0.5367 8.00464,-0.5671 106.73386,-0.5671 98.31757,0 104.44547,0.0322 106.50042,0.56013 4.69821,1.20694 7.96979,3.54329 9.82982,7.01984 0.94995,1.77552 1.09658,2.37273 1.21143,4.93379 0.32137,7.16803 -3.02132,12.08313 -9.62356,14.15069 -1.54038,0.48236 -10.35904,0.53049 -107.43811,0.58633 -92.90333,0.0535 -106.03088,0.003 -107.98836,-0.41856 z m -0.11065,-68.60022 c -7.66538,-2.0081 -11.41591,-7.64157 -10.32228,-15.50454 0.64135,-4.61108 3.01303,-7.84516 7.18484,-9.79738 4.33779,-2.02989 -3.17322,-1.90816 111.55645,-1.8081 98.44979,0.0859 104.59834,0.12356 106.53021,0.65258 4.57702,1.25341 7.93354,3.94813 9.36787,7.52093 0.62442,1.55533 0.73085,2.39104 0.72135,5.66451 -0.01,3.2655 -0.12429,4.12688 -0.76733,5.75763 -0.94055,2.38519 -3.59709,5.13885 -6.0921,6.31482 -4.19161,1.97561 3.49047,1.84928 -111.2665,1.82992 -101.96566,-0.0173 -104.63184,-0.0329 -106.91251,-0.63037 z M 537.6013,333.74143 c -4.78992,-0.98195 -5.7992,-1.87126 -22.8488,-20.13339 -31.38157,-33.61328 -52.821,-56.93837 -54.26666,-59.03957 -2.13683,-3.10579 -2.71373,-4.84149 -2.72003,-8.18396 -0.005,-2.9154 0.0518,-3.17216 1.25085,-5.6 0.99939,-2.02359 1.94931,-3.25789 4.64,-6.02906 3.43939,-3.54226 16.78716,-15.87972 19.70336,-18.21198 5.62448,-4.49825 12.14713,-4.90484 17.32137,-1.07971 2.42003,1.78906 18.62,18.67663 32.0616,33.42246 3.40064,3.73061 6.6178,7.09253 7.14922,7.47095 1.40845,1.0029 3.38851,1.13954 4.95232,0.34174 1.48083,-0.75547 2.06963,-1.28486 18.21674,-16.37892 11.94854,-11.16932 30.59661,-28.45671 61.25875,-56.78897 8.536,-7.88739 16.672,-15.26399 18.08,-16.39246 1.408,-1.12846 3.77315,-2.65629 5.25587,-3.39516 2.50288,-1.24723 2.88087,-1.343 5.28,-1.33782 2.23888,0.005 2.87709,0.14359 4.7769,1.03853 3.9144,1.84393 6.38269,4.14242 18.76723,17.47635 3.08,3.31611 6.21216,6.84159 6.96039,7.83441 1.80016,2.38872 2.68995,4.78365 2.88019,7.75232 0.26681,4.16359 -1.04192,7.44622 -4.37818,10.98159 -1.50649,1.59642 -53.59418,49.92553 -115.7024,107.35349 -8.8,8.13686 -17.05069,15.50249 -18.33488,16.36803 -3.37677,2.27596 -7.09411,3.18915 -10.30384,2.53113 z M 19.371434,729.56392 C 11.217213,728.37602 4.4689227,722.61304 1.8022355,714.55998 1.3651312,713.23998 0.8535814,711.03909 0.66545817,709.6691 0.42464107,707.91538 0.32188942,611.91083 0.31825797,385.26745 0.31354721,91.263617 0.35751451,63.155695 0.82542739,61.038338 1.8957015,56.195228 4.9690818,51.301429 8.7309193,48.45028 14.882599,43.787836 23.109272,42.319532 30.265093,44.606844 c 7.683718,2.456051 13.058707,9.261782 14.686406,18.595715 0.435814,2.499139 0.488502,37.393161 0.488502,323.523991 0,290.0054 -0.04808,320.97622 -0.502035,323.36924 -2.595574,13.68275 -12.661987,21.34803 -25.566532,19.46813 z"
         style="fill:#858585;stroke-width:0.32" />
    </g>
  </g>
</svg>
