<?xml version="1.0" encoding="UTF-8" standalone="no"?>
<svg
   xmlns:dc="http://purl.org/dc/elements/1.1/"
   xmlns:cc="http://creativecommons.org/ns#"
   xmlns:rdf="http://www.w3.org/1999/02/22-rdf-syntax-ns#"
   xmlns:svg="http://www.w3.org/2000/svg"
   xmlns="http://www.w3.org/2000/svg"
   viewBox="0 0 844.15997 773.12"
   height="773.12"
   width="844.15997"
   id="svg606"
   version="1.1">
  <metadata
     id="metadata612">
    <rdf:RDF>
      <cc:Work
         rdf:about="">
        <dc:format>image/svg+xml</dc:format>
        <dc:type
           rdf:resource="http://purl.org/dc/dcmitype/StillImage" />
        <dc:title></dc:title>
      </cc:Work>
    </rdf:RDF>
  </metadata>
  <defs
     id="defs610" />
  <g
     id="g614">
    <g
       transform="translate(1.7081743,1.6116325)"
       id="g618">
      <path
         id="path622"
         d="m 164.90518,772.88003 c 13.87385,-0.0462 36.48185,-0.0461 50.24,0 13.75814,0.0462 2.40681,0.0839 -25.22519,0.0839 -27.632,0 -38.88866,-0.0378 -25.01481,-0.0839 z m -30.58145,-0.30637 c 0.39805,-0.0765 0.97405,-0.0736 1.28,0.006 0.30595,0.0801 -0.0198,0.14272 -0.72373,0.13917 -0.704,-0.004 -0.95432,-0.0691 -0.55627,-0.14563 z m 645.11999,0 c 0.39804,-0.0765 0.97404,-0.0736 1.28,0.006 0.30592,0.0801 -0.0198,0.14272 -0.72375,0.13917 -0.704,-0.004 -0.95433,-0.0691 -0.55625,-0.14563 z M 131.12,772.26806 c 0.22,-0.0888 0.58,-0.0888 0.8,0 0.22,0.0888 0.04,0.16141 -0.4,0.16141 -0.44,0 -0.62,-0.0726 -0.4,-0.16141 z m 652.15997,0 c 0.22,-0.0888 0.58,-0.0888 0.8,0 0.22,0.0888 0.04,0.16141 -0.4,0.16141 -0.44,0 -0.62,-0.0726 -0.4,-0.16141 z m -654.71997,-0.32 c 0.22,-0.0888 0.58,-0.0888 0.8,0 0.22,0.0888 0.04,0.16141 -0.4,0.16141 -0.44,0 -0.62,-0.0726 -0.4,-0.16141 z m 657.27997,0 c 0.22,-0.0888 0.58,-0.0888 0.8,0 0.22,0.0888 0.04,0.16141 -0.4,0.16141 -0.44,0 -0.62,-0.0726 -0.4,-0.16141 z M 126.66,771.62141 c 0.23099,-0.0924 0.507,-0.0811 0.61333,0.0253 0.10633,0.10633 -0.0827,0.18198 -0.42,0.16809 -0.37278,-0.0154 -0.44861,-0.0912 -0.19333,-0.19334 z m 661.43997,0 c 0.23101,-0.0924 0.50701,-0.0811 0.61335,0.0253 0.10633,0.10633 -0.0827,0.18198 -0.42,0.16809 -0.3728,-0.0154 -0.44861,-0.0912 -0.19335,-0.19334 z m -663.03997,-0.32 c 0.23099,-0.0924 0.507,-0.0811 0.61333,0.0253 0.10633,0.10633 -0.0827,0.18198 -0.42,0.16809 -0.37278,-0.0154 -0.44861,-0.0912 -0.19333,-0.19334 z m 667.83997,-0.64 c 0.23101,-0.0925 0.50701,-0.0811 0.61335,0.0253 0.10633,0.10633 -0.0827,0.18198 -0.42,0.16809 -0.3728,-0.0154 -0.44861,-0.0912 -0.19335,-0.19334 z m 24.7,-11.10224 c 0,-0.0664 0.252,-0.31843 0.56,-0.56 0.50755,-0.39802 0.51885,-0.38672 0.12083,0.12083 -0.41805,0.53302 -0.68083,0.70256 -0.68083,0.43917 z M 95.639177,757.84 c -0.398038,-0.50755 -0.38672,-0.51885 0.12082,-0.12083 0.308,0.24157 0.56,0.49357 0.56,0.56 0,0.26339 -0.262781,0.0938 -0.68082,-0.43917 z m 723.560793,0.43917 c 0,-0.0664 0.252,-0.31843 0.56,-0.56 0.50755,-0.39802 0.51885,-0.38672 0.12083,0.12083 -0.41805,0.53302 -0.68083,0.70256 -0.68083,0.43917 z m 1.6,-1.2593 c 0,-0.0551 0.468,-0.52307 1.04,-1.04 l 1.04,-0.93987 -0.93987,1.04 c -0.8761,0.96944 -1.14013,1.1871 -1.14013,0.93987 z M 93.415776,755.92 l -0.775779,-0.88 0.88,0.77578 c 0.484,0.42668 0.88,0.82268 0.88,0.88 0,0.25097 -0.259136,0.0467 -0.984221,-0.77578 z m 732.504194,-4.02013 c 0,-0.0551 0.468,-0.52307 1.04,-1.04 l 1.04,-0.93987 -0.93987,1.04 c -0.8761,0.96944 -1.14013,1.1871 -1.14013,0.93987 z M 87.819866,750.32 l -0.939869,-1.04 1.04,0.93987 c 0.572,0.51693 1.04,0.98493 1.04,1.04 0,0.24723 -0.264042,0.0294 -1.140131,-0.93987 z m 740.340104,-1.00083 c 0,-0.0664 0.252,-0.31843 0.56,-0.56 0.50755,-0.39802 0.51885,-0.38672 0.12083,0.12083 -0.41805,0.53302 -0.68083,0.70256 -0.68083,0.43917 z M 86.039178,748.24 c -0.398039,-0.50755 -0.38672,-0.51885 0.120819,-0.12083 0.308,0.24157 0.56,0.49357 0.56,0.56 0,0.26339 -0.262781,0.0938 -0.680819,-0.43917 z m -1.28,-1.6 c -0.398039,-0.50755 -0.38672,-0.51885 0.120819,-0.12083 0.308,0.24157 0.56,0.49357 0.56,0.56 0,0.26339 -0.262781,0.0938 -0.680819,-0.43917 z M 298.18642,732.88 c 87.70653,-0.0444 231.13052,-0.0444 318.71999,0 87.58947,0.0444 15.82957,0.0806 -159.46643,0.0806 -175.29599,0 -246.9601,-0.0363 -159.25356,-0.0806 z M 135.6,732.58806 c 0.22,-0.0888 0.58,-0.0888 0.8,0 0.22,0.0888 0.04,0.16141 -0.4,0.16141 -0.44,0 -0.62,-0.0726 -0.4,-0.16141 z m 643.04605,-0.01 c 0.31136,-0.0811 0.74336,-0.0758 0.96,0.0118 0.21667,0.0877 -0.0381,0.15402 -0.56608,0.14752 -0.528,-0.006 -0.70525,-0.0782 -0.39392,-0.15939 z M 133.7,732.26131 c 0.23099,-0.0924 0.507,-0.0811 0.61333,0.0253 0.10633,0.10634 -0.0827,0.18199 -0.42,0.1681 -0.37278,-0.0154 -0.44861,-0.0912 -0.19333,-0.19335 z m 647.67997,0 c 0.23101,-0.0924 0.50701,-0.0811 0.61335,0.0253 0.10633,0.10634 -0.0827,0.18199 -0.42,0.1681 -0.3728,-0.0154 -0.44861,-0.0912 -0.19335,-0.19335 z m 1.6,-0.32 c 0.23101,-0.0925 0.50701,-0.0811 0.61335,0.0253 0.10633,0.10634 -0.0827,0.18199 -0.42,0.1681 -0.3728,-0.0154 -0.44861,-0.0912 -0.19335,-0.19335 z M 19.92609,729.69824 c 0.311349,-0.0811 0.743349,-0.0758 0.959999,0.0118 0.216651,0.0877 -0.03809,0.15402 -0.56609,0.14752 -0.528,-0.006 -0.705259,-0.0782 -0.393909,-0.15939 z m 5.439999,0 c 0.31135,-0.0811 0.74335,-0.0758 0.96,0.0118 0.216651,0.0877 -0.03809,0.15402 -0.56609,0.14752 -0.528,-0.006 -0.705259,-0.0782 -0.39391,-0.15939 z M 121.23918,727.12 c -0.39804,-0.50755 -0.38672,-0.51885 0.12082,-0.12083 0.308,0.24157 0.56,0.49357 0.56,0.56 0,0.26339 -0.26279,0.0938 -0.68082,-0.43917 z m -2.37424,-2.08 -1.26494,-1.36 1.36,1.26493 c 1.26478,1.17638 1.50705,1.45507 1.26494,1.45507 -0.0523,0 -0.66428,-0.612 -1.36,-1.36 z m 676.33503,1.25987 c 0,-0.0551 0.468,-0.52307 1.04,-1.04 l 1.04,-0.93987 -0.93987,1.04 c -0.8761,0.96944 -1.14013,1.1871 -1.14013,0.93987 z M 7.0157802,723.6 l -0.7757804,-0.88 0.8799999,0.77578 c 0.484,0.42668 0.88,0.82268 0.88,0.88 0,0.25097 -0.2591357,0.0467 -0.9842195,-0.77578 z M 116.75918,722.64 c -0.39804,-0.50755 -0.38672,-0.51885 0.12082,-0.12083 0.308,0.24157 0.56,0.49357 0.56,0.56 0,0.26339 -0.26278,0.0938 -0.68082,-0.43917 z m -77.399181,-0.20083 c 0,-0.0664 0.252,-0.31843 0.56,-0.56 0.507539,-0.39802 0.518857,-0.38672 0.120819,0.12083 -0.418039,0.53302 -0.680819,0.70256 -0.680819,0.43917 z m 802.585221,-3.58583 c 0.0154,-0.3728 0.0912,-0.4486 0.19334,-0.19334 0.0924,0.23101 0.0811,0.50701 -0.0253,0.61334 -0.10633,0.10634 -0.18198,-0.0827 -0.16809,-0.42 z m -769.279959,-0.96 c 0.01536,-0.3728 0.09118,-0.4486 0.193332,-0.19334 0.09244,0.23101 0.08107,0.50701 -0.02525,0.61334 -0.106336,0.10634 -0.181965,-0.0827 -0.168071,-0.42 z m 769.599959,-0.96 c 0.0154,-0.3728 0.0912,-0.4486 0.19334,-0.19334 0.0924,0.23101 0.0811,0.50701 -0.0253,0.61334 -0.10633,0.10634 -0.18198,-0.0827 -0.16809,-0.42 z m -769.919959,-1.28 c 0.01536,-0.3728 0.09118,-0.4486 0.193332,-0.19334 0.09244,0.23101 0.08107,0.50701 -0.02525,0.61334 -0.106336,0.10634 -0.181965,-0.0827 -0.168071,-0.42 z M 842.6105,714.88 c 0,-0.44 0.0726,-0.62 0.16141,-0.4 0.0888,0.22 0.0888,0.58 0,0.8 -0.0888,0.22 -0.16141,0.04 -0.16141,-0.4 z M 72.062381,713.12 c 0.0065,-0.528 0.07824,-0.70525 0.159373,-0.39392 0.08113,0.31136 0.0758,0.74336 -0.01187,0.96 -0.08766,0.21667 -0.154038,-0.0381 -0.147517,-0.56608 z m 770.879959,-0.96 c 0.006,-0.528 0.0782,-0.70525 0.15939,-0.39392 0.0811,0.31136 0.0758,0.74336 -0.0118,0.96 -0.0876,0.21667 -0.15402,-0.0381 -0.14752,-0.56608 z m -730.91708,-1.30666 c 0.0154,-0.3728 0.0912,-0.4486 0.19333,-0.19334 0.0924,0.23101 0.0811,0.50701 -0.0252,0.61334 -0.10633,0.10634 -0.18196,-0.0827 -0.16807,-0.42 z m -67.199998,-0.32 c 0.01536,-0.3728 0.09118,-0.4486 0.193332,-0.19334 0.09244,0.23101 0.08107,0.50701 -0.02525,0.61334 -0.106336,0.10634 -0.181965,-0.0827 -0.168071,-0.42 z m 758.079958,-0.32 c 0.0154,-0.3728 0.0912,-0.4486 0.19334,-0.19334 0.0924,0.23101 0.0811,0.50701 -0.0253,0.61334 -0.10633,0.10634 -0.18198,-0.0827 -0.16809,-0.42 z M 71.771521,708.96 c 0.0026,-0.88 0.06455,-1.20202 0.138102,-0.71562 0.07355,0.48644 0.07159,1.20644 -0.0044,1.6 -0.07595,0.3936 -0.136134,-0.004 -0.133734,-0.88438 z M 0.37052629,708.8 c 0,-0.44 0.0726316,-0.62 0.16140352,-0.4 0.0887719,0.22 0.0887719,0.58 0,0.8 -0.0887719,0.22 -0.16140352,0.04 -0.16140352,-0.4 z M 843.29149,708 c 0.003,-0.88 0.0645,-1.20202 0.13811,-0.71562 0.0735,0.48644 0.0716,1.20644 -0.004,1.6 -0.0759,0.3936 -0.13613,-0.004 -0.13373,-0.88438 z m -798.146228,0.61334 c 0.01536,-0.3728 0.09118,-0.4486 0.193332,-0.19334 0.09244,0.23101 0.08107,0.50701 -0.02525,0.61334 -0.106336,0.10634 -0.181965,-0.0827 -0.168071,-0.42 z M 111.74238,708.32 c 0.007,-0.528 0.0782,-0.70525 0.15937,-0.39392 0.0811,0.31136 0.0758,0.74336 -0.0119,0.96 -0.0877,0.21667 -0.15404,-0.0381 -0.14752,-0.56608 z m 691.51996,-0.64 c 0.006,-0.528 0.0782,-0.70525 0.15939,-0.39392 0.0811,0.31136 0.0758,0.74336 -0.0118,0.96 -0.0877,0.21667 -0.15401,-0.0381 -0.14752,-0.56608 z M 45.599362,386.72 c 0,-176 0.03628,-248.04789 0.08064,-160.10643 0.04435,87.94147 0.04435,231.94147 0,320 C 45.63565,634.6721 45.599362,562.72 45.599362,386.72 Z m 65.906768,304.96 c -8e-5,-7.216 0.042,-10.21363 0.0934,-6.66144 0.0515,3.55222 0.0515,9.45622 1.6e-4,13.12 -0.0514,3.66381 -0.0935,0.75744 -0.0936,-6.45856 z M 0.15933866,386.24 c 0,-169.4 0.0362973,-238.7 0.0806606,-154 0.0443633,84.7 0.0443633,223.3 0,308 -0.0443633,84.7 -0.0806606,15.4 -0.0806606,-154 z M 803.67821,565.44 c 0,-62.92 0.0368,-88.66 0.0818,-57.2 0.045,31.46 0.045,82.94 0,114.4 -0.045,31.46 -0.0818,5.72 -0.0818,-57.2 z m -330.93909,29.20064 c 2.43053,-0.0544 6.31853,-0.0543 8.64,3.2e-4 2.32147,0.0546 0.33286,0.0991 -4.41914,0.099 -4.752,-2e-4 -6.65139,-0.0449 -4.22086,-0.0993 z m 200.62086,0.0102 c 0.484,-0.0733 1.276,-0.0733 1.76,0 0.484,0.0733 0.088,0.13331 -0.88,0.13331 -0.968,0 -1.364,-0.06 -0.88,-0.13331 z m -207.18,-0.30938 c 0.23101,-0.0924 0.50701,-0.0811 0.61335,0.0253 0.10633,0.10634 -0.0827,0.18199 -0.42,0.1681 -0.3728,-0.0154 -0.44861,-0.0912 -0.19335,-0.19334 z m 211.2,0 c 0.231,-0.0924 0.507,-0.0811 0.61334,0.0253 0.10634,0.10634 -0.0827,0.18199 -0.42,0.1681 -0.3728,-0.0154 -0.44861,-0.0912 -0.19334,-0.19334 z m -220.11721,-3.8614 -1.10279,-1.2 1.2,1.10278 c 1.11693,1.02643 1.34714,1.29722 1.10279,1.29722 -0.0535,0 -0.59347,-0.54 -1.2,-1.2 z M 686.71998,590.24 c 0.41334,-0.44 0.82355,-0.8 0.91155,-0.8 0.088,0 -0.17821,0.36 -0.59155,0.8 -0.41335,0.44 -0.82356,0.8 -0.91156,0.8 -0.088,0 0.17821,-0.36 0.59156,-0.8 z m -232.58947,-6.56 c 0,-0.44 0.0726,-0.62 0.16141,-0.4 0.0888,0.22 0.0888,0.58 0,0.8 -0.0888,0.22 -0.16141,0.04 -0.16141,-0.4 z m 235.89916,-2.4 c 0,-1.408 0.0574,-1.94419 0.12503,-1.19155 0.0676,0.75267 0.0666,1.90467 -0.003,2.56 -0.0688,0.65536 -0.12407,0.0395 -0.12292,-1.36845 z m -235.92444,-2.58666 c 0.0154,-0.3728 0.0912,-0.4486 0.19335,-0.19334 0.0924,0.23101 0.0811,0.50701 -0.0253,0.61334 -0.10634,0.10634 -0.18199,-0.0827 -0.1681,-0.42 z M 457.27998,572 c 0.59706,-0.616 1.15754,-1.12 1.24554,-1.12 0.088,0 -0.32848,0.504 -0.92554,1.12 -0.59705,0.616 -1.15753,1.12 -1.24553,1.12 -0.088,0 0.32848,-0.504 0.92553,-1.12 z m 229.25987,0.08 -0.93987,-1.04 1.04,0.93987 c 0.572,0.51693 1.04,0.98493 1.04,1.04 0,0.24723 -0.26404,0.0294 -1.14013,-0.93987 z m -221.31987,-3.97859 c 0.23101,-0.0924 0.50701,-0.0811 0.61335,0.0253 0.10633,0.10633 -0.0827,0.18198 -0.42,0.16809 -0.3728,-0.0154 -0.44861,-0.0912 -0.19335,-0.19334 z m 213.12,0 c 0.231,-0.0924 0.507,-0.0811 0.61334,0.0253 0.10634,0.10633 -0.0827,0.18198 -0.42,0.16809 -0.3728,-0.0154 -0.44861,-0.0912 -0.19334,-0.19334 z m -211.22,-0.31335 c 0.22,-0.0888 0.58,-0.0888 0.8,0 0.22,0.0888 0.04,0.16141 -0.4,0.16141 -0.44,0 -0.62,-0.0726 -0.4,-0.16141 z m 208.96,0 c 0.22,-0.0888 0.58,-0.0888 0.8,0 0.22,0.0888 0.04,0.16141 -0.4,0.16141 -0.44,0 -0.62,-0.0726 -0.4,-0.16141 z M 520.69406,567.44 c 27.74976,-0.0451 73.25376,-0.0451 101.12,0 27.86627,0.0451 5.16192,0.082 -50.45408,0.082 -55.616,0 -78.41565,-0.0369 -50.66592,-0.082 z M 315.13999,538.66141 c 0.231,-0.0925 0.507,-0.0811 0.61333,0.0253 0.10634,0.10633 -0.0827,0.18198 -0.42,0.16809 -0.37278,-0.0154 -0.4486,-0.0912 -0.19333,-0.19334 z m 4.46,0.007 c 0.22,-0.0888 0.58,-0.0888 0.8,0 0.22,0.0888 0.04,0.16141 -0.4,0.16141 -0.44,0 -0.62,-0.0726 -0.4,-0.16141 z m 10,-4.36819 c 0,-0.0551 0.468,-0.52308 1.04,-1.04 l 1.04,-0.93988 -0.93987,1.04 c -0.8761,0.96944 -1.14013,1.18711 -1.14013,0.93988 z m -28.48,-3.25994 c -0.77729,-0.792 -1.34126,-1.44 -1.25326,-1.44 0.088,0 0.79597,0.648 1.57326,1.44 0.77729,0.792 1.34125,1.44 1.25325,1.44 -0.088,0 -0.79596,-0.648 -1.57325,-1.44 z m 32,-0.32 c 0.41334,-0.44 0.82355,-0.8 0.91155,-0.8 0.088,0 -0.17821,0.36 -0.59155,0.8 -0.41335,0.44 -0.82355,0.8 -0.91155,0.8 -0.088,0 0.1782,-0.36 0.59155,-0.8 z m 141.17951,-4.55936 c 2.93674,-0.0528 7.83274,-0.0529 10.88,-2.2e-4 3.04727,0.0526 0.64448,0.0958 -5.33952,0.0959 -5.984,1.3e-4 -8.47721,-0.0429 -5.54048,-0.0957 z M 290.71624,520.88 l -5.11625,-5.2 5.2,5.11626 c 4.83093,4.75312 5.34474,5.28374 5.11625,5.28374 -0.0461,0 -2.38606,-2.34 -5.2,-5.2 z m 175.46374,4.98141 c 0.23101,-0.0924 0.50701,-0.0811 0.61335,0.0253 0.10633,0.10633 -0.0827,0.18198 -0.42,0.16809 -0.3728,-0.0154 -0.44861,-0.0912 -0.19335,-0.19334 z m 210.70608,-0.003 c 0.31136,-0.0811 0.74336,-0.0758 0.96,0.0118 0.21667,0.0877 -0.0381,0.15401 -0.56608,0.14752 -0.528,-0.006 -0.70525,-0.0782 -0.39392,-0.15939 z m -219.1462,-3.69824 -0.93988,-1.04 1.04,0.93987 c 0.572,0.51693 1.04,0.98493 1.04,1.04 0,0.24723 -0.26403,0.0294 -1.14012,-0.93987 z m 227.38012,0.9399 c 0,-0.0551 0.468,-0.52307 1.04,-1.04 l 1.04,-0.93987 -0.93988,1.04 c -0.87609,0.96944 -1.14012,1.1871 -1.14012,0.93987 z m -347.17474,-1.68653 c 0.0154,-0.3728 0.0912,-0.4486 0.19334,-0.19334 0.0924,0.23101 0.0811,0.50701 -0.0253,0.61334 -0.10634,0.10634 -0.18198,-0.0827 -0.1681,-0.42 z m 0.34528,-2.69334 c 0,-0.44 0.0726,-0.62 0.1614,-0.4 0.0888,0.22 0.0888,0.58 0,0.8 -0.0888,0.22 -0.1614,0.04 -0.1614,-0.4 z m -0.34528,-3.06666 c 0.0154,-0.3728 0.0912,-0.4486 0.19334,-0.19334 0.0924,0.23101 0.0811,0.50701 -0.0253,0.61334 -0.10634,0.10634 -0.18198,-0.0827 -0.1681,-0.42 z m 116.15999,-0.96 c 0.0154,-0.3728 0.0912,-0.4486 0.19335,-0.19334 0.0924,0.23101 0.0811,0.50701 -0.0253,0.61334 -0.10634,0.10634 -0.18199,-0.0827 -0.1681,-0.42 z M 690.02241,512 c 0,-1.144 0.0581,-1.612 0.12905,-1.04 0.071,0.572 0.071,1.508 0,2.08 -0.071,0.572 -0.12905,0.104 -0.12905,-1.04 z m -236.20006,-0.16 c 0.006,-0.528 0.0782,-0.70525 0.15939,-0.39392 0.0811,0.31136 0.0758,0.74336 -0.0118,0.96 -0.0876,0.21667 -0.15401,-0.0381 -0.14752,-0.56608 z m -177.18611,-4.72 -5.11625,-5.2 5.2,5.11626 c 4.83093,4.75312 5.34474,5.28374 5.11625,5.28374 -0.0461,0 -2.38606,-2.34 -5.2,-5.2 z m 56.12292,-1.76 c -0.39802,-0.50755 -0.38672,-0.51885 0.12083,-0.12083 0.308,0.24157 0.56,0.49357 0.56,0.56 0,0.26339 -0.26279,0.0938 -0.68083,-0.43917 z m -13.40069,-13.76 -12.63848,-12.72 12.72,12.6385 c 6.996,6.95113 12.72,12.67513 12.72,12.72 0,0.22534 -1.05485,-0.81607 -12.80152,-12.6385 z m 137.92151,11.6 c 0.41335,-0.44 0.82356,-0.8 0.91156,-0.8 0.088,0 -0.17821,0.36 -0.59156,0.8 -0.41334,0.44 -0.82355,0.8 -0.91155,0.8 -0.088,0 0.17821,-0.36 0.59155,-0.8 z m 229.09577,-0.08 -0.77577,-0.88 0.88,0.77578 c 0.82249,0.72508 1.02675,0.98422 0.77577,0.98422 -0.0573,0 -0.45331,-0.396 -0.88,-0.88 z m -220.19577,-4.13859 c 0.23101,-0.0924 0.50701,-0.0811 0.61335,0.0253 0.10633,0.10633 -0.0827,0.18198 -0.42,0.16809 -0.3728,-0.0154 -0.44861,-0.0912 -0.19335,-0.19334 z m 211.52,0 c 0.231,-0.0924 0.507,-0.0811 0.61334,0.0253 0.10634,0.10633 -0.0827,0.18198 -0.42,0.16809 -0.3728,-0.0154 -0.44861,-0.0912 -0.19334,-0.19334 z m -208.17033,-0.33703 c 0.84131,-0.0661 2.13731,-0.0653 2.88,0.003 0.74269,0.0671 0.0543,0.12122 -1.52967,0.12023 -1.584,0 -2.19164,-0.0559 -1.35033,-0.12202 z m 205.27407,0.009 c 0.39805,-0.0765 0.97405,-0.0736 1.28,0.006 0.30592,0.0801 -0.0198,0.14272 -0.72374,0.13917 -0.704,-0.004 -0.95434,-0.0691 -0.55626,-0.14563 z m -412.0876,-5.13366 -4.95613,-5.04 5.04,4.95613 c 2.772,2.72585 5.04,4.99385 5.04,5.04 0,0.22864 -0.51959,-0.27392 -5.12387,-4.95613 z m -13.59613,-13.2 c -2.6356,-2.64 -4.72,-4.8 -4.632,-4.8 0.088,0 2.3164,2.16 4.952,4.8 2.6356,2.64 4.72,4.8 4.632,4.8 -0.088,0 -2.3164,-2.16 -4.952,-4.8 z m 51.83333,-6.8 -2.87333,-2.96 2.96,2.87334 c 1.628,1.58032 2.96,2.91232 2.96,2.96 0,0.23232 -0.37799,-0.12416 -3.04667,-2.87334 z m -64.95333,-6 c -2.6356,-2.64 -4.72,-4.8 -4.632,-4.8 0.088,0 2.3164,2.16 4.952,4.8 2.6356,2.64 4.72,4.8 4.632,4.8 -0.088,0 -2.3164,-2.16 -4.952,-4.8 z m 56.95333,-1.68 -2.87333,-2.96 2.96,2.87334 c 2.74918,2.66868 3.10566,3.04666 2.87333,3.04666 -0.0477,0 -1.37967,-1.332 -2.96,-2.96 z m -7.8404,-7.52 -2.71293,-2.8 2.8,2.71293 c 2.60056,2.51971 2.94577,2.88707 2.71293,2.88707 -0.0479,0 -1.30788,-1.26 -2.8,-2.8 z m -61.75707,-3.2 -4.63586,-4.72 4.72,4.63587 c 4.38475,4.30659 4.86488,4.80413 4.63586,4.80413 -0.0463,0 -2.17027,-2.124 -4.72,-4.72 z m 246.80413,2.56352 c 1.012,-0.0635 2.668,-0.0635 3.68,0 1.012,0.0635 0.184,0.11546 -1.84,0.11546 -2.024,0 -2.852,-0.0519 -1.84,-0.11546 z m 83.38573,-0.004 c 22.41017,-0.0453 58.98617,-0.0453 81.28,0 22.29385,0.0454 3.95827,0.0825 -40.74573,0.0825 -44.704,0 -62.94441,-0.0371 -40.53427,-0.0825 z m -87.36573,-0.29859 c 0.23101,-0.0925 0.50701,-0.0811 0.61335,0.0253 0.10633,0.10633 -0.0827,0.18198 -0.42,0.16809 -0.3728,-0.0154 -0.44861,-0.0912 -0.19335,-0.19334 z m 210.86,0.007 c 0.22,-0.0888 0.58,-0.0888 0.8,0 0.22,0.0888 0.04,0.16141 -0.4,0.16141 -0.44,0 -0.62,-0.0726 -0.4,-0.16141 z m 1.94,-0.32666 c 0.231,-0.0924 0.507,-0.0811 0.61334,0.0253 0.10634,0.10634 -0.0827,0.18199 -0.42,0.1681 -0.3728,-0.0154 -0.44861,-0.0912 -0.19334,-0.19335 z m 7.42,-3.78147 c 0.41334,-0.44 0.82355,-0.8 0.91155,-0.8 0.088,0 -0.17821,0.36 -0.59155,0.8 -0.41335,0.44 -0.82356,0.8 -0.91156,0.8 -0.088,0 0.17821,-0.36 0.59156,-0.8 z m -408.96706,-2.32 -2.71293,-2.8 2.8,2.71293 c 2.60056,2.51971 2.94577,2.88707 2.71293,2.88707 -0.0479,0 -1.30788,-1.26 -2.8,-2.8 z m -66.23737,-7.68 -4.31556,-4.4 4.4,4.31555 c 2.42,2.37357 4.4,4.35357 4.4,4.4 0,0.22944 -0.47557,-0.22822 -4.48444,-4.31555 z m 478.42967,3.57334 c 0.0154,-0.3728 0.0912,-0.4486 0.19335,-0.19334 0.0924,0.23101 0.0811,0.50701 -0.0253,0.61334 -0.10634,0.10634 -0.18199,-0.0827 -0.1681,-0.42 z M 270.23248,444.08 l -2.55249,-2.64 2.64,2.55248 c 2.45195,2.37069 2.78589,2.72752 2.55249,2.72752 -0.0481,0 -1.23612,-1.188 -2.64,-2.64 z m 183.90987,1.84 c 0.006,-0.528 0.0782,-0.70525 0.15939,-0.39392 0.0811,0.31136 0.0758,0.74336 -0.0118,0.96 -0.0876,0.21667 -0.15401,-0.0381 -0.14752,-0.56608 z m 235.87353,-2.4 c 0,-0.968 0.06,-1.364 0.13331,-0.88 0.0733,0.484 0.0733,1.276 0,1.76 -0.0733,0.484 -0.13331,0.088 -0.13331,-0.88 z m -235.87353,-1.76 c 0.006,-0.528 0.0782,-0.70525 0.15939,-0.39392 0.0811,0.31136 0.0758,0.74336 -0.0118,0.96 -0.0876,0.21667 -0.15401,-0.0381 -0.14752,-0.56608 z m -191.26987,-4.72 -2.55249,-2.64 2.64,2.55248 c 2.45195,2.37069 2.78589,2.72752 2.55249,2.72752 -0.0481,0 -1.23612,-1.188 -2.64,-2.64 z m -63.3571,-5.12 -4.15539,-4.24 4.24,4.15539 c 3.93861,3.86 4.38504,4.32461 4.15539,4.32461 -0.0465,0 -1.95454,-1.908 -4.24,-4.24 z m 258.0846,2.16 c 0.59706,-0.616 1.15754,-1.12 1.24554,-1.12 0.088,0 -0.32848,0.504 -0.92554,1.12 -0.59705,0.616 -1.15753,1.12 -1.24553,1.12 -0.088,0 0.32848,-0.504 0.92553,-1.12 z m 228.77577,-0.08 -0.77577,-0.88 0.88,0.77578 c 0.484,0.42668 0.88,0.82268 0.88,0.88 0,0.25097 -0.25914,0.0467 -0.98423,-0.77578 z m -430.70282,-3.84 -2.71294,-2.8 2.8,2.71293 c 2.60056,2.51971 2.94577,2.88707 2.71294,2.88707 -0.0479,0 -1.30789,-1.26 -2.8,-2.8 z m 422.66705,0.0214 c 0.231,-0.0924 0.507,-0.0811 0.61334,0.0253 0.10634,0.10634 -0.0827,0.18198 -0.42,0.1681 -0.3728,-0.0154 -0.44861,-0.0912 -0.19334,-0.19335 z m -211.2,-0.32 c 0.23101,-0.0925 0.50701,-0.0811 0.61335,0.0253 0.10633,0.10634 -0.0827,0.18198 -0.42,0.1681 -0.3728,-0.0154 -0.44861,-0.0912 -0.19335,-0.19335 z m 208.78608,-0.003 c 0.31136,-0.0811 0.74336,-0.0758 0.96,0.0118 0.21667,0.0877 -0.0381,0.15402 -0.56608,0.14752 -0.528,-0.006 -0.70525,-0.0782 -0.39392,-0.15939 z m -427.45358,-6.5784 -2.55249,-2.64 2.64,2.55248 c 2.45195,2.37069 2.78589,2.72752 2.55249,2.72752 -0.0481,0 -1.23612,-1.188 -2.64,-2.64 z m -59.51794,-1.6 -3.51455,-3.6 3.6,3.51453 c 1.98,1.93302 3.6,3.55302 3.6,3.6 0,0.23078 -0.42101,-0.17072 -3.68545,-3.51453 z m 52.31839,-5.28 -2.71294,-2.8 2.8,2.71293 c 2.60056,2.51971 2.94577,2.88707 2.71294,2.88707 -0.0479,0 -1.30789,-1.26 -2.8,-2.8 z m -58.40799,-0.48 -1.26495,-1.36 1.36,1.26493 c 1.26479,1.17638 1.50705,1.45507 1.26495,1.45507 -0.0523,0 -0.66428,-0.612 -1.36,-1.36 z m -3.20508,-2.88 -0.93987,-1.04 1.04,0.93987 c 0.96943,0.8761 1.18709,1.14013 0.93987,1.14013 -0.0551,0 -0.52307,-0.468 -1.04,-1.04 z m 54.73155,-3.2 -2.23142,-2.32 2.32,2.23142 c 2.15482,2.07255 2.46614,2.40858 2.23142,2.40858 -0.0487,0 -1.09272,-1.044 -2.32,-2.32 z m -57.13564,1.12 -0.77578,-0.88 0.88,0.77578 c 0.484,0.42668 0.88,0.82268 0.88,0.88 0,0.25097 -0.25913,0.0467 -0.98422,-0.77578 z m -2.40618,-2.08 -0.6096,-0.72 0.72,0.6096 c 0.396,0.33526 0.72,0.65926 0.72,0.72 0,0.25606 -0.25753,0.067 -0.8304,-0.6096 z m -2.24,-1.92 -0.6096,-0.72 0.72,0.6096 c 0.67662,0.57286 0.86568,0.8304 0.6096,0.8304 -0.0607,0 -0.38472,-0.324 -0.72,-0.72 z m 60.75649,0.49824 c 0.31135,-0.0811 0.74335,-0.0758 0.96,0.0118 0.21665,0.0876 -0.0381,0.15402 -0.56609,0.14752 -0.528,-0.006 -0.70526,-0.0782 -0.39391,-0.15939 z m 2.71391,-0.31018 c 0.22,-0.0888 0.58,-0.0888 0.8,0 0.22,0.0888 0.04,0.16141 -0.4,0.16141 -0.44,0 -0.62,-0.0726 -0.4,-0.16141 z m 2.56,-0.32 c 0.22,-0.0888 0.58,-0.0888 0.8,0 0.22,0.0888 0.04,0.16141 -0.4,0.16141 -0.44,0 -0.62,-0.0726 -0.4,-0.16141 z m 2.58,-0.32665 c 0.231,-0.0925 0.507,-0.0811 0.61334,0.0253 0.10633,0.10633 -0.0827,0.18198 -0.42,0.16809 -0.37279,-0.0154 -0.44861,-0.0912 -0.19334,-0.19334 z m 1.9,-0.31335 c 0.22,-0.0888 0.58,-0.0888 0.8,0 0.22,0.0888 0.04,0.16141 -0.4,0.16141 -0.44,0 -0.62,-0.0726 -0.4,-0.16141 z m 2.26,-0.32665 c 0.231,-0.0924 0.507,-0.0811 0.61334,0.0253 0.10633,0.10633 -0.0827,0.18198 -0.42,0.16809 -0.37279,-0.0154 -0.44861,-0.0912 -0.19334,-0.19334 z M 170.21577,404.88 169.43999,404 l 0.88,0.77578 c 0.484,0.42668 0.88,0.82268 0.88,0.88 0,0.25097 -0.25913,0.0467 -0.98422,-0.77578 z m 76.76422,0.66141 c 0.231,-0.0924 0.507,-0.0811 0.61334,0.0253 0.10633,0.10633 -0.0827,0.18198 -0.42,0.16809 -0.37279,-0.0154 -0.44861,-0.0912 -0.19334,-0.19334 z m 4.8,-0.96 c 0.231,-0.0924 0.507,-0.0811 0.61334,0.0253 0.10633,0.10633 -0.0827,0.18198 -0.42,0.16809 -0.37279,-0.0154 -0.44861,-0.0912 -0.19334,-0.19334 z m -83.80422,-1.62141 -0.77578,-0.88 0.88,0.77578 c 0.484,0.42668 0.88,0.82268 0.88,0.88 0,0.25097 -0.25913,0.0467 -0.98422,-0.77578 z m -3.17578,-2.8 c -0.77729,-0.792 -1.34125,-1.44 -1.25325,-1.44 0.088,0 0.79596,0.648 1.57325,1.44 0.77729,0.792 1.34126,1.44 1.25326,1.44 -0.088,0 -0.79597,-0.648 -1.57326,-1.44 z m -3.69315,-4.98128 c -0.11601,-0.18771 -0.1423,-0.40992 -0.0584,-0.49382 0.0839,-0.0839 0.23778,0.0697 0.342,0.34131 0.21638,0.56387 0.032,0.66304 -0.28358,0.15251 z m -1.40158,-4.00538 c 0.0154,-0.3728 0.0912,-0.4486 0.19333,-0.19334 0.0924,0.23101 0.0811,0.50701 -0.0252,0.61334 -0.10633,0.10634 -0.18196,-0.0827 -0.16807,-0.42 z M 159.42238,388.96 c 0.007,-0.528 0.0782,-0.70525 0.15937,-0.39392 0.0811,0.31136 0.0758,0.74336 -0.0119,0.96 -0.0877,0.21667 -0.15404,-0.0381 -0.14752,-0.56608 z m 132.09761,-1.88083 c 0,-0.0664 0.252,-0.31843 0.56,-0.56 0.50754,-0.39802 0.51886,-0.38672 0.12082,0.12083 -0.41804,0.53302 -0.68082,0.70256 -0.68082,0.43917 z M 159.42238,385.12 c 0.007,-0.528 0.0782,-0.70525 0.15937,-0.39392 0.0811,0.31136 0.0758,0.74336 -0.0119,0.96 -0.0877,0.21667 -0.15404,-0.0381 -0.14752,-0.56608 z m 134.17761,0.16 c 0.31856,-0.352 0.65119,-0.64 0.73919,-0.64 0.088,0 -0.10063,0.288 -0.41919,0.64 -0.31856,0.352 -0.65119,0.64 -0.73919,0.64 -0.088,0 0.10063,-0.288 0.41919,-0.64 z m 2.88,-2.56 c 0.68744,-0.704 1.32189,-1.28 1.40989,-1.28 0.088,0 -0.40245,0.576 -1.08989,1.28 -0.68744,0.704 -1.32189,1.28 -1.40989,1.28 -0.088,0 0.40245,-0.576 1.08989,-1.28 z m -136.77473,0.13334 c 0.0154,-0.3728 0.0912,-0.4486 0.19333,-0.19334 0.0924,0.23101 0.0811,0.50701 -0.0252,0.61334 -0.10633,0.10634 -0.18196,-0.0827 -0.16807,-0.42 z M 300.95999,378.24 c 0.68744,-0.704 1.32189,-1.28 1.40989,-1.28 0.088,0 -0.40245,0.576 -1.08989,1.28 -0.68744,0.704 -1.32189,1.28 -1.40989,1.28 -0.088,0 0.40245,-0.576 1.08989,-1.28 z m 2.56,-2.88 c 0.31856,-0.352 0.65119,-0.64 0.73919,-0.64 0.088,0 -0.10063,0.288 -0.41919,0.64 -0.31856,0.352 -0.65119,0.64 -0.73919,0.64 -0.088,0 0.10063,-0.288 0.41919,-0.64 z m -140.32,-1.08083 c 0,-0.0664 0.252,-0.31843 0.56,-0.56 0.50754,-0.39802 0.51886,-0.38672 0.12082,0.12083 -0.41804,0.53302 -0.68082,0.70256 -0.68082,0.43917 z m 141.44,-0.32 c 0,-0.0664 0.252,-0.31843 0.56,-0.56 0.50754,-0.39802 0.51886,-0.38672 0.12082,0.12083 -0.41804,0.53302 -0.68082,0.70256 -0.68082,0.43917 z m -140.16,-1.2593 c 0,-0.0551 0.468,-0.52307 1.04,-1.04 l 1.04,-0.93987 -0.93986,1.04 c -0.87609,0.96944 -1.14014,1.1871 -1.14014,0.93987 z m 9.86,-5.55846 c 0.231,-0.0924 0.50701,-0.0811 0.61334,0.0253 0.10633,0.10633 -0.0827,0.18198 -0.42,0.16809 -0.37279,-0.0154 -0.44861,-0.0912 -0.19334,-0.19334 z m 2.06609,-0.32317 c 0.31135,-0.0811 0.74335,-0.0758 0.96,0.0118 0.21665,0.0876 -0.0381,0.15402 -0.56609,0.14752 -0.528,-0.006 -0.70526,-0.0782 -0.39391,-0.15939 z m 31.51391,-0.33805 c 4.972,-0.0496 13.108,-0.0496 18.08,0 4.972,0.0496 0.904,0.0902 -9.04,0.0902 -9.944,0 -14.012,-0.0406 -9.04,-0.0902 z m 29.92609,-0.30195 c 0.31135,-0.0811 0.74335,-0.0758 0.96,0.0118 0.21665,0.0876 -0.0381,0.15402 -0.56609,0.14752 -0.528,-0.006 -0.70526,-0.0782 -0.39391,-0.15939 z m 3.05391,-0.31683 c 0.231,-0.0924 0.507,-0.0811 0.61334,0.0253 0.10633,0.10633 -0.0827,0.18198 -0.42,0.16809 -0.37279,-0.0154 -0.44861,-0.0912 -0.19334,-0.19334 z m 23.1,-9.18224 c 0,-0.0664 0.252,-0.31843 0.56,-0.56 0.50754,-0.39802 0.51886,-0.38672 0.12082,0.12083 -0.41804,0.53302 -0.68082,0.70256 -0.68082,0.43917 z m 2.24,-1.95917 c 0.41336,-0.44 0.82356,-0.8 0.91156,-0.8 0.088,0 -0.1782,0.36 -0.59156,0.8 -0.41336,0.44 -0.82356,0.8 -0.91156,0.8 -0.088,0 0.1782,-0.36 0.59156,-0.8 z m 4.8,-4.8 c 0.41336,-0.44 0.82356,-0.8 0.91156,-0.8 0.088,0 -0.1782,0.36 -0.59156,0.8 -0.41336,0.44 -0.82356,0.8 -0.91156,0.8 -0.088,0 0.1782,-0.36 0.59156,-0.8 z m 1.6,-1.88083 c 0,-0.0664 0.252,-0.31843 0.56,-0.56 0.50754,-0.39802 0.51886,-0.38672 0.12082,0.12083 -0.41804,0.53302 -0.68082,0.70256 -0.68082,0.43917 z m 0.96,-1.28 c 0,-0.0664 0.252,-0.31843 0.56,-0.56 0.50754,-0.39802 0.51886,-0.38672 0.12082,0.12083 -0.41804,0.53302 -0.68082,0.70256 -0.68082,0.43917 z m 48.32,-3.87917 c 0.41334,-0.44 0.82355,-0.8 0.91155,-0.8 0.088,0 -0.17821,0.36 -0.59155,0.8 -0.41335,0.44 -0.82355,0.8 -0.91155,0.8 -0.088,0 0.1782,-0.36 0.59155,-0.8 z m -106.9838,-2.31987 c 6.89491,-0.0481 18.27091,-0.0482 25.28,-3e-5 7.00909,0.0481 1.3678,0.0875 -12.5362,0.0875 -13.904,0 -19.63871,-0.0394 -12.7438,-0.0875 z m 112.0438,0.0214 c 0.23101,-0.0924 0.50701,-0.0811 0.61334,0.0253 0.10634,0.10633 -0.0827,0.18198 -0.42,0.16809 -0.3728,-0.0154 -0.44861,-0.0912 -0.19334,-0.19334 z m 11.96598,-0.0186 c 1.18032,-0.0614 3.19632,-0.0618 4.48,0 1.28371,0.0609 0.31802,0.11113 -2.14598,0.11161 -2.464,0 -3.51431,-0.0493 -2.33402,-0.11072 z m 26.74247,0.003 c 0.75267,-0.0676 1.90467,-0.0667 2.55999,0.003 0.65536,0.0688 0.0396,0.12406 -1.36844,0.12291 -1.408,0 -1.94419,-0.0574 -1.19155,-0.12502 z m -183.84845,-0.30679 c 0.308,-0.0805 0.812,-0.0805 1.12,0 0.308,0.0805 0.056,0.14634 -0.56,0.14634 -0.616,0 -0.868,-0.0659 -0.56,-0.14634 z m 191.2,-0.005 c 0.396,-0.0763 1.044,-0.0763 1.44,0 0.396,0.0763 0.072,0.13866 -0.72,0.13866 -0.792,0 -1.116,-0.0624 -0.72,-0.13866 z m -193.9,-0.31276 c 0.231,-0.0924 0.50701,-0.0811 0.61334,0.0253 0.10633,0.10633 -0.0827,0.18198 -0.42,0.16809 -0.37279,-0.0154 -0.44861,-0.0912 -0.19334,-0.19334 z m 198.06,0.007 c 0.22,-0.0888 0.58,-0.0888 0.8,0 0.22,0.0888 0.04,0.1614 -0.4,0.1614 -0.44,0 -0.62,-0.0726 -0.4,-0.1614 z m -199.98,-0.32666 c 0.231,-0.0924 0.50701,-0.0811 0.61334,0.0253 0.10633,0.10634 -0.0827,0.18198 -0.42,0.1681 -0.37279,-0.0154 -0.44861,-0.0912 -0.19334,-0.19335 z m 211.74,-4.9016 c 0.68742,-0.704 1.32188,-1.28 1.40988,-1.28 0.088,0 -0.40246,0.576 -1.08988,1.28 -0.68743,0.704 -1.32189,1.28 -1.40989,1.28 -0.088,0 0.40246,-0.576 1.08989,-1.28 z m -224.52082,-1.2 c -0.39803,-0.50755 -0.38672,-0.51885 0.12082,-0.12083 0.53304,0.41805 0.70256,0.68083 0.43918,0.68083 -0.0664,0 -0.31844,-0.252 -0.56,-0.56 z m 373.40081,0.34806 c 0.22,-0.0888 0.58,-0.0888 0.8,0 0.22,0.0888 0.04,0.16141 -0.4,0.16141 -0.44,0 -0.62,-0.0726 -0.4,-0.16141 z m 3.2,0 c 0.22,-0.0888 0.58,-0.0888 0.8,0 0.22,0.0888 0.04,0.16141 -0.4,0.16141 -0.44,0 -0.62,-0.0726 -0.4,-0.16141 z M 163.15918,331.92 c -0.39804,-0.50755 -0.38672,-0.51885 0.12081,-0.12083 0.308,0.24157 0.56,0.49357 0.56,0.56 0,0.26339 -0.26278,0.0938 -0.68081,-0.43917 z m 385.6408,-1.16083 c 0,-0.0664 0.252,-0.31843 0.56,-0.56 0.50755,-0.39802 0.51885,-0.38672 0.12083,0.12083 -0.41805,0.53302 -0.68083,0.70256 -0.68083,0.43917 z m -20.34013,-2.19917 -0.93987,-1.04 1.04,0.93987 c 0.572,0.51693 1.04,0.98493 1.04,1.04 0,0.24723 -0.26403,0.0294 -1.14013,-0.93987 z m 21.94013,0.93987 c 0,-0.0551 0.468,-0.52307 1.04,-1.04 l 1.04,-0.93987 -0.93987,1.04 c -0.8761,0.96944 -1.14013,1.1871 -1.14013,0.93987 z M 554.8666,325.36 c 1.32608,-1.41286 1.61338,-1.66691 1.61338,-1.42662 0,0.0514 -0.684,0.73536 -1.52,1.52 l -1.52,1.42662 z m -30.39756,-1.12 -1.74906,-1.84 1.84,1.74906 c 1.012,0.96201 1.84,1.79001 1.84,1.84 0,0.23753 -0.30598,-0.0396 -1.93094,-1.74906 z m -130.49853,0.24 c 0,-0.44 0.0726,-0.62 0.16141,-0.4 0.0888,0.22 0.0888,0.58 0,0.8 -0.0888,0.22 -0.16141,0.04 -0.16141,-0.4 z m -233.86082,-3.04 c 0.001,-1.408 0.0574,-1.9442 0.12502,-1.19155 0.0676,0.75267 0.0666,1.90467 -0.002,2.56 -0.0687,0.65536 -0.12406,0.0396 -0.1229,-1.36845 z m 398.91691,0.08 c 1.32608,-1.41286 1.61338,-1.66691 1.61338,-1.42662 0,0.0514 -0.684,0.73536 -1.52,1.52 l -1.52,1.42662 z m -164.69945,-0.88 c 0,-0.792 0.0624,-1.116 0.13866,-0.72 0.0763,0.396 0.0763,1.044 0,1.44 -0.0763,0.396 -0.13866,0.072 -0.13866,-0.72 z m 125.34189,-1.52 -1.74906,-1.84 1.84,1.74907 c 1.012,0.96199 1.84,1.79 1.84,1.83999 0,0.23753 -0.30598,-0.0396 -1.93094,-1.74906 z m 323.68875,-91.76 c 0,-50.688 0.037,-71.37637 0.0822,-45.97415 0.0452,25.40221 0.0452,66.87421 0,92.16 -0.0452,25.28578 -0.0822,4.50215 -0.0822,-46.18585 z M 563.1866,317.68 c 1.32608,-1.41286 1.61338,-1.66691 1.61338,-1.42663 0,0.0514 -0.684,0.73536 -1.52,1.52 l -1.52,1.42663 z m -402.84134,-0.42667 c 0.0154,-0.37278 0.0912,-0.4486 0.19333,-0.19333 0.0924,0.231 0.0811,0.507 -0.0252,0.61333 -0.10633,0.10634 -0.18196,-0.0827 -0.16807,-0.42 z m 233.59997,-0.64 c 0.0154,-0.37278 0.0912,-0.4486 0.19335,-0.19333 0.0924,0.231 0.0811,0.507 -0.0253,0.61333 -0.10634,0.10634 -0.18199,-0.0827 -0.1681,-0.42 z m 121.24381,-2.29333 -1.74906,-1.84 1.84,1.74907 c 1.012,0.96199 1.84,1.78999 1.84,1.84 0,0.23752 -0.30598,-0.0396 -1.93094,-1.74907 z m 52.15756,-0.48 c 1.32608,-1.41286 1.61338,-1.66691 1.61338,-1.42663 0,0.0514 -0.684,0.73536 -1.52,1.52 l -1.52,1.42663 z m -56.63756,-4.32 -1.74906,-1.84 1.84,1.74907 c 1.012,0.96199 1.84,1.78999 1.84,1.84 0,0.23752 -0.30598,-0.0396 -1.93094,-1.74907 z M 571.5066,310 c 1.32608,-1.41286 1.61338,-1.66691 1.61338,-1.42663 0,0.0514 -0.684,0.73536 -1.52,1.52 l -1.52,1.42663 z m -407.66661,-1.96082 c 0,-0.0664 0.252,-0.31845 0.56,-0.56 0.50754,-0.39804 0.51886,-0.38672 0.12082,0.12082 -0.41804,0.53304 -0.68082,0.70255 -0.68082,0.43918 z M 390.35915,307.6 c -0.39801,-0.50754 -0.38672,-0.51886 0.12084,-0.12082 0.308,0.24155 0.56,0.49355 0.56,0.56 0,0.26337 -0.26279,0.0939 -0.68084,-0.43918 z m 185.48083,-1.68 c 0.86675,-0.88 1.64794,-1.6 1.73594,-1.6 0.088,0 -0.54919,0.72 -1.41594,1.6 -0.86675,0.88 -1.64794,1.6 -1.73594,1.6 -0.088,0 0.54919,-0.72 1.41594,-1.6 z M 389.07915,306 c -0.39801,-0.50754 -0.38672,-0.51886 0.12084,-0.12082 0.308,0.24155 0.56,0.49355 0.56,0.56 0,0.26337 -0.26279,0.0939 -0.68084,-0.43918 z m 117.3088,-1.12 -1.58797,-1.68 1.68,1.58797 c 0.924,0.87338 1.68,1.62938 1.68,1.68 0,0.23878 -0.29645,-0.0269 -1.77203,-1.58797 z m -339.98796,0.59918 c 0,-0.0664 0.252,-0.31845 0.56,-0.56 0.50754,-0.39804 0.51886,-0.38672 0.12082,0.12082 -0.41804,0.53304 -0.68082,0.70255 -0.68082,0.43918 z M 580.1466,302 c 1.32608,-1.41286 1.61338,-1.66691 1.61338,-1.42663 0,0.0514 -0.684,0.73536 -1.52,1.52 l -1.52,1.42663 z m -78.23865,-1.92 -1.58797,-1.68 1.68,1.58797 c 0.924,0.87338 1.68,1.62938 1.68,1.68 0,0.23878 -0.29645,-0.0269 -1.77203,-1.58797 z m -325.64796,0.8214 c 0.231,-0.0924 0.50701,-0.0811 0.61334,0.0252 0.10633,0.10634 -0.0827,0.18197 -0.42,0.16807 -0.37279,-0.0154 -0.44861,-0.0912 -0.19334,-0.19333 z m 1.92,-0.32 c 0.231,-0.0924 0.50701,-0.0811 0.61334,0.0253 0.10633,0.10634 -0.0827,0.18197 -0.42,0.16807 -0.37279,-0.0154 -0.44861,-0.0912 -0.19334,-0.19333 z m 198.22608,-0.003 c 0.31136,-0.0811 0.74336,-0.0758 0.96,0.0119 0.21667,0.0876 -0.0381,0.15404 -0.56608,0.14751 -0.528,-0.007 -0.70525,-0.0782 -0.39392,-0.15937 z m -195.36608,-0.32403 c 0.396,-0.0763 1.044,-0.0763 1.44,0 0.396,0.0763 0.072,0.13867 -0.72,0.13867 -0.792,0 -1.116,-0.0624 -0.72,-0.13867 z m 32.34494,-0.0141 c 11.84971,-0.0465 31.14571,-0.0465 42.88,2e-5 11.73428,0.0465 2.03906,0.0846 -21.54494,0.0845 -23.584,-1e-5 -33.18477,-0.0381 -21.33506,-0.0846 z m 127.81506,9.6e-4 c 2.068,-0.0557 5.452,-0.0557 7.52,0 2.068,0.0557 0.376,0.10135 -3.76,0.10135 -4.136,0 -5.828,-0.0456 -3.76,-0.10135 z m 30.24572,0.007 c 0.57517,-0.0712 1.43917,-0.0697 1.92,0.003 0.48087,0.073 0.0102,0.13128 -1.04572,0.12949 -1.056,-0.002 -1.44941,-0.0615 -0.87428,-0.13276 z m -39.52572,-0.30867 c 0.308,-0.0805 0.812,-0.0805 1.12,0 0.308,0.0805 0.056,0.14635 -0.56,0.14635 -0.616,0 -0.868,-0.0659 -0.56,-0.14635 z m -2.7,-0.31801 c 0.23101,-0.0924 0.50701,-0.0811 0.61334,0.0253 0.10634,0.10633 -0.0827,0.18196 -0.42,0.16807 -0.3728,-0.0154 -0.44861,-0.0912 -0.19334,-0.19333 z M 584.3066,298.16 c 1.32608,-1.41286 1.61338,-1.66691 1.61338,-1.42663 0,0.0514 -0.684,0.73536 -1.52,1.52 l -1.52,1.42663 z m -86.55865,-2.56 -1.58797,-1.68 1.68,1.58797 c 0.924,0.87338 1.68,1.62938 1.68,1.68 0,0.23878 -0.29645,-0.0269 -1.77203,-1.58797 z m 90.71865,-1.28 c 1.32608,-1.41286 1.61338,-1.66691 1.61338,-1.42663 0,0.0514 -0.684,0.73536 -1.52,1.52 l -1.52,1.42663 z m -94.70662,-2.96 c -0.77728,-0.792 -1.34125,-1.44 -1.25325,-1.44 0.088,0 0.79597,0.648 1.57325,1.44 0.77728,0.792 1.34125,1.44 1.25325,1.44 -0.088,0 -0.79597,-0.648 -1.57325,-1.44 z m 99.04,-1.12 c 0.86675,-0.88 1.64793,-1.6 1.73593,-1.6 0.088,0 -0.54918,0.72 -1.41593,1.6 -0.86675,0.88 -1.64794,1.6 -1.73594,1.6 -0.088,0 0.54919,-0.72 1.41594,-1.6 z m -322.10421,0.08 -0.77578,-0.88 0.88,0.77578 c 0.484,0.42668 0.88,0.82268 0.88,0.88 0,0.25097 -0.25914,0.0467 -0.98422,-0.77578 z m -2.55301,-2.88 -1.10277,-1.2 1.2,1.10277 c 1.11693,1.02644 1.34713,1.29723 1.10277,1.29723 -0.0535,0 -0.59347,-0.54 -1.2,-1.2 z m 221.45722,-0.56 c -0.77728,-0.792 -1.34125,-1.44 -1.25325,-1.44 0.088,0 0.79597,0.648 1.57325,1.44 0.77728,0.792 1.34125,1.44 1.25325,1.44 -0.088,0 -0.79597,-0.648 -1.57325,-1.44 z m 107.50662,-0.56 c 1.32608,-1.41286 1.61338,-1.66691 1.61338,-1.42663 0,0.0514 -0.684,0.73536 -1.52,1.52 l -1.52,1.42663 z m -332.01701,-1.6 -0.6096,-0.72 0.72,0.6096 c 0.396,0.33527 0.72,0.65927 0.72,0.72 0,0.25608 -0.25753,0.067 -0.8304,-0.6096 z M 71.83338,255.36 c 0,-16.104 0.03894,-22.692 0.08654,-14.64 0.04759,8.052 0.04759,21.228 0,29.28 -0.0476,8.052 -0.08654,1.464 -0.08654,-14.64 z m 191.80579,28.24 c -0.39804,-0.50754 -0.38672,-0.51886 0.12082,-0.12082 0.308,0.24155 0.56,0.49355 0.56,0.56 0,0.26337 -0.26278,0.0939 -0.68082,-0.43918 z m 222.12081,-0.88 c -0.77728,-0.792 -1.34125,-1.44 -1.25325,-1.44 0.088,0 0.79597,0.648 1.57325,1.44 0.77728,0.792 1.34125,1.44 1.25325,1.44 -0.088,0 -0.79597,-0.648 -1.57325,-1.44 z m 115.50662,-0.24 c 1.32608,-1.41286 1.61338,-1.66691 1.61338,-1.42663 0,0.0514 -0.684,0.73536 -1.52,1.52 l -1.52,1.42663 z m -119.34662,-3.92 c -0.77728,-0.792 -1.34125,-1.44 -1.25325,-1.44 0.088,0 0.79597,0.648 1.57325,1.44 0.77728,0.792 1.34125,1.44 1.25325,1.44 -0.088,0 -0.79597,-0.648 -1.57325,-1.44 z m 123.68,-0.16 c 0.86675,-0.88 1.64793,-1.6 1.73593,-1.6 0.088,0 -0.54918,0.72 -1.41593,1.6 -0.86675,0.88 -1.64794,1.6 -1.73594,1.6 -0.088,0 0.54919,-0.72 1.41594,-1.6 z m 197.75666,-61.76 c 0,-33 0.0375,-46.5 0.0833,-30 0.0458,16.5 0.0458,43.5 0,60 -0.0458,16.5 -0.0833,3 -0.0833,-30 z m -557.33665,58.9814 c 0.231,-0.0924 0.507,-0.0811 0.61334,0.0253 0.10633,0.10634 -0.0827,0.18197 -0.42,0.16807 -0.37279,-0.0154 -0.44861,-0.0912 -0.19334,-0.19333 z M 478.07998,274.4 c -0.77728,-0.792 -1.34124,-1.44 -1.25324,-1.44 0.088,0 0.79596,0.648 1.57324,1.44 0.77728,0.792 1.34125,1.44 1.25325,1.44 -0.088,0 -0.79597,-0.648 -1.57325,-1.44 z m 131.82662,0.08 c 1.32608,-1.41286 1.61338,-1.66691 1.61338,-1.42663 0,0.0514 -0.684,0.73536 -1.52,1.52 l -1.52,1.42663 z m -365.48661,0.8214 c 0.231,-0.0924 0.507,-0.0811 0.61334,0.0252 0.10633,0.10634 -0.0827,0.18197 -0.42,0.16807 -0.37279,-0.0154 -0.44861,-0.0912 -0.19334,-0.19333 z m -1.92,-0.32 c 0.231,-0.0924 0.507,-0.0811 0.61334,0.0252 0.10633,0.10634 -0.0827,0.18197 -0.42,0.16807 -0.37279,-0.0154 -0.44861,-0.0912 -0.19334,-0.19333 z m -2.41391,-0.32316 c 0.31135,-0.0811 0.74335,-0.0758 0.96,0.0119 0.21665,0.0876 -0.0381,0.15403 -0.56609,0.14751 -0.528,-0.007 -0.70526,-0.0782 -0.39391,-0.15937 z m -4.00609,-0.32407 c 0.396,-0.0763 1.044,-0.0763 1.44,0 0.396,0.0763 0.072,0.13867 -0.72,0.13867 -0.792,0 -1.116,-0.0624 -0.72,-0.13867 z m -56.8,-0.32337 c 0.484,-0.0733 1.276,-0.0733 1.76,0 0.484,0.0733 0.088,0.13331 -0.88,0.13331 -0.968,0 -1.364,-0.06 -0.88,-0.13331 z m 17.76,-0.0106 c 5.5,-0.0491 14.5,-0.0491 20,0 5.5,0.0491 1,0.0893 -10,0.0893 -11,0 -15.5,-0.0402 -10,-0.0893 z m 173.13254,0.003 c 1.10688,-0.0627 2.83488,-0.0622 3.84,0.001 1.00509,0.0633 0.0995,0.11457 -2.01254,0.11394 -2.112,-6.4e-4 -2.93437,-0.0524 -1.82746,-0.11509 z m -193.91254,-0.30135 c 0.231,-0.0924 0.50701,-0.0811 0.61334,0.0252 0.10633,0.10633 -0.0827,0.18196 -0.42,0.16807 -0.37279,-0.0154 -0.44861,-0.0912 -0.19334,-0.19333 z m 200.94,0.007 c 0.22,-0.0888 0.58,-0.0888 0.8,0 0.22,0.0888 0.04,0.1614 -0.4,0.1614 -0.44,0 -0.62,-0.0726 -0.4,-0.1614 z m 1.94,-0.32667 c 0.231,-0.0924 0.507,-0.0811 0.61334,0.0253 0.10634,0.10633 -0.0827,0.18197 -0.42,0.16807 -0.3728,-0.0154 -0.44861,-0.0912 -0.19334,-0.19333 z M 614.23998,270.4 c 0.86675,-0.88 1.64793,-1.6 1.73593,-1.6 0.088,0 -0.54918,0.72 -1.41593,1.6 -0.86675,0.88 -1.64794,1.6 -1.73594,1.6 -0.088,0 0.54919,-0.72 1.41594,-1.6 z m -139.85507,-0.08 -1.26493,-1.36 1.36,1.26494 c 1.2648,1.17639 1.50704,1.45506 1.26493,1.45506 -0.0523,0 -0.66425,-0.612 -1.36,-1.36 z m -85.2783,-1.92 c 1.32608,-1.41286 1.61338,-1.66691 1.61338,-1.42663 0,0.0514 -0.684,0.73536 -1.52,1.52 l -1.52,1.42663 z m 81.61337,-2 c -0.77728,-0.792 -1.34124,-1.44 -1.25324,-1.44 0.088,0 0.79596,0.648 1.57324,1.44 0.77728,0.792 1.34125,1.44 1.25325,1.44 -0.088,0 -0.79597,-0.648 -1.57325,-1.44 z m 147.82662,0.08 c 1.32608,-1.41286 1.61338,-1.66691 1.61338,-1.42663 0,0.0514 -0.684,0.73536 -1.52,1.52 l -1.52,1.42663 z m -151.34662,-3.92 c -0.77728,-0.792 -1.34124,-1.44 -1.25324,-1.44 0.088,0 0.79596,0.648 1.57324,1.44 0.77728,0.792 1.34125,1.44 1.25325,1.44 -0.088,0 -0.79597,-0.648 -1.57325,-1.44 z m 155.68,-0.16 c 0.86675,-0.88 1.64793,-1.6 1.73593,-1.6 0.088,0 -0.54918,0.72 -1.41593,1.6 -0.86675,0.88 -1.64794,1.6 -1.73594,1.6 -0.088,0 0.54919,-0.72 1.41594,-1.6 z m -229.25475,-2.74667 c 0.0154,-0.37278 0.0912,-0.4486 0.19335,-0.19333 0.0924,0.231 0.0811,0.507 -0.0253,0.61333 -0.10634,0.10634 -0.18199,-0.0827 -0.1681,-0.42 z m 70.19968,-0.85333 -1.26493,-1.36 1.36,1.26494 c 1.2648,1.17639 1.50704,1.45506 1.26493,1.45506 -0.0523,0 -0.66425,-0.612 -1.36,-1.36 z m 163.36169,-0.32 c 1.32608,-1.41286 1.61338,-1.66691 1.61338,-1.42663 0,0.0514 -0.684,0.73536 -1.52,1.52 l -1.52,1.42663 z m -467.16134,0.21333 c 0.0154,-0.37278 0.0912,-0.4486 0.19333,-0.19333 0.0924,0.231 0.0811,0.507 -0.0252,0.61333 -0.10633,0.10634 -0.18196,-0.0827 -0.16807,-0.42 z M 393.97051,257.6 c 0,-0.44 0.0726,-0.62 0.16141,-0.4 0.0888,0.22 0.0888,0.58 0,0.8 -0.0888,0.22 -0.16141,0.04 -0.16141,-0.4 z m -234.17693,-3.68 c -9.6e-4,-1.584 0.0531,-2.27235 0.12025,-1.52965 0.0671,0.74268 0.0679,2.03868 0.002,2.88 -0.0661,0.8413 -0.12105,0.23365 -0.12202,-1.35035 z m 301.60557,2.16 c -0.39801,-0.50754 -0.38672,-0.51886 0.12083,-0.12082 0.308,0.24155 0.56,0.49355 0.56,0.56 0,0.26337 -0.26278,0.0939 -0.68083,-0.43918 z m 76.35081,-1.76 -1.90998,-2 2,1.90998 c 1.1,1.05049 2,1.95049 2,2 0,0.23645 -0.31581,-0.0522 -2.09002,-1.90998 z m 93.77002,0.08 c 0.86675,-0.88 1.64793,-1.6 1.73593,-1.6 0.088,0 -0.54918,0.72 -1.41593,1.6 -0.86675,0.88 -1.64794,1.6 -1.73594,1.6 -0.088,0 0.54919,-0.72 1.41594,-1.6 z m -83.68,-0.16 c 0.59706,-0.616 1.15754,-1.12 1.24554,-1.12 0.088,0 -0.32848,0.504 -0.92554,1.12 -0.59706,0.616 -1.15754,1.12 -1.24554,1.12 -0.088,0 0.32848,-0.504 0.92554,-1.12 z M 111.83432,219.52 c 0,-18.92 0.0385,-26.66 0.0856,-17.2 0.0471,9.46 0.0471,24.94 0,34.4 -0.0471,9.46 -0.0856,1.72 -0.0856,-17.2 z m 440.32566,30.72 c 1.04499,-1.056 1.97197,-1.92 2.05997,-1.92 0.088,0 -0.69498,0.864 -1.73997,1.92 -1.04499,1.056 -1.97197,1.92 -2.05997,1.92 -0.088,0 0.69498,-0.864 1.73997,-1.92 z m 83.66662,0.24 c 1.32608,-1.41286 1.61338,-1.66691 1.61338,-1.42663 0,0.0514 -0.684,0.73536 -1.52,1.52 l -1.52,1.42663 z m -101.76383,-0.16 -1.10279,-1.2 1.2,1.10277 c 0.66,0.60653 1.2,1.14653 1.2,1.2 0,0.24436 -0.27078,0.0141 -1.29721,-1.10277 z m -140.09226,0.24 c 0,-0.44 0.0726,-0.62 0.16141,-0.4 0.0888,0.22 0.0888,0.58 0,0.8 -0.0888,0.22 -0.16141,0.04 -0.16141,-0.4 z m -233.94525,-1.14667 c 0.0154,-0.37278 0.0912,-0.4486 0.19333,-0.19333 0.0924,0.231 0.0811,0.507 -0.0252,0.61333 -0.10633,0.10634 -0.18196,-0.0827 -0.16807,-0.42 z m 297.59997,-0.64 c 0.0154,-0.37278 0.0912,-0.4486 0.19335,-0.19333 0.0924,0.231 0.0811,0.507 -0.0253,0.61333 -0.10634,0.10634 -0.18199,-0.0827 -0.1681,-0.42 z m 73.07968,-2.13333 -1.26493,-1.36 1.36,1.26494 c 1.2648,1.17639 1.50704,1.45506 1.26493,1.45506 -0.0523,0 -0.66426,-0.612 -1.36,-1.36 z m 109.45507,-0.24 c 0.86675,-0.88 1.64793,-1.6 1.73593,-1.6 0.088,0 -0.54918,0.72 -1.41593,1.6 -0.86675,0.88 -1.64794,1.6 -1.73594,1.6 -0.088,0 0.54919,-0.72 1.41594,-1.6 z m -182.82947,0 c 0,-0.44 0.0726,-0.62 0.16141,-0.4 0.0888,0.22 0.0888,0.58 0,0.8 -0.0888,0.22 -0.16141,0.04 -0.16141,-0.4 z m 100.10947,-1.12 c 0.95597,-0.968 1.81014,-1.76 1.89814,-1.76 0.088,0 -0.62217,0.792 -1.57814,1.76 -0.95597,0.968 -1.81014,1.76 -1.89814,1.76 -0.088,0 0.62217,-0.792 1.57814,-1.76 z m -30.4,-2.56 c -0.77728,-0.792 -1.34125,-1.44 -1.25325,-1.44 0.088,0 0.79597,0.648 1.57325,1.44 0.77728,0.792 1.34125,1.44 1.25325,1.44 -0.088,0 -0.79597,-0.648 -1.57325,-1.44 z m 117.42662,-0.24 c 1.32608,-1.41286 1.61338,-1.66691 1.61338,-1.42663 0,0.0514 -0.684,0.73536 -1.52,1.52 l -1.52,1.42663 z m -82.22662,-1.68 c 0.95597,-0.968 1.81014,-1.76 1.89814,-1.76 0.088,0 -0.62217,0.792 -1.57814,1.76 -0.95597,0.968 -1.81014,1.76 -1.89814,1.76 -0.088,0 0.62217,-0.792 1.57814,-1.76 z m -172.20083,0.24 c -0.39801,-0.50754 -0.38672,-0.51886 0.12084,-0.12082 0.308,0.24155 0.56,0.49355 0.56,0.56 0,0.26337 -0.26279,0.0939 -0.68084,-0.43918 z m -225.23916,-1.2 c 0.59705,-0.616 1.15755,-1.12 1.24555,-1.12 0.088,0 -0.3285,0.504 -0.92555,1.12 -0.59705,0.616 -1.15754,1.12 -1.24554,1.12 -0.088,0 0.32849,-0.504 0.92554,-1.12 z m 483.99999,-1.44 c 0.86675,-0.88 1.64793,-1.6 1.73593,-1.6 0.088,0 -0.54918,0.72 -1.41593,1.6 -0.86676,0.88 -1.64794,1.6 -1.73594,1.6 -0.088,0 0.54918,-0.72 1.41594,-1.6 z m -126.41001,-0.72 -1.90999,-2 2,1.90998 c 1.85783,1.77422 2.14643,2.09002 1.90999,2.09002 -0.0495,0 -0.94951,-0.9 -2,-2 z m -134.59082,1.12 c -0.39801,-0.50754 -0.38672,-0.51886 0.12084,-0.12082 0.308,0.24155 0.56,0.49355 0.56,0.56 0,0.26337 -0.26279,0.0939 -0.68084,-0.43918 z m 179.24083,-2.48 c 0.95597,-0.968 1.81014,-1.76 1.89814,-1.76 0.088,0 -0.62217,0.792 -1.57814,1.76 -0.95597,0.968 -1.81014,1.76 -1.89814,1.76 -0.088,0 0.62217,-0.792 1.57814,-1.76 z m -102.4,-2.88 c 2.01828,-2.024 3.74157,-3.68 3.82957,-3.68 0.088,0 -1.49129,1.656 -3.50957,3.68 -2.01827,2.024 -3.74156,3.68 -3.82956,3.68 -0.088,0 1.49129,-1.656 3.50956,-3.68 z m 188.46662,1.04 c 1.32608,-1.41286 1.61338,-1.66691 1.61338,-1.42663 0,0.0514 -0.684,0.73536 -1.52,1.52 l -1.52,1.42663 z m -478.12661,0.1814 c 0.231,-0.0924 0.50701,-0.0811 0.61334,0.0252 0.10633,0.10634 -0.0827,0.18197 -0.42,0.16807 -0.37279,-0.0154 -0.44861,-0.0912 -0.19334,-0.19333 z m 1.92,-0.32 c 0.231,-0.0924 0.50701,-0.0811 0.61334,0.0252 0.10633,0.10634 -0.0827,0.18197 -0.42,0.16807 -0.37279,-0.0154 -0.44861,-0.0912 -0.19334,-0.19333 z m 199.66,0.007 c 0.22,-0.0888 0.58,-0.0888 0.8,0 0.22,0.0888 0.04,0.16141 -0.4,0.16141 -0.44,0 -0.62,-0.0726 -0.4,-0.16141 z m -191.52,-0.34758 c 3.124,-0.0524 8.236,-0.0524 11.36,0 3.124,0.0524 0.568,0.0952 -5.68,0.0952 -6.248,0 -8.804,-0.0429 -5.68,-0.0952 z m 174.24,8e-5 c 2.86,-0.053 7.54,-0.053 10.4,0 2.86,0.053 0.52,0.0964 -5.2,0.0964 -5.72,0 -8.06,-0.0434 -5.2,-0.0964 z m 157.83074,-1.92057 -2.07075,-2.16 2.16,2.07076 c 1.188,1.13891 2.16,2.11091 2.16,2.16 0,0.23552 -0.32582,-0.0645 -2.24925,-2.07076 z M 571.67998,232 c 0.86675,-0.88 1.64794,-1.6 1.73594,-1.6 0.088,0 -0.54919,0.72 -1.41594,1.6 -0.86675,0.88 -1.64794,1.6 -1.73594,1.6 -0.088,0 0.54919,-0.72 1.41594,-1.6 z m 85.76,-1.6 c 0.86675,-0.88 1.64793,-1.6 1.73593,-1.6 0.088,0 -0.54918,0.72 -1.41593,1.6 -0.86676,0.88 -1.64794,1.6 -1.73594,1.6 -0.088,0 0.54918,-0.72 1.41594,-1.6 z m -81.28,-2.56 c 0.86675,-0.88 1.64794,-1.6 1.73594,-1.6 0.088,0 -0.54919,0.72 -1.41594,1.6 -0.86675,0.88 -1.64794,1.6 -1.73594,1.6 -0.088,0 0.54919,-0.72 1.41594,-1.6 z m -104.81337,-0.72 c 0.78464,-0.836 1.46864,-1.52 1.52,-1.52 0.24029,0 -0.0138,0.28731 -1.42663,1.61337 l -1.52,1.42663 z m 39.8448,-1.28 -2.23143,-2.32 2.32,2.23142 c 2.15482,2.07254 2.46615,2.40858 2.23143,2.40858 -0.0487,0 -1.09274,-1.044 -2.32,-2.32 z m 150.55519,0.64 c 0.78464,-0.836 1.46864,-1.52 1.52,-1.52 0.24029,0 -0.0138,0.28731 -1.42662,1.61337 l -1.52,1.42663 z m -81.10662,-2.8 c 0.86675,-0.88 1.64794,-1.6 1.73594,-1.6 0.088,0 -0.54919,0.72 -1.41594,1.6 -0.86675,0.88 -1.64794,1.6 -1.73594,1.6 -0.088,0 0.54919,-0.72 1.41594,-1.6 z m -105.6,0 c 0.68743,-0.704 1.32189,-1.28 1.40989,-1.28 0.088,0 -0.40246,0.576 -1.08989,1.28 -0.68742,0.704 -1.32188,1.28 -1.40988,1.28 -0.088,0 0.40246,-0.576 1.08988,-1.28 z m 190.86662,-1.04 c 1.32608,-1.41286 1.61338,-1.66691 1.61338,-1.42663 0,0.0514 -0.684,0.73536 -1.52,1.52 l -1.52,1.42663 z m -161.27295,-3.68 -3.03367,-3.12 3.12,3.03368 c 2.89783,2.81765 3.26557,3.20632 3.03367,3.20632 -0.0475,0 -1.45146,-1.404 -3.12,-3.12 z m -26.23367,1.68 c 0.59706,-0.616 1.15754,-1.12 1.24554,-1.12 0.088,0 -0.32848,0.504 -0.92554,1.12 -0.59705,0.616 -1.15753,1.12 -1.24553,1.12 -0.088,0 0.32848,-0.504 0.92553,-1.12 z m 106.72,-1.12 c 0.86675,-0.88 1.64794,-1.6 1.73594,-1.6 0.088,0 -0.54919,0.72 -1.41594,1.6 -0.86675,0.88 -1.64794,1.6 -1.73594,1.6 -0.088,0 0.54919,-0.72 1.41594,-1.6 z m 85.26662,-1.04 c 0.78464,-0.836 1.46864,-1.52 1.52,-1.52 0.24029,0 -0.0138,0.28731 -1.42662,1.61337 l -1.52,1.42663 z m -189.74662,0.29987 c 0,-0.0551 0.468,-0.52307 1.04,-1.04 l 1.04,-0.93987 -0.93987,1.04 c -0.8761,0.96943 -1.14013,1.18709 -1.14013,0.93987 z M 589.4266,215.6 c 1.32608,-1.41286 1.61338,-1.66691 1.61338,-1.42663 0,0.0514 -0.684,0.73536 -1.52,1.52 l -1.52,1.42663 z m 85.12,-0.96 c 1.32608,-1.41286 1.61338,-1.66691 1.61338,-1.42663 0,0.0514 -0.684,0.73536 -1.52,1.52 l -1.52,1.42663 z m -80.96,-2.88 c 1.32608,-1.41286 1.61338,-1.66691 1.61338,-1.42663 0,0.0514 -0.684,0.73536 -1.52,1.52 l -1.52,1.42663 z m -101.34662,0.81941 c 0.308,-0.0805 0.812,-0.0805 1.12,0 0.308,0.0805 0.056,0.14635 -0.56,0.14635 -0.616,0 -0.868,-0.0659 -0.56,-0.14635 z m 187.92,-3.29941 c 1.57667,-1.584 2.93865,-2.88 3.02665,-2.88 0.088,0 -1.12998,1.296 -2.70665,2.88 -1.57668,1.584 -2.93866,2.88 -3.02666,2.88 -0.088,0 1.12998,-1.296 2.70666,-2.88 z M 598.0666,207.6 c 1.32608,-1.41286 1.61338,-1.66691 1.61338,-1.42663 0,0.0514 -0.684,0.73536 -1.52,1.52 l -1.52,1.42663 z m 4.16,-3.84 c 1.32608,-1.41286 1.61338,-1.66691 1.61338,-1.42663 0,0.0514 -0.684,0.73536 -1.52,1.52 l -1.52,1.42663 z m 4.16,-3.84 c 1.32608,-1.41286 1.61338,-1.66691 1.61338,-1.42663 0,0.0514 -0.684,0.73536 -1.52,1.52 l -1.52,1.42663 z m 80.10054,-2.8 c 0,-0.792 0.0624,-1.116 0.13866,-0.72 0.0763,0.396 0.0763,1.044 0,1.44 -0.0763,0.396 -0.13866,0.072 -0.13866,-0.72 z m -75.94054,-1.04 c 1.32608,-1.41286 1.61338,-1.66691 1.61338,-1.42663 0,0.0514 -0.684,0.73536 -1.52,1.52 l -1.52,1.42663 z m 4.16,-3.84 c 1.32608,-1.41286 1.61338,-1.66691 1.61338,-1.42663 0,0.0514 -0.684,0.73536 -1.52,1.52 l -1.52,1.42663 z m 4.16,-3.84 c 1.32608,-1.41286 1.61338,-1.66691 1.61338,-1.42663 0,0.0514 -0.684,0.73536 -1.52,1.52 l -1.52,1.42663 z m 63.65254,-0.8 c -0.39801,-0.50754 -0.38672,-0.51886 0.12084,-0.12082 0.53302,0.41804 0.70256,0.68082 0.43916,0.68082 -0.0664,0 -0.31843,-0.252 -0.56,-0.56 z m -2.19916,-2.48 c -0.77728,-0.792 -1.34125,-1.44 -1.25325,-1.44 0.088,0 0.79597,0.648 1.57325,1.44 0.77728,0.792 1.34124,1.44 1.25324,1.44 -0.088,0 -0.79596,-0.648 -1.57324,-1.44 z m -57.29338,-0.56 c 1.32608,-1.41286 1.61338,-1.66691 1.61338,-1.42663 0,0.0514 -0.684,0.73536 -1.52,1.52 l -1.52,1.42663 z m 53.28134,-3.84 -1.58796,-1.68 1.68,1.58797 c 0.924,0.87338 1.68,1.62938 1.68,1.68 0,0.23878 -0.29645,-0.0269 -1.77204,-1.58797 z m -49.12134,0 c 1.32608,-1.41286 1.61338,-1.66691 1.61338,-1.42663 0,0.0514 -0.684,0.73536 -1.52,1.52 l -1.52,1.42663 z m 4.16,-3.84 c 1.32608,-1.41286 1.61338,-1.66691 1.61338,-1.42663 0,0.0514 -0.684,0.73536 -1.52,1.52 l -1.52,1.42663 z m 40.32243,-1.12 -1.74905,-1.84 1.84,1.74907 c 1.7094,1.62494 1.98659,1.93093 1.74905,1.93093 -0.05,0 -0.87798,-0.828 -1.84,-1.84 z m -36.16243,-2.72 c 1.32608,-1.41286 1.61338,-1.66691 1.61338,-1.42663 0,0.0514 -0.684,0.73536 -1.52,1.52 l -1.52,1.42663 z m 30.4063,-3.36 -2.71292,-2.8 2.8,2.71293 c 1.54,1.49212 2.8,2.75212 2.8,2.8 0,0.23284 -0.36736,-0.11237 -2.88708,-2.71293 z m -27.51292,0.77987 c 0,-0.0551 0.468,-0.52307 1.04,-1.04 l 1.04,-0.93987 -0.93987,1.04 c -0.8761,0.96943 -1.14013,1.18709 -1.14013,0.93987 z m 2.88,-2.58069 c 0,-0.0665 0.252,-0.31845 0.56,-0.56 0.50755,-0.39804 0.51885,-0.38672 0.12083,0.12082 -0.41805,0.53304 -0.68083,0.70255 -0.68083,0.43918 z M 662.03914,166.16 c -0.39801,-0.50754 -0.38672,-0.51886 0.12084,-0.12082 0.308,0.24155 0.56,0.49355 0.56,0.56 0,0.26337 -0.26279,0.0939 -0.68084,-0.43918 z M 111.8317,141.28 c 4e-5,-12.672 0.0397,-17.8094 0.0882,-11.41646 0.0485,6.39295 0.0485,16.76095 -5e-5,23.04 -0.0485,6.27906 -0.0882,1.04846 -0.0881,-11.62354 z m 546.08828,22.24 c -0.28842,-0.18639 -0.32788,-0.31216 -0.0989,-0.3151 0.2096,-0.003 0.47011,0.1391 0.57888,0.3151 0.24553,0.39729 0.13475,0.39729 -0.48,0 z m -7.1,-1.1786 c 0.231,-0.0924 0.507,-0.0811 0.61334,0.0252 0.10634,0.10634 -0.0827,0.18197 -0.42,0.16807 -0.3728,-0.0154 -0.44861,-0.0912 -0.19334,-0.19333 z m 3.84,0 c 0.231,-0.0924 0.507,-0.0811 0.61334,0.0252 0.10634,0.10634 -0.0827,0.18197 -0.42,0.16807 -0.3728,-0.0154 -0.44861,-0.0912 -0.19334,-0.19333 z M 71.825981,120.64 c 0,-7.128 0.04214,-10.044 0.09364,-6.48 0.0515,3.564 0.0515,9.396 0,12.96 -0.0515,3.564 -0.09364,0.648 -0.09364,-6.48 z M 803.6648,107.68 c 10e-5,-6.512 0.0428,-9.130582 0.0948,-5.81907 0.052,3.31151 0.052,8.63951 -1.9e-4,11.84 -0.0522,3.20049 -0.0947,0.49107 -0.0946,-6.02093 z m 39.99818,-10.72 c 0,-5.72 0.0434,-8.06 0.0964,-5.2 0.053,2.86 0.053,7.54 0,10.4 -0.053,2.86 -0.0964,0.52 -0.0964,-5.2 z M 111.49721,91.04 c 2.2e-4,-4.048 0.0461,-5.659875 0.10191,-3.581946 0.0558,2.07793 0.0556,5.38993 -3.2e-4,7.36 -0.056,1.970071 -0.10173,0.269946 -0.1015,-3.778054 z M 71.49497,84.48 c 0,-3.608 0.04667,-5.084 0.103709,-3.28 0.05704,1.804 0.05704,4.756 0,6.56 -0.05704,1.804 -0.103709,0.328 -0.103709,-3.28 z M 803.96429,73.76 c 0,-2.288 0.0516,-3.182013 0.11328,-1.986691 0.0617,1.195318 0.0613,3.067318 0,4.16 -0.0623,1.092678 -0.1128,0.114691 -0.11225,-2.173309 z M 0.08069869,69.92 c 0.0035518,-0.704 0.06908295,-0.95432 0.14562478,-0.556269 0.0765418,0.398051 0.0736358,0.974051 -0.006458,1.28 C 0.13977201,70.94968 0.07714688,70.624 0.08069869,69.92 Z M 71.447153,66.56 c 0,-0.792 0.06241,-1.116 0.138678,-0.72 0.07627,0.396 0.07627,1.044 0,1.44 -0.07627,0.396 -0.138678,0.072 -0.138678,-0.72 z m 39.975227,0.48 c 0.007,-0.528 0.0782,-0.705261 0.15937,-0.39391 0.0811,0.31135 0.0758,0.74335 -0.0119,0.96 -0.0877,0.216649 -0.15404,-0.03809 -0.14752,-0.56609 z M 803.5705,66.88 c 0,-0.44 0.0726,-0.62 0.16141,-0.4 0.0888,0.22 0.0888,0.58 0,0.8 -0.0888,0.22 -0.16141,0.04 -0.16141,-0.4 z m 40.03664,-0.96 c 0,-0.792 0.0624,-1.116 0.13865,-0.72 0.0763,0.396 0.0763,1.044 0,1.44 -0.0763,0.396 -0.13865,0.072 -0.13865,-0.72 z M 0.07424086,64.64 c 0,-0.616 0.06585449,-0.868 0.1463433,-0.56 0.0804888,0.308 0.0804888,0.812 0,1.12 -0.0804888,0.308 -0.1463433,0.056 -0.1463433,-0.56 z m 45.09628214,0 c 0,-0.44 0.07263,-0.62 0.161405,-0.4 0.08877,0.22 0.08877,0.58 0,0.8 -0.08877,0.22 -0.161405,0.04 -0.161405,-0.4 z m 66.534737,0.133334 c 0.0154,-0.372784 0.0912,-0.448608 0.19333,-0.193334 0.0924,0.230998 0.0811,0.506998 -0.0252,0.613334 -0.10633,0.106333 -0.18196,-0.08267 -0.16807,-0.42 z m 691.51996,0 c 0.0154,-0.372784 0.0912,-0.448608 0.19334,-0.193334 0.0925,0.230998 0.0811,0.506998 -0.0253,0.613334 -0.10633,0.106333 -0.18198,-0.08267 -0.16809,-0.42 z M 71.742381,62.56 c 0.0065,-0.528 0.07824,-0.705261 0.159373,-0.39391 0.08113,0.31135 0.0758,0.74335 -0.01187,0.96 C 71.802225,63.342739 71.735844,63.088 71.742365,62.56 Z M 44.825262,62.53334 c 0.01536,-0.372784 0.09118,-0.448608 0.193332,-0.193334 0.09244,0.230998 0.08107,0.506998 -0.02525,0.613334 -0.106336,0.106333 -0.181965,-0.08267 -0.168071,-0.42 z M 843.2505,62.4 c 0,-0.44 0.0726,-0.62 0.16141,-0.4 0.0888,0.22 0.0888,0.58 0,0.8 -0.0888,0.22 -0.16141,0.04 -0.16141,-0.4 z M 0.34526316,62.213334 c 0.0153549,-0.372784 0.0911809,-0.448608 0.1933333,-0.193334 0.0924386,0.230998 0.0810702,0.506998 -0.025263,0.613334 -0.10633334,0.106333 -0.18196492,-0.08267 -0.1680703,-0.42 z m 0.31999998,-1.6 C 0.68061802,60.24055 0.75644404,60.164726 0.85859645,60.42 c 0.0924386,0.230998 0.0810702,0.506998 -0.025263,0.613334 -0.10633334,0.106333 -0.18196492,-0.08267 -0.16807031,-0.42 z m 71.35999786,-0.64 c 0.01536,-0.372784 0.09118,-0.448608 0.193332,-0.193334 0.09244,0.230998 0.08107,0.506998 -0.02525,0.613334 -0.106336,0.106333 -0.181965,-0.08267 -0.168071,-0.42 z M 842.9305,59.84 c 0,-0.44 0.0726,-0.62 0.16141,-0.4 0.0888,0.22 0.0888,0.58 0,0.8 -0.0888,0.22 -0.16141,0.04 -0.16141,-0.4 z M 72.345261,57.733334 c 0.01536,-0.372784 0.09118,-0.448608 0.193332,-0.193334 0.09244,0.230998 0.08107,0.506998 -0.02525,0.613334 -0.106336,0.106333 -0.181965,-0.08267 -0.168071,-0.42 z m 770.239959,0 c 0.0154,-0.372784 0.0912,-0.448608 0.19334,-0.193334 0.0924,0.230998 0.0811,0.506998 -0.0253,0.613334 -0.10633,0.106333 -0.18198,-0.08267 -0.16809,-0.42 z m -769.919959,-1.6 c 0.01536,-0.372784 0.09118,-0.448608 0.193332,-0.193334 0.09244,0.230998 0.08107,0.506998 -0.02525,0.613334 -0.106336,0.106333 -0.181965,-0.08267 -0.168071,-0.42 z m 769.599959,0 c 0.0154,-0.372784 0.0912,-0.448608 0.19334,-0.193334 0.0924,0.230998 0.0811,0.506998 -0.0253,0.613334 -0.10633,0.106333 -0.18198,-0.08267 -0.16809,-0.42 z m -769.279959,-1.6 c 0.01536,-0.372784 0.09118,-0.448608 0.193332,-0.193334 0.09244,0.230998 0.08107,0.506998 -0.02525,0.613334 -0.106336,0.106333 -0.181965,-0.08267 -0.168071,-0.42 z m 768.959959,0 c 0.0154,-0.372784 0.0912,-0.448608 0.19334,-0.193334 0.0924,0.230998 0.0811,0.506998 -0.0253,0.613334 -0.10633,0.106333 -0.18198,-0.08267 -0.16809,-0.42 z M 4.7999998,52.039181 c 0,-0.06645 0.252,-0.318448 0.56,-0.56 C 5.8675377,51.081142 5.8788561,51.092461 5.4808174,51.6 5.0627793,52.13304 4.7999998,52.302554 4.7999998,52.039181 Z M 39.489595,50.8 l -0.609596,-0.72 0.72,0.609597 c 0.67662,0.57287 0.865676,0.830403 0.609596,0.830403 -0.06072,0 -0.384723,-0.324 -0.72,-0.72 z M 118.08,50.4 c 0.41336,-0.44 0.82356,-0.8 0.91156,-0.8 0.088,0 -0.1782,0.36 -0.59156,0.8 -0.41336,0.44 -0.82357,0.8 -0.91157,0.8 -0.088,0 0.17821,-0.36 0.59157,-0.8 z m 677.26996,-1.52 -1.90999,-2 2,1.909984 c 1.1,1.05049 2,1.95049 2,2 0,0.236448 -0.31581,-0.05215 -2.09001,-1.909984 z M 7.6799997,49.159181 c 0,-0.06645 0.252,-0.318448 0.56,-0.56 C 8.7475376,48.201142 8.758856,48.212461 8.3608173,48.72 7.9427792,49.25304 7.6799997,49.422554 7.6799997,49.159181 Z M 36.929595,48.24 l -0.609596,-0.72 0.72,0.609597 c 0.67662,0.57287 0.865676,0.830403 0.609596,0.830403 -0.06072,0 -0.384723,-0.324 -0.72,-0.72 z M 120.64,47.84 c 0.41336,-0.44 0.82356,-0.8 0.91156,-0.8 0.088,0 -0.1782,0.36 -0.59156,0.8 -0.41336,0.44 -0.82357,0.8 -0.91157,0.8 -0.088,0 0.17821,-0.36 0.59157,-0.8 z M 19.459999,43.621405 c 0.231,-0.09244 0.507,-0.08107 0.613334,0.02525 0.106333,0.106333 -0.08267,0.181965 -0.42,0.16807 -0.372782,-0.01536 -0.448608,-0.09118 -0.193334,-0.193331 z m 7.04,0 c 0.231,-0.09244 0.507,-0.08107 0.613333,0.02525 0.106334,0.106333 -0.08267,0.181965 -0.42,0.16807 -0.372781,-0.01536 -0.448607,-0.09118 -0.193333,-0.193331 z m -3.86,-0.313335 c 0.22,-0.08877 0.58,-0.08877 0.8,0 0.22,0.08877 0.04,0.161405 -0.4,0.161405 -0.44,0 -0.62,-0.07263 -0.4,-0.161405 z M 135.62,40.741405 c 0.23099,-0.09244 0.507,-0.08107 0.61333,0.02525 0.10633,0.106336 -0.0827,0.181965 -0.42,0.16807 -0.37278,-0.01536 -0.44861,-0.09118 -0.19333,-0.193331 z m 1.58,-0.313335 c 0.22,-0.08877 0.58,-0.08877 0.8,0 0.22,0.08877 0.04,0.161405 -0.4,0.161405 -0.44,0 -0.62,-0.07263 -0.4,-0.161405 z m 245.14616,-0.02806 c 42.2984,-0.04472 111.4184,-0.04472 153.6,0 42.1816,0.04472 7.57382,0.08132 -76.90618,0.08132 -84.47999,0 -118.99222,-0.03659 -76.69382,-0.08132 z m 394.85381,0.02806 c 0.22,-0.08877 0.58,-0.08877 0.8,0 0.22,0.08877 0.04,0.161405 -0.4,0.161405 -0.44,0 -0.62,-0.07263 -0.4,-0.161405 z M 140.08373,40.093677 c 0.39805,-0.07654 0.97405,-0.07364 1.28,0.0065 0.30594,0.08009 -0.0198,0.14272 -0.72373,0.139168 -0.704,-0.0036 -0.95432,-0.06909 -0.55627,-0.145626 z m 33.09193,-0.0136 c 8.56662,-0.04738 22.67862,-0.0474 31.36,-3.2e-5 8.68138,0.04736 1.67233,0.08613 -15.57567,0.08615 -17.248,1.6e-5 -24.35095,-0.03874 -15.78433,-0.08611 z m 540.79999,0 c 8.5666,-0.04738 22.6786,-0.0474 31.36,-3.2e-5 8.68138,0.04736 1.67232,0.08613 -15.57568,0.08615 -17.248,1.6e-5 -24.35094,-0.03874 -15.78432,-0.08611 z m 60.02807,0.0136 c 0.39804,-0.07654 0.97404,-0.07364 1.28,0.0065 0.30592,0.08009 -0.0198,0.14272 -0.72375,0.139168 -0.704,-0.0036 -0.95433,-0.06909 -0.55625,-0.145626 z M 828.75914,26.32 c -0.39802,-0.507538 -0.38672,-0.518856 0.12083,-0.120818 0.53302,0.418038 0.70256,0.680818 0.43917,0.680818 -0.0664,0 -0.31843,-0.252 -0.56,-0.56 z M 87.519997,24.64 C 87.838554,24.288 88.17119,24 88.25919,24 c 0.088,0 -0.100636,0.288 -0.419193,0.64 -0.318557,0.352 -0.651194,0.64 -0.739194,0.64 -0.088,0 0.100637,-0.288 0.419194,-0.64 z m 739.809573,-0.08 -0.6096,-0.72 0.72,0.609596 c 0.396,0.335278 0.72,0.659278 0.72,0.72 0,0.256081 -0.25754,0.06703 -0.8304,-0.609596 z M 91.039997,20.8 c 1.399741,-1.408 2.616985,-2.56 2.704985,-2.56 0.088,0 -0.985244,1.152 -2.384985,2.56 -1.399741,1.408 -2.616986,2.56 -2.704986,2.56 -0.088,0 0.985245,-1.152 2.384986,-2.56 z m 732.471393,-0.4 -2.23142,-2.32 2.32,2.231418 c 2.15482,2.072541 2.46614,2.408582 2.23142,2.408582 -0.0487,0 -1.09273,-1.044 -2.32,-2.32 z M 95.199997,16.96 c 0.318556,-0.352 0.651193,-0.64 0.739193,-0.64 0.088,0 -0.100637,0.288 -0.419193,0.64 -0.318557,0.352 -0.651194,0.64 -0.739194,0.64 -0.088,0 0.100637,-0.288 0.419194,-0.64 z m 724.449573,-0.08 -0.6096,-0.72 0.72,0.609596 c 0.396,0.335278 0.72,0.659278 0.72,0.72 0,0.256081 -0.25754,0.06703 -0.8304,-0.609596 z M 96.639997,15.879182 c 0,-0.06645 0.252,-0.31845 0.56,-0.56 0.507539,-0.398038 0.518857,-0.38672 0.120819,0.120818 -0.418039,0.533039 -0.680819,0.702553 -0.680819,0.439182 z M 817.87914,15.44 c -0.39802,-0.507538 -0.38672,-0.518856 0.12083,-0.120818 0.308,0.24155 0.56,0.49355 0.56,0.56 0,0.263371 -0.26278,0.09386 -0.68083,-0.439182 z M 97.919997,14.919182 c 0,-0.06645 0.252,-0.31845 0.56,-0.56 0.507539,-0.398038 0.518857,-0.38672 0.120819,0.120818 -0.418039,0.533039 -0.680819,0.702553 -0.680819,0.439182 z M 126.98,1.7014035 c 0.23099,-0.092439 0.507,-0.08107 0.61333,0.025263 0.10633,0.1063333 -0.0827,0.1819649 -0.42,0.1680701 -0.37278,-0.015355 -0.44861,-0.091181 -0.19333,-0.1933331 z m 660.79997,0 c 0.23101,-0.092439 0.50701,-0.08107 0.61335,0.025263 0.10633,0.1063333 -0.0827,0.1819649 -0.42,0.1680701 -0.3728,-0.015355 -0.44861,-0.091181 -0.19335,-0.1933331 z m -659.19997,-0.32 c 0.23099,-0.092439 0.507,-0.08107 0.61333,0.025263 0.10633,0.1063333 -0.0827,0.1819649 -0.42,0.1680701 -0.37278,-0.015355 -0.44861,-0.091181 -0.19333,-0.1933331 z m 657.59997,0 c 0.23101,-0.092439 0.50701,-0.08107 0.61335,0.025263 0.10633,0.1063333 -0.0827,0.1819649 -0.42,0.1680701 -0.3728,-0.015355 -0.44861,-0.091181 -0.19335,-0.1933331 z M 130.5,1.0614035 c 0.23099,-0.0924386 0.507,-0.0810702 0.61333,0.025263 0.10633,0.1063333 -0.0827,0.1819649 -0.42,0.1680701 -0.37278,-0.015355 -0.44861,-0.091181 -0.19333,-0.1933331 z m 653.75997,0 c 0.23101,-0.0924386 0.50701,-0.0810702 0.61335,0.025263 0.10633,0.1063333 -0.0827,0.1819649 -0.42,0.1680701 -0.3728,-0.015355 -0.44861,-0.091181 -0.19335,-0.1933331 z M 132.72,0.74807018 c 0.22,-0.0887719 0.58,-0.0887719 0.8,0 0.22,0.0887719 0.04,0.16140352 -0.4,0.16140352 -0.44,0 -0.62,-0.0726316 -0.4,-0.16140352 z m 649.27997,0 c 0.22,-0.0887719 0.58,-0.0887719 0.8,0 0.22,0.0887719 0.04,0.16140352 -0.4,0.16140352 -0.44,0 -0.62,-0.0726316 -0.4,-0.16140352 z M 135.44608,0.41824298 c 0.31136,-0.0811339 0.74336,-0.0757981 0.96,0.0118573 0.21665,0.0876554 -0.0381,0.15403766 -0.56608,0.14751616 -0.528,-0.006522 -0.70527,-0.0782396 -0.39392,-0.15937346 z m 152.47391,-0.0182229 c 16.412,-0.0458249 43.268,-0.0458249 59.68,0 16.412,0.0458249 2.984,0.0833179 -29.84,0.0833179 -32.824,0 -46.252,-0.0374931 -29.84,-0.0833179 z m 282.53458,4.23e-6 c 16.39802,-0.0458225 43.32602,-0.0458264 59.84,-8.64e-6 16.51398,0.0458178 3.09741,0.0833089 -29.81459,0.0833137 -32.912,4.77e-6 -46.42342,-0.0374825 -30.02541,-0.0833051 z m 208.51148,0.0182186 c 0.31136,-0.0811339 0.74336,-0.0757981 0.96,0.0118573 0.21667,0.0876554 -0.0381,0.15403766 -0.56608,0.14751616 -0.528,-0.006522 -0.70525,-0.0782396 -0.39392,-0.15937346 z M 151.11999,0.08011696 c 6.644,-0.04829719 17.516,-0.04829719 24.16,0 6.644,0.04829718 1.208,0.08781306 -12.08,0.08781306 -13.288,0 -18.724,-0.0395159 -12.08,-0.08781306 z m 591.19998,1.647e-5 c 6.204,-0.04857638 16.356,-0.04857638 22.56,0 6.204,0.04857638 1.128,0.08832069 -11.28,0.08832069 -12.408,0 -17.484,-0.0397443 -11.28,-0.08832069 z"
         style="fill:#a5a5a5;stroke-width:0.32" />
      <path
         id="path620"
         d="M 133.44,772.45571 C 116.1478,770.80838 102.04237,764.45648 90.872947,753.28704 80.617037,743.03114 74.767844,730.91402 72.410298,715.04 71.866746,711.38013 71.835172,696.35574 71.737133,394.72 71.680557,220.656 71.619773,75.36 71.602055,71.84 71.553428,62.178128 72.614922,55.092186 75.341633,46.876698 78.729709,36.668534 83.735635,28.543656 91.333558,20.920956 100.76231,11.461457 112.49347,5.1120291 126.08,2.1146255 134.20752,0.32156336 111.25735,0.43241203 459.19998,0.5056655 l 321.75999,0.0677412 3.84,0.6771538 c 8.02554,1.4152415 14.26848,3.3911445 20.8,6.5832501 18.98202,9.2769444 32.05971,26.1690914 36.42669,47.0515044 1.4631,6.996295 1.65245,9.505658 1.59325,21.114685 -0.0304,5.984 -0.0542,149.768 -0.0526,319.52 0.003,221.85162 -0.0962,309.94474 -0.34976,313.28 -1.43651,18.89725 -7.59789,33.50816 -18.89366,44.80394 -9.82403,9.82406 -21.76503,15.62579 -37.70461,18.31948 l -4.05933,0.68599 -323.19999,0.0527 C 281.59999,772.69123 134.936,772.59824 133.44,772.45571 Z m 648.39629,-40.04032 c 12.69523,-2.66982 18.84845,-9.00982 21.25459,-21.89965 0.56976,-3.05225 0.58608,-12.56448 0.49751,-290.03574 -0.0504,-157.784 0.038,-301.117 0.19638,-318.51777 0.16349,-17.960742 0.16787,-32.831891 0.0102,-34.400003 C 802.32605,52.961571 793.7042,43.578134 779.0482,40.62943 c -1.48135,-0.298038 -73.90605,-0.383782 -321.59999,-0.380739 -294.23657,0.0036 -319.86639,0.04541 -321.92805,0.525034 -7.29586,1.697289 -12.57931,4.525273 -16.71577,8.947158 -3.43862,3.675901 -5.60076,8.102163 -6.81873,13.959117 -0.69595,3.346662 -0.69787,3.462256 -0.48324,29.12 0.11851,14.168 0.17099,151.76 0.11661,305.76 -0.0544,154 -0.0966,286.552 -0.0939,294.56 0.006,16.15136 0.24607,18.86163 2.1029,23.69373 3.51715,9.15277 11.56814,14.75142 22.95319,15.96166 1.35241,0.14375 146.53093,0.23875 322.61892,0.21107 294.38204,-0.0462 320.35938,-0.0922 322.63631,-0.57107 z M 475.51998,594.55491 c -8.78416,-0.17849 -10.35244,-0.2872 -12.19929,-0.84563 -4.17754,-1.26307 -6.97882,-3.6344 -8.28736,-7.01526 -1.0681,-2.75962 -1.07085,-8.1192 -0.005,-10.83783 1.57286,-4.01408 5.51766,-6.76083 11.05302,-7.69613 2.54483,-0.43001 15.04496,-0.47705 107.2,-0.40342 99.33123,0.0794 104.41103,0.11085 106.23923,0.65843 4.73443,1.41808 7.76099,3.65242 9.35334,6.90509 0.75731,1.54694 0.8976,2.27946 0.99837,5.21341 0.13203,3.84297 -0.33751,5.8479 -1.90861,8.1496 -1.76541,2.58637 -4.81302,4.41651 -9.11114,5.47139 -2.0535,0.504 -9.0543,0.54512 -97.73196,0.57402 -52.536,0.017 -100.056,-0.061 -105.6,-0.17367 z M 313.94303,538.40397 c -2.61185,-0.59299 -5.95405,-2.1993 -8.83795,-4.24762 -1.2402,-0.88089 -6.28183,-5.54243 -11.20361,-10.35897 -44.48855,-43.53741 -106.22464,-103.6497 -110.30595,-107.40464 -1.36646,-1.25719 -6.0496,-5.36442 -10.40697,-9.1272 -8.84917,-7.6416 -10.06314,-8.88845 -11.66985,-11.9856 -1.44741,-2.79005 -1.96458,-5.03104 -1.93854,-8.39994 0.0739,-9.56595 5.82885,-17.40762 14.33983,-19.53946 1.19582,-0.29952 9.52206,-0.45507 32.96,-0.61571 33.06599,-0.22662 33.10484,-0.22835 39.70914,-1.76 5.18373,-1.20217 11.21574,-3.8631 15.75524,-6.95017 3.79721,-2.58228 10.3247,-9.31536 13.27645,-13.69466 l 2.48042,-3.68 -48.89062,-0.17456 -48.89063,-0.17453 -3.19468,-0.72729 c -9.12879,-2.07821 -14.60376,-6.44576 -16.31478,-13.01482 -0.63148,-2.42438 -0.6316,-7.46608 -2.7e-4,-10.64229 0.27107,-1.36372 1.06866,-3.65444 1.78389,-5.12344 2.64046,-5.42316 6.93589,-8.35536 14.40518,-9.83346 2.43272,-0.48141 7.20179,-0.52562 51.56066,-0.47792 35.01928,0.0376 48.88,-0.0461 48.88,-0.29535 0,-0.19135 -0.58831,-1.3173 -1.30735,-2.50212 -7.64795,-12.60207 -18.06886,-19.92798 -31.97265,-22.47677 -5.30466,-0.97244 -16.68803,-1.2964 -43.68,-1.24311 -20.3217,0.0401 -22.99023,-0.0128 -25.28,-0.50166 -7.44491,-1.58936 -11.99937,-5.31058 -14.11504,-11.53268 -1.15395,-3.39372 -1.44689,-9.70194 -0.6226,-13.40697 1.59798,-7.18263 6.69677,-11.94357 14.66723,-13.69537 2.91155,-0.63992 4.04624,-0.65035 86.15041,-0.79214 46.12275,-0.0796 90.68675,-0.01 100,0.15699 15.84624,0.2836 16.93596,0.34042 19.19478,1.00092 7.02678,2.0547 11.54541,6.56176 13.17027,13.13657 0.63472,2.56838 0.55047,9.54429 -0.14691,12.16 -1.52134,5.70638 -5.19715,9.79852 -10.61814,11.82074 -4.53501,1.69172 -4.10055,1.67054 -37.84,1.8449 -19.81434,0.10239 -31.44,0.27634 -31.44,0.47042 0,0.16938 0.36778,1.77406 0.81729,3.56595 3.85941,15.38481 6.36005,19.40509 13.17733,21.18517 3.27591,0.85538 11.68883,1.15436 26.32538,0.93556 20.0823,-0.30021 25.4486,0.16138 30.67459,2.6385 7.41629,3.51533 11.16912,12.85785 9.13945,22.75226 -1.40339,6.84122 -6.25062,11.87287 -13.14233,13.64224 -4.08618,1.04909 -9.46599,1.26199 -32.43171,1.2833 l -22.56,0.0208 -1.76,0.96 c -2.25367,1.22928 -3.28621,2.77069 -5.27316,7.8721 -8.35239,21.44425 -22.353,37.09964 -41.60684,46.52444 -11.6728,5.71386 -26.94848,9.8392 -41.6,11.23447 -1.232,0.11731 -2.42284,0.30966 -2.64631,0.42739 -0.26149,0.13779 8.00388,8.24886 23.19077,22.75786 53.97171,51.56249 75.69167,72.88707 78.47845,77.04985 5.8911,8.79984 5.06797,16.9705 -2.47357,24.55335 -5.45565,5.48553 -11.87622,7.76713 -17.9663,6.38451 z m 150.8686,-12.85175 c -5.84742,-1.25808 -9.27161,-4.7478 -10.42851,-10.62816 -1.53149,-7.78438 2.65574,-13.62886 11.20301,-15.63696 2.28448,-0.5367 8.00464,-0.5671 106.73385,-0.5671 98.31756,0 104.44547,0.0322 106.50041,0.56013 4.69821,1.20694 7.96979,3.54329 9.82983,7.01984 0.94995,1.77552 1.09657,2.37273 1.21142,4.93379 0.32138,7.16803 -3.02131,12.08314 -9.62355,14.15069 -1.54039,0.48237 -10.35904,0.53049 -107.43811,0.58633 -92.90333,0.0535 -106.03088,0.003 -107.98835,-0.41856 z M 464.70098,456.952 c -7.66538,-2.0081 -11.41591,-7.64157 -10.32228,-15.50454 0.64135,-4.61108 3.01303,-7.84516 7.18484,-9.79738 4.33779,-2.02989 -3.17322,-1.90816 111.55644,-1.8081 98.44979,0.0859 104.59833,0.12356 106.5302,0.65258 4.57703,1.25341 7.93354,3.94813 9.36788,7.52093 0.62441,1.55533 0.73084,2.39104 0.72134,5.66451 -0.01,3.2655 -0.12429,4.12688 -0.76733,5.75763 -0.94054,2.38519 -3.59709,5.13885 -6.09209,6.31482 -4.19162,1.97561 3.49046,1.84928 -111.2665,1.82992 -101.96566,-0.0173 -104.63183,-0.0329 -106.9125,-0.63037 z m 72.90028,-123.21056 c -4.78992,-0.98195 -5.7992,-1.87126 -22.8488,-20.13339 -31.38157,-33.61329 -52.82099,-56.93837 -54.26665,-59.03958 -2.13683,-3.10578 -2.71373,-4.84149 -2.72003,-8.18396 -0.005,-2.9154 0.0518,-3.17215 1.25084,-5.6 0.9994,-2.02358 1.94932,-3.25789 4.64,-6.02905 3.4394,-3.54226 16.78717,-15.87973 19.70336,-18.21198 5.62448,-4.49826 12.14714,-4.90484 17.32138,-1.07972 2.42003,1.78907 18.62,18.67664 32.0616,33.42247 3.40064,3.73061 6.61779,7.09253 7.14921,7.47094 1.40845,1.00291 3.38851,1.13954 4.95232,0.34175 1.48083,-0.75547 2.06963,-1.28486 18.21674,-16.37892 11.94854,-11.16932 30.5966,-28.45671 61.25875,-56.78898 8.536,-7.88738 16.672,-15.26399 18.08,-16.39245 1.408,-1.12847 3.77315,-2.65629 5.25587,-3.39517 2.50288,-1.24723 2.88086,-1.343 5.28,-1.33781 2.23888,0.005 2.87709,0.14358 4.77689,1.03852 3.9144,1.84394 6.38269,4.14242 18.76724,17.47635 3.08,3.31611 6.21216,6.84159 6.96038,7.83441 1.80016,2.38873 2.68995,4.78365 2.88019,7.75232 0.26682,4.16359 -1.04192,7.44622 -4.37817,10.98159 -1.5065,1.59642 -53.59418,49.92554 -115.7024,107.3535 -8.8,8.13686 -17.05069,15.50249 -18.33488,16.36802 -3.37677,2.27597 -7.09411,3.18916 -10.30384,2.53114 z M 19.371432,729.56394 C 11.217213,728.37603 4.4689224,722.61306 1.8022354,714.56 1.3651311,713.24 0.85358135,711.0391 0.66545812,709.66912 0.42464104,707.91539 0.3218894,611.91085 0.31825795,385.26746 0.31354719,91.263619 0.35751448,63.155696 0.82542733,61.038339 1.8957013,56.195229 4.9690814,51.30143 8.7309187,48.450282 14.882598,43.787837 23.109271,42.319533 30.26509,44.606845 c 7.683718,2.456051 13.058707,9.261782 14.686406,18.595715 0.435814,2.499139 0.488502,37.39316 0.488502,323.524 0,290.00541 -0.04808,320.97622 -0.502035,323.36925 -2.595574,13.68275 -12.661987,21.34803 -25.566531,19.46813 z"
         style="fill:#858585;stroke-width:0.32" />
    </g>
  </g>
</svg>
