<?xml version="1.0" encoding="UTF-8" standalone="no"?>
<svg
   xmlns:dc="http://purl.org/dc/elements/1.1/"
   xmlns:cc="http://creativecommons.org/ns#"
   xmlns:rdf="http://www.w3.org/1999/02/22-rdf-syntax-ns#"
   xmlns:svg="http://www.w3.org/2000/svg"
   xmlns="http://www.w3.org/2000/svg"
   viewBox="0 0 1064.96 637.76001"
   height="637.76001"
   width="1064.96"
   id="svg696"
   version="1.1">
  <metadata
     id="metadata702">
    <rdf:RDF>
      <cc:Work
         rdf:about="">
        <dc:format>image/svg+xml</dc:format>
        <dc:type
           rdf:resource="http://purl.org/dc/dcmitype/StillImage" />
        <dc:title></dc:title>
      </cc:Work>
    </rdf:RDF>
  </metadata>
  <defs
     id="defs700" />
  <g
     id="g704">
    <g
       transform="translate(1.1714543,0.01828928)"
       id="g708">
      <path
         id="path710"
         d="M 68.330541,636.94059 C 53.284205,634.89035 38.975962,628.50779 27.68,618.80737 12.812344,606.03975 3.5472051,589.05345 0.75271107,569.44001 0.17987788,565.41953 0.16,557.01642 0.16,318.88 0.16,119.72783 0.23899718,71.897073 0.57197462,69.440001 3.1267203,50.588289 11.006901,34.787783 24.19254,22.078543 36.263158,10.444037 51.625894,3.0449608 68.48,0.74859771 72.65752,0.17941294 87.955738,0.16 532.32,0.16 c 426.96822,0 459.78067,0.0377334 463.2,0.53266695 20.2373,2.92928255 37.0196,12.00676905 49.8094,26.94172005 9.897,11.557025 15.9146,25.043441 18.2251,40.845614 0.4568,3.1244 0.5586,7.424266 0.6743,28.480001 0.08,14.644758 0.2582,24.924488 0.4338,25.103998 0.4178,0.42708 0.4005,140.016 -0.017,140.016 -0.2058,0 -0.3481,52.54444 -0.4111,151.76001 -0.091,142.83571 -0.1293,151.97555 -0.6581,155.42531 -1.7454,11.3864 -5.3539,21.59475 -10.8533,30.70403 -4.5965,7.61386 -12.4396,16.27664 -19.6027,21.65146 -10.2765,7.71101 -20.5867,12.20186 -34.32279,14.95021 l -3.43721,0.68774 -461.92,0.0582 C 145.82945,637.3658 71.007005,637.30513 68.330637,636.94059 Z M 992.21843,603.66398 c 9.88297,-1.46749 18.12747,-5.63507 25.24077,-12.7593 6.5067,-6.51661 10.2124,-13.30083 12.5114,-22.90467 0.5478,-2.28855 0.5787,-9.44797 0.6646,-154.16 l 0.09,-151.76001 H 532.16266 33.6 l 0.0019,150.48001 c 0.0016,129.48285 0.06631,150.90419 0.463574,153.52 1.373824,9.04595 5.478426,17.308 11.946503,24.04682 6.226387,6.487 13.024966,10.48246 21.508035,12.64009 1.672,0.42528 3.976,0.89447 5.12,1.04266 1.144,0.14822 207.765518,0.28768 459.158948,0.30995 411.3424,0.0364 457.41318,-0.009 460.41948,-0.45555 z M 701.44,490.42209 c -3.63373,-1.01107 -6.48144,-3.41219 -8.10058,-6.83015 l -1.01942,-2.15193 -0.0939,-12.75559 c -0.0823,-11.18025 -0.0282,-12.95865 0.43719,-14.4 1.15766,-3.58451 3.43692,-6.10883 7.03907,-7.79574 L 701.6,445.60001 h 121.12 121.12 l 1.85107,0.74713 c 3.55072,1.43316 6.67495,5.1681 7.56976,9.04957 0.45514,1.97418 0.43786,23.14663 -0.0205,25.30755 -1.00432,4.73338 -4.53155,8.49754 -9.07059,9.67981 -1.70426,0.44391 -14.46474,0.49293 -121.59683,0.46733 -94.81232,-0.0227 -119.9921,-0.1119 -121.13277,-0.42931 z M 1030.6365,97.040002 c -0.108,-23.847623 -0.1403,-24.999505 -0.7785,-27.760001 -0.9922,-4.291338 -1.8392,-6.629622 -3.9407,-10.88 -2.3423,-4.737219 -5.0539,-8.379277 -9.2058,-12.364375 -6.2967,-6.043712 -13.7693,-9.947648 -22.4132,-11.709373 C 991.64822,33.786135 970.31136,33.760001 532,33.760001 H 72.48 l -3.33401,0.746361 c -7.766054,1.738531 -14.620704,5.242461 -20.842937,10.654394 -7.171581,6.237651 -12.729655,16.59024 -14.237591,26.519245 -0.370454,2.439255 -0.46206,7.703696 -0.463574,26.640001 L 33.6,121.92 h 498.57459 498.57461 z"
         style="fill:#858585;stroke-width:0.32" />
    </g>
  </g>
</svg>
